<svg xmlns="http://www.w3.org/2000/svg" width="900" height="400" viewBox="0 0 900 400" fill="none">
  <rect width="900" height="400" fill="white"/>
  <line x1="64" y1="24" x2="64" y2="356" stroke="#d0d7de" stroke-width="1"/>
  <line x1="64" y1="356" x2="876" y2="356" stroke="#d0d7de" stroke-width="1"/>
  <text x="64" y="16" fill="#24292f" font-family="monospace" font-size="14">Train, train subset, and validation subset loss vs. step</text>
  <text x="64" y="388" fill="#57606a" font-family="monospace" font-size="12">step 100 to 50000</text>
  <text x="12" y="28" fill="#57606a" font-family="monospace" font-size="12">9.2107</text>
  <text x="12" y="360" fill="#57606a" font-family="monospace" font-size="12">6.6670</text>
  <polyline points="64.00,24.00 65.63,81.06 67.25,98.18 68.88,113.82 70.51,122.20 72.14,127.86 73.76,135.35 75.39,138.41 77.02,146.13 78.65,149.96 80.27,150.32 81.90,156.57 83.53,155.79 85.15,158.96 86.78,161.90 88.41,161.68 90.04,165.30 91.66,167.60 93.29,169.27 94.92,172.03 96.55,171.78 98.17,175.92 99.80,173.12 101.43,177.46 103.05,177.19 104.68,176.52 106.31,180.55 107.94,179.71 109.56,181.20 111.19,183.89 112.82,184.01 114.44,185.33 116.07,183.37 117.70,187.11 119.33,187.75 120.95,186.46 122.58,189.26 124.21,187.85 125.84,189.78 127.46,193.76 129.09,189.59 130.72,193.07 132.34,192.39 133.97,194.91 135.60,194.17 137.23,194.23 138.85,196.75 140.48,194.42 142.11,197.54 143.74,198.87 145.36,196.90 146.99,199.14 148.62,196.84 150.24,199.18 151.87,202.06 153.50,198.89 155.13,201.91 156.75,201.26 158.38,202.85 160.01,204.62 161.64,200.11 163.26,205.60 164.89,202.49 166.52,205.28 168.14,207.20 169.77,204.44 171.40,208.03 173.03,207.77 174.65,207.90 176.28,211.22 177.91,207.01 179.54,211.04 181.16,208.44 182.79,211.04 184.42,211.88 186.04,210.00 187.67,213.48 189.30,211.74 190.93,213.07 192.55,216.72 194.18,212.61 195.81,216.88 197.43,214.04 199.06,217.32 200.69,217.98 202.32,213.53 203.94,218.87 205.57,217.21 207.20,218.71 208.83,222.51 210.45,219.19 212.08,222.94 213.71,220.70 215.33,221.84 216.96,223.45 218.59,220.22 220.22,222.65 221.84,223.14 223.47,224.08 225.10,227.13 226.73,223.18 228.35,227.88 229.98,224.57 231.61,227.72 233.23,226.50 234.86,225.13 236.49,229.39 238.12,228.79 239.74,228.57 241.37,232.78 243.00,228.86 244.63,232.44 246.25,229.51 247.88,233.72 249.51,233.76 251.13,230.11 252.76,233.91 254.39,232.55 256.02,233.55 257.64,237.95 259.27,233.93 260.90,237.12 262.53,234.65 264.15,237.20 265.78,237.83 267.41,235.10 269.03,237.81 270.66,236.74 272.29,238.12 273.92,243.13 275.54,238.35 277.17,242.21 278.80,237.99 280.42,241.81 282.05,242.46 283.68,240.83 285.31,242.06 286.93,242.80 288.56,242.39 290.19,246.39 291.82,240.44 293.44,246.32 295.07,243.04 296.70,245.47 298.32,247.09 299.95,242.97 301.58,247.35 303.21,245.87 304.83,246.71 306.46,252.89 308.09,246.46 309.72,252.83 311.34,247.26 312.97,252.08 314.60,251.46 316.22,248.23 317.85,251.52 319.48,252.20 321.11,251.66 322.73,255.37 324.36,248.75 325.99,253.61 327.62,251.32 329.24,255.18 330.87,255.98 332.50,252.03 334.12,255.86 335.75,252.46 337.38,254.85 339.01,258.10 340.63,252.66 342.26,257.51 343.89,253.35 345.52,256.90 347.14,259.88 348.77,255.25 350.40,259.42 352.02,259.23 353.65,257.76 355.28,262.39 356.91,255.87 358.53,262.24 360.16,258.99 361.79,260.01 363.41,262.22 365.04,259.41 366.67,263.13 368.30,263.09 369.92,261.80 371.55,265.08 373.18,259.82 374.81,265.51 376.43,261.26 378.06,264.09 379.69,265.82 381.31,261.42 382.94,265.74 384.57,264.97 386.20,265.70 387.82,268.93 389.45,264.08 391.08,266.91 392.71,264.88 394.33,268.54 395.96,270.00 397.59,265.34 399.21,269.66 400.84,270.55 402.47,268.99 404.10,272.27 405.72,266.38 407.35,272.94 408.98,267.16 410.61,271.00 412.23,272.82 413.86,269.92 415.49,271.33 417.11,272.48 418.74,272.99 420.37,276.14 422.00,271.08 423.62,274.77 425.25,272.23 426.88,274.65 428.51,277.39 430.13,272.70 431.76,276.45 433.39,276.10 435.01,273.66 436.64,280.67 438.27,273.68 439.90,277.88 441.52,275.17 443.15,276.80 444.78,278.64 446.40,274.56 448.03,278.03 449.66,278.90 451.29,279.14 452.91,282.43 454.54,276.48 456.17,280.88 457.80,278.35 459.42,280.63 461.05,282.12 462.68,277.66 464.30,282.19 465.93,282.21 467.56,279.90 469.19,285.68 470.81,277.51 472.44,283.40 474.07,282.02 475.70,283.40 477.32,284.04 478.95,281.67 480.58,286.11 482.20,286.66 483.83,284.44 485.46,288.91 487.09,281.68 488.71,285.17 490.34,284.33 491.97,287.03 493.60,288.56 495.22,285.07 496.85,287.34 498.48,288.47 500.10,286.63 501.73,291.59 503.36,285.37 504.99,287.03 506.61,287.89 508.24,290.89 509.87,291.36 511.49,287.54 513.12,290.88 514.75,291.21 516.38,290.80 518.00,294.93 519.63,288.79 521.26,291.83 522.89,292.05 524.51,292.16 526.14,294.49 527.77,290.48 529.39,293.66 531.02,295.45 532.65,293.48 534.28,297.74 535.90,290.43 537.53,296.23 539.16,294.67 540.79,296.30 542.41,299.54 544.04,294.02 545.67,296.03 547.29,298.57 548.92,295.08 550.55,300.07 552.18,295.23 553.80,300.09 555.43,299.27 557.06,297.89 558.69,301.89 560.31,296.55 561.94,301.55 563.57,302.11 565.19,298.89 566.82,302.62 568.45,296.71 570.08,301.99 571.70,301.23 573.33,303.51 574.96,303.90 576.59,300.15 578.21,304.90 579.84,304.79 581.47,304.46 583.09,307.72 584.72,299.50 586.35,303.98 587.98,302.20 589.60,304.84 591.23,307.97 592.86,302.66 594.48,307.52 596.11,307.07 597.74,304.85 599.37,309.57 600.99,303.05 602.62,307.82 604.25,306.74 605.88,307.35 607.50,311.22 609.13,305.55 610.76,309.45 612.38,310.64 614.01,308.47 615.64,312.29 617.27,306.28 618.89,312.02 620.52,309.88 622.15,311.04 623.78,312.82 625.40,310.85 627.03,313.48 628.66,312.72 630.28,310.42 631.91,316.18 633.54,307.97 635.17,313.10 636.79,311.10 638.42,313.10 640.05,316.32 641.68,311.15 643.30,316.18 644.93,316.17 646.56,314.48 648.18,318.69 649.81,312.43 651.44,315.74 653.07,315.96 654.69,315.80 656.32,318.71 657.95,315.00 659.58,318.07 661.20,318.83 662.83,316.55 664.46,320.71 666.08,315.55 667.71,319.82 669.34,317.84 670.97,319.10 672.59,323.66 674.22,318.52 675.85,322.28 677.47,321.63 679.10,318.52 680.73,325.24 682.36,316.75 683.98,321.81 685.61,321.93 687.24,323.07 688.87,325.58 690.49,320.62 692.12,323.20 693.75,325.83 695.37,322.24 697.00,327.56 698.63,321.35 700.26,323.57 701.88,324.97 703.51,322.81 705.14,327.89 706.77,324.60 708.39,326.03 710.02,327.11 711.65,324.93 713.27,331.29 714.90,323.33 716.53,328.20 718.16,326.41 719.78,327.54 721.41,330.83 723.04,325.38 724.67,329.94 726.29,330.47 727.92,327.57 729.55,332.76 731.17,326.56 732.80,329.19 734.43,329.58 736.06,330.82 737.68,333.27 739.31,328.55 740.94,333.02 742.57,332.84 744.19,331.35 745.82,335.47 747.45,327.44 749.07,333.20 750.70,331.41 752.33,330.97 753.96,336.38 755.58,329.11 757.21,334.51 758.84,334.02 760.46,332.22 762.09,338.09 763.72,330.32 765.35,336.42 766.97,333.27 768.60,333.99 770.23,338.08 771.86,333.56 773.48,336.94 775.11,337.72 776.74,335.76 778.36,340.64 779.99,330.87 781.62,337.29 783.25,336.84 784.87,337.73 786.50,340.60 788.13,336.37 789.76,339.77 791.38,341.23 793.01,335.74 794.64,341.81 796.26,335.29 797.89,339.58 799.52,339.13 801.15,340.44 802.77,343.83 804.40,338.43 806.03,340.83 807.66,342.58 809.28,339.38 810.91,344.28 812.54,338.44 814.16,342.51 815.79,341.18 817.42,341.50 819.05,343.92 820.67,339.45 822.30,343.12 823.93,344.67 825.56,340.69 827.18,347.49 828.81,339.81 830.44,343.98 832.06,342.85 833.69,344.41 835.32,345.91 836.95,343.08 838.57,343.02 840.20,346.20 841.83,343.96 843.45,350.07 845.08,341.92 846.71,346.86 848.34,345.42 849.96,346.33 851.59,349.78 853.22,344.62 854.85,346.33 856.47,347.65 858.10,345.56 859.73,350.37 861.35,344.47 862.98,347.82 864.61,347.22 866.24,347.78 867.86,350.77 869.49,346.85 871.12,348.73 872.75,349.38 874.37,348.64 876.00,352.31" stroke="#2563eb" stroke-width="2" fill="none"/>
  <polyline points="64.00,57.91 65.63,87.01 67.25,103.07 68.88,114.19 70.51,122.12 72.14,128.87 73.76,134.05 75.39,138.47 77.02,142.46 78.65,145.51 80.27,148.69 81.90,151.18 83.53,153.75 85.15,156.03 86.78,157.97 88.41,160.04 90.04,161.88 91.66,163.48 93.29,165.13 94.92,166.49 96.55,168.11 98.17,169.41 99.80,170.69 101.43,171.96 103.05,172.79 104.68,174.11 106.31,175.20 107.94,176.08 109.56,177.14 111.19,177.93 112.82,179.01 114.44,179.93 116.07,180.84 117.70,181.61 119.33,182.24 120.95,183.23 122.58,184.01 124.21,184.66 125.84,185.46 127.46,185.91 129.09,186.90 130.72,187.53 132.34,188.18 133.97,188.88 135.60,189.20 137.23,189.97 138.85,190.64 140.48,191.07 142.11,191.77 143.74,192.08 145.36,192.96 146.99,193.47 148.62,193.97 150.24,194.65 151.87,194.92 153.50,195.65 155.13,196.23 156.75,196.76 158.38,197.37 160.01,197.76 161.64,198.55 163.26,199.07 164.89,199.62 166.52,200.05 168.14,200.57 169.77,201.26 171.40,201.80 173.03,202.35 174.65,202.90 176.28,203.23 177.91,203.99 179.54,204.58 181.16,205.03 182.79,205.69 184.42,206.01 186.04,206.71 187.67,207.22 189.30,207.75 190.93,208.29 192.55,208.68 194.18,209.43 195.81,209.76 197.43,210.27 199.06,210.90 200.69,211.31 202.32,211.97 203.94,212.43 205.57,212.80 207.20,213.34 208.83,213.67 210.45,214.45 212.08,214.83 213.71,215.31 215.33,215.89 216.96,216.23 218.59,216.79 220.22,217.33 221.84,217.80 223.47,218.44 225.10,218.57 226.73,219.22 228.35,219.81 229.98,220.37 231.61,220.83 233.23,221.08 234.86,221.49 236.49,222.22 238.12,222.55 239.74,223.11 241.37,223.40 243.00,224.17 244.63,224.39 246.25,225.11 247.88,225.41 249.51,225.75 251.13,226.45 252.76,226.99 254.39,227.27 256.02,227.79 257.64,228.12 259.27,228.75 260.90,229.15 262.53,229.68 264.15,230.13 265.78,230.03 267.41,230.89 269.03,231.20 270.66,231.68 272.29,232.34 273.92,232.52 275.54,233.27 277.17,233.57 278.80,233.93 280.42,234.37 282.05,234.66 283.68,235.24 285.31,235.55 286.93,235.97 288.56,236.52 290.19,236.64 291.82,237.16 293.44,237.68 295.07,238.14 296.70,238.62 298.32,238.62 299.95,239.38 301.58,239.63 303.21,240.08 304.83,240.43 306.46,240.62 308.09,241.50 309.72,241.71 311.34,242.11 312.97,242.33 314.60,242.76 316.22,243.12 317.85,243.95 319.48,244.05 321.11,244.59 322.73,244.56 324.36,245.32 325.99,245.74 327.62,246.08 329.24,246.22 330.87,246.57 332.50,247.21 334.12,247.39 335.75,247.71 337.38,248.26 339.01,248.39 340.63,249.05 342.26,249.26 343.89,249.61 345.52,249.96 347.14,249.95 348.77,250.72 350.40,250.95 352.02,251.55 353.65,251.74 355.28,251.97 356.91,252.44 358.53,252.71 360.16,253.34 361.79,253.60 363.41,253.52 365.04,254.31 366.67,254.66 368.30,254.36 369.92,255.11 371.55,255.57 373.18,256.02 374.81,256.16 376.43,256.35 378.06,256.89 379.69,256.90 381.31,257.48 382.94,257.77 384.57,258.09 386.20,258.30 387.82,258.45 389.45,259.26 391.08,259.49 392.71,259.73 394.33,260.27 395.96,260.39 397.59,260.87 399.21,261.09 400.84,261.42 402.47,261.63 404.10,261.45 405.72,262.52 407.35,262.00 408.98,262.93 410.61,262.93 412.23,263.55 413.86,263.96 415.49,264.08 417.11,264.51 418.74,265.06 420.37,265.04 422.00,265.80 423.62,265.88 425.25,266.09 426.88,266.42 428.51,266.37 430.13,267.17 431.76,267.31 433.39,267.54 435.01,268.01 436.64,267.96 438.27,268.44 439.90,268.91 441.52,269.13 443.15,269.45 444.78,269.77 446.40,270.26 448.03,270.21 449.66,270.38 451.29,271.28 452.91,271.21 454.54,271.86 456.17,272.05 457.80,272.65 459.42,272.66 461.05,272.62 462.68,273.20 464.30,273.25 465.93,273.20 467.56,274.14 469.19,274.21 470.81,274.71 472.44,274.54 474.07,275.16 475.70,275.69 477.32,275.21 478.95,276.29 480.58,275.23 482.20,276.78 483.83,277.02 485.46,277.49 487.09,277.82 488.71,278.20 490.34,278.14 491.97,278.21 493.60,278.78 495.22,279.53 496.85,279.54 498.48,279.26 500.10,280.07 501.73,279.98 503.36,281.02 504.99,281.11 506.61,281.46 508.24,281.23 509.87,281.75 511.49,282.00 513.12,282.31 514.75,282.04 516.38,283.28 518.00,283.16 519.63,283.95 521.26,283.76 522.89,284.29 524.51,284.51 526.14,284.91 527.77,285.20 529.39,285.37 531.02,285.75 532.65,286.08 534.28,285.83 535.90,286.85 537.53,286.67 539.16,287.22 540.79,287.65 542.41,287.67 544.04,288.08 545.67,288.51 547.29,288.75 548.92,289.32 550.55,289.07 552.18,290.09 553.80,289.99 555.43,290.46 557.06,290.73 558.69,290.41 560.31,291.15 561.94,291.35 563.57,291.33 565.19,291.96 566.82,292.00 568.45,292.73 570.08,292.13 571.70,293.41 573.33,293.79 574.96,293.91 576.59,294.01 578.21,293.20 579.84,294.96 581.47,294.88 583.09,294.54 584.72,295.81 586.35,295.87 587.98,296.31 589.60,296.47 591.23,296.49 592.86,297.44 594.48,297.49 596.11,297.51 597.74,298.06 599.37,298.21 600.99,298.73 602.62,298.87 604.25,299.13 605.88,299.34 607.50,299.74 609.13,299.80 610.76,300.03 612.38,300.47 614.01,300.94 615.64,299.87 617.27,301.31 618.89,301.63 620.52,301.36 622.15,302.72 623.78,302.47 625.40,302.98 627.03,302.91 628.66,303.35 630.28,303.68 631.91,303.77 633.54,304.10 635.17,304.34 636.79,303.44 638.42,305.18 640.05,304.93 641.68,305.65 643.30,305.62 644.93,305.65 646.56,306.55 648.18,306.35 649.81,307.39 651.44,307.44 653.07,307.81 654.69,307.59 656.32,308.25 657.95,308.65 659.58,308.42 661.20,307.79 662.83,308.98 664.46,308.85 666.08,310.22 667.71,309.45 669.34,310.18 670.97,311.01 672.59,310.61 674.22,311.29 675.85,311.51 677.47,311.58 679.10,312.02 680.73,312.39 682.36,312.84 683.98,312.83 685.61,312.72 687.24,313.40 688.87,312.51 690.49,313.42 692.12,312.92 693.75,314.33 695.37,314.96 697.00,314.36 698.63,315.64 700.26,315.58 701.88,315.30 703.51,316.09 705.14,315.47 706.77,316.05 708.39,316.77 710.02,316.80 711.65,317.13 713.27,317.02 714.90,317.86 716.53,317.58 718.16,317.94 719.78,317.74 721.41,318.32 723.04,319.37 724.67,319.46 726.29,319.51 727.92,320.14 729.55,318.97 731.17,320.47 732.80,320.41 734.43,320.58 736.06,320.69 737.68,320.68 739.31,321.96 740.94,321.62 742.57,322.30 744.19,321.63 745.82,322.23 747.45,322.32 749.07,322.51 750.70,323.25 752.33,322.54 753.96,323.17 755.58,323.94 757.21,323.64 758.84,324.41 760.46,324.79 762.09,324.68 763.72,325.35 765.35,325.22 766.97,325.28 768.60,326.03 770.23,326.06 771.86,326.62 773.48,325.41 775.11,326.69 776.74,326.03 778.36,326.26 779.99,327.32 781.62,327.35 783.25,327.95 784.87,327.45 786.50,326.93 788.13,325.72 789.76,328.25 791.38,328.33 793.01,328.25 794.64,328.29 796.26,329.75 797.89,329.60 799.52,329.49 801.15,330.22 802.77,330.23 804.40,329.93 806.03,330.70 807.66,331.34 809.28,331.13 810.91,330.92 812.54,330.62 814.16,332.11 815.79,332.02 817.42,332.26 819.05,332.51 820.67,332.96 822.30,332.74 823.93,332.87 825.56,332.82 827.18,332.12 828.81,334.08 830.44,333.27 832.06,333.87 833.69,334.72 835.32,334.17 836.95,334.62 838.57,334.23 840.20,335.07 841.83,335.10 843.45,334.82 845.08,335.52 846.71,335.68 848.34,335.38 849.96,336.66 851.59,336.21 853.22,336.80 854.85,335.84 856.47,337.26 858.10,336.84 859.73,336.99 861.35,336.67 862.98,337.23 864.61,338.08 866.24,338.66 867.86,338.41 869.49,338.67 871.12,338.51 872.75,337.73 874.37,339.15 876.00,337.62" stroke="#059669" stroke-width="2" fill="none"/>
  <polyline points="64.00,72.63 65.63,102.52 67.25,118.50 68.88,129.53 70.51,137.49 72.14,144.01 73.76,149.41 75.39,153.63 77.02,157.46 78.65,160.75 80.27,163.76 81.90,166.51 83.53,168.92 85.15,171.36 86.78,173.52 88.41,175.48 90.04,177.46 91.66,179.06 93.29,180.67 94.92,182.24 96.55,183.61 98.17,185.17 99.80,186.39 101.43,187.77 103.05,188.68 104.68,189.83 106.31,191.07 107.94,191.99 109.56,193.03 111.19,193.87 112.82,194.83 114.44,195.83 116.07,196.66 117.70,197.53 119.33,198.25 120.95,199.03 122.58,199.84 124.21,200.55 125.84,201.30 127.46,201.98 129.09,202.75 130.72,203.45 132.34,204.10 133.97,204.80 135.60,205.42 137.23,206.01 138.85,206.58 140.48,207.14 142.11,207.71 143.74,208.23 145.36,208.84 146.99,209.51 148.62,210.00 150.24,210.56 151.87,211.13 153.50,211.70 155.13,212.22 156.75,212.56 158.38,213.20 160.01,213.71 161.64,214.24 163.26,214.81 164.89,215.41 166.52,215.91 168.14,216.42 169.77,216.94 171.40,217.45 173.03,218.05 174.65,218.58 176.28,219.05 177.91,219.71 179.54,220.21 181.16,220.80 182.79,221.47 184.42,221.98 186.04,222.55 187.67,222.99 189.30,223.57 190.93,224.12 192.55,224.71 194.18,225.35 195.81,226.01 197.43,226.50 199.06,227.05 200.69,227.44 202.32,228.07 203.94,228.68 205.57,229.16 207.20,229.68 208.83,230.19 210.45,230.87 212.08,231.39 213.71,231.96 215.33,232.49 216.96,233.06 218.59,233.48 220.22,234.09 221.84,234.49 223.47,235.09 225.10,235.57 226.73,236.03 228.35,236.78 229.98,237.15 231.61,237.76 233.23,238.01 234.86,238.63 236.49,239.22 238.12,239.63 239.74,240.22 241.37,240.59 243.00,241.08 244.63,241.64 246.25,242.38 247.88,242.82 249.51,243.17 251.13,243.67 252.76,244.35 254.39,244.74 256.02,245.21 257.64,245.72 259.27,246.23 260.90,246.72 262.53,247.31 264.15,247.77 265.78,248.11 267.41,248.73 269.03,249.08 270.66,249.36 272.29,250.06 273.92,250.48 275.54,250.94 277.17,251.60 278.80,251.97 280.42,252.52 282.05,252.62 283.68,253.27 285.31,253.79 286.93,254.15 288.56,254.56 290.19,255.08 291.82,255.29 293.44,255.86 295.07,256.35 296.70,256.76 298.32,257.17 299.95,257.73 301.58,257.99 303.21,258.23 304.83,258.77 306.46,259.05 308.09,259.59 309.72,260.01 311.34,260.26 312.97,260.62 314.60,261.12 316.22,261.38 317.85,261.87 319.48,262.18 321.11,262.73 322.73,262.97 324.36,263.48 325.99,263.71 327.62,264.27 329.24,264.19 330.87,264.94 332.50,265.51 334.12,265.58 335.75,265.77 337.38,266.41 339.01,266.57 340.63,267.17 342.26,267.24 343.89,267.36 345.52,268.04 347.14,268.23 348.77,268.77 350.40,269.01 352.02,269.45 353.65,269.61 355.28,270.09 356.91,270.33 358.53,270.81 360.16,271.32 361.79,271.47 363.41,271.54 365.04,272.21 366.67,272.66 368.30,272.37 369.92,273.06 371.55,273.51 373.18,273.90 374.81,274.13 376.43,274.32 378.06,274.88 379.69,274.98 381.31,275.68 382.94,275.96 384.57,276.15 386.20,276.31 387.82,276.55 389.45,277.07 391.08,277.49 392.71,277.73 394.33,278.17 395.96,278.43 397.59,278.58 399.21,278.99 400.84,279.18 402.47,279.55 404.10,279.45 405.72,280.05 407.35,279.91 408.98,280.64 410.61,280.77 412.23,281.69 413.86,281.74 415.49,282.07 417.11,282.26 418.74,282.81 420.37,282.96 422.00,283.31 423.62,283.67 425.25,283.90 426.88,284.28 428.51,284.31 430.13,285.04 431.76,285.20 433.39,285.52 435.01,285.56 436.64,286.00 438.27,286.25 439.90,286.77 441.52,286.87 443.15,286.99 444.78,287.68 446.40,288.09 448.03,288.11 449.66,288.36 451.29,288.99 452.91,289.12 454.54,289.39 456.17,289.68 457.80,290.28 459.42,290.55 461.05,290.61 462.68,290.90 464.30,291.41 465.93,291.19 467.56,292.09 469.19,292.15 470.81,292.71 472.44,292.89 474.07,293.28 475.70,293.44 477.32,293.52 478.95,294.07 480.58,293.40 482.20,294.91 483.83,295.00 485.46,295.47 487.09,295.67 488.71,296.16 490.34,295.99 491.97,295.94 493.60,296.64 495.22,297.09 496.85,297.52 498.48,297.21 500.10,297.82 501.73,297.93 503.36,298.76 504.99,298.58 506.61,299.19 508.24,298.99 509.87,299.44 511.49,299.65 513.12,300.18 514.75,299.98 516.38,301.02 518.00,301.11 519.63,301.67 521.26,301.64 522.89,302.23 524.51,302.57 526.14,302.77 527.77,302.95 529.39,303.18 531.02,303.58 532.65,304.00 534.28,303.87 535.90,304.61 537.53,304.56 539.16,305.10 540.79,305.58 542.41,305.86 544.04,305.61 545.67,305.92 547.29,306.65 548.92,306.97 550.55,306.91 552.18,307.39 553.80,307.65 555.43,308.13 557.06,308.20 558.69,308.28 560.31,309.30 561.94,309.28 563.57,309.29 565.19,309.84 566.82,309.72 568.45,310.41 570.08,309.50 571.70,311.07 573.33,311.32 574.96,311.71 576.59,311.78 578.21,311.31 579.84,312.85 581.47,312.94 583.09,312.48 584.72,313.57 586.35,313.72 587.98,314.07 589.60,314.32 591.23,314.18 592.86,315.35 594.48,315.50 596.11,315.39 597.74,315.97 599.37,316.48 600.99,316.60 602.62,316.54 604.25,316.77 605.88,317.06 607.50,317.59 609.13,317.93 610.76,318.06 612.38,318.45 614.01,319.00 615.64,317.88 617.27,319.37 618.89,319.62 620.52,319.55 622.15,320.36 623.78,320.06 625.40,320.54 627.03,320.68 628.66,321.06 630.28,321.44 631.91,321.54 633.54,321.96 635.17,322.09 636.79,321.57 638.42,322.98 640.05,322.96 641.68,323.20 643.30,323.23 644.93,323.66 646.56,323.89 648.18,324.00 649.81,324.99 651.44,324.87 653.07,325.58 654.69,325.15 656.32,325.86 657.95,326.47 659.58,326.28 661.20,325.27 662.83,326.79 664.46,326.76 666.08,328.00 667.71,327.42 669.34,327.96 670.97,328.51 672.59,328.82 674.22,329.19 675.85,329.22 677.47,329.13 679.10,329.80 680.73,330.17 682.36,330.39 683.98,330.76 685.61,330.65 687.24,331.18 688.87,330.53 690.49,330.90 692.12,330.84 693.75,332.12 695.37,332.53 697.00,332.44 698.63,332.93 700.26,333.21 701.88,333.31 703.51,333.49 705.14,333.58 706.77,333.95 708.39,334.58 710.02,334.48 711.65,335.06 713.27,335.14 714.90,335.43 716.53,335.26 718.16,335.92 719.78,335.29 721.41,336.34 723.04,337.04 724.67,336.89 726.29,337.32 727.92,337.76 729.55,336.90 731.17,337.78 732.80,337.84 734.43,338.52 736.06,338.35 737.68,338.53 739.31,339.66 740.94,339.13 742.57,339.60 744.19,339.52 745.82,339.72 747.45,340.04 749.07,339.78 750.70,340.91 752.33,340.22 753.96,341.15 755.58,341.53 757.21,341.06 758.84,342.00 760.46,342.02 762.09,342.09 763.72,342.44 765.35,342.44 766.97,342.49 768.60,343.44 770.23,343.52 771.86,343.31 773.48,342.70 775.11,344.24 776.74,343.13 778.36,343.71 779.99,344.56 781.62,344.37 783.25,345.28 784.87,345.37 786.50,344.80 788.13,343.23 789.76,346.07 791.38,345.56 793.01,345.63 794.64,345.86 796.26,346.92 797.89,346.51 799.52,347.12 801.15,347.46 802.77,347.47 804.40,347.23 806.03,348.13 807.66,348.42 809.28,348.05 810.91,348.27 812.54,347.63 814.16,349.01 815.79,349.17 817.42,349.38 819.05,349.49 820.67,350.23 822.30,350.02 823.93,350.04 825.56,349.94 827.18,349.66 828.81,351.14 830.44,350.29 832.06,351.18 833.69,351.64 835.32,351.25 836.95,351.59 838.57,351.10 840.20,352.08 841.83,352.02 843.45,352.02 845.08,351.91 846.71,352.66 848.34,352.10 849.96,353.18 851.59,353.05 853.22,353.33 854.85,352.68 856.47,354.07 858.10,354.10 859.73,354.08 861.35,353.63 862.98,354.17 864.61,354.60 866.24,355.15 867.86,355.09 869.49,355.27 871.12,355.39 872.75,354.42 874.37,356.00 876.00,354.75" stroke="#dc2626" stroke-width="2" fill="none"/>
  <circle cx="876.00" cy="352.31" r="3" fill="#2563eb"/>
  <circle cx="876.00" cy="337.62" r="3" fill="#059669"/>
  <circle cx="876.00" cy="354.75" r="3" fill="#dc2626"/>
  <text x="680" y="18" fill="#57606a" font-family="monospace" font-size="12">train</text>
  <line x1="600" y1="14" x2="672" y2="14" stroke="#2563eb" stroke-width="2"/>
  <text x="680" y="38" fill="#57606a" font-family="monospace" font-size="12">train subset</text>
  <line x1="600" y1="34" x2="672" y2="34" stroke="#059669" stroke-width="2"/>
  <text x="680" y="58" fill="#57606a" font-family="monospace" font-size="12">validation subset</text>
  <line x1="600" y1="54" x2="672" y2="54" stroke="#dc2626" stroke-width="2"/>
</svg>
