<svg xmlns="http://www.w3.org/2000/svg" width="900" height="400" viewBox="0 0 900 400" fill="none">
  <rect width="900" height="400" fill="white"/>
  <line x1="64" y1="24" x2="64" y2="356" stroke="#d0d7de" stroke-width="1"/>
  <line x1="64" y1="356" x2="876" y2="356" stroke="#d0d7de" stroke-width="1"/>
  <text x="64" y="16" fill="#24292f" font-family="monospace" font-size="14">Train and validation subset loss vs. step</text>
  <text x="64" y="388" fill="#57606a" font-family="monospace" font-size="12">step 40 to 2000</text>
  <text x="12" y="28" fill="#57606a" font-family="monospace" font-size="12">9.9323</text>
  <text x="12" y="360" fill="#57606a" font-family="monospace" font-size="12">8.4583</text>
  <polyline points="64.00,24.00 80.57,95.62 97.14,133.68 113.71,156.97 130.29,173.19 146.86,189.98 163.43,201.37 180.00,203.12 196.57,216.88 213.14,224.65 229.71,224.33 246.29,233.37 262.86,245.57 279.43,249.50 296.00,257.11 312.57,261.64 329.14,267.37 345.71,272.11 362.29,285.92 378.86,279.37 395.43,278.86 412.00,287.31 428.57,279.70 445.14,292.71 461.71,290.77 478.29,297.18 494.86,299.75 511.43,305.64 528.00,309.34 544.57,305.12 561.14,300.32 577.71,304.97 594.29,322.05 610.86,308.34 627.43,318.57 644.00,317.93 660.57,318.43 677.14,319.82 693.71,325.01 710.29,326.68 726.86,333.79 743.43,330.56 760.00,344.59 776.57,336.61 793.14,340.54 809.71,338.13 826.29,351.44 842.86,342.14 859.43,345.52 876.00,338.03" stroke="#2563eb" stroke-width="2" fill="none"/>
  <polyline points="64.00,71.88 80.57,118.61 97.14,147.65 113.71,168.40 130.29,184.57 146.86,198.08 163.43,209.30 180.00,218.89 196.57,227.81 213.14,235.65 229.71,242.84 246.29,249.74 262.86,256.03 279.43,261.56 296.00,267.01 312.57,272.16 329.14,277.07 345.71,281.64 362.29,285.86 378.86,289.78 395.43,293.47 412.00,297.09 428.57,300.29 445.14,303.54 461.71,306.51 478.29,309.54 494.86,312.47 511.43,315.20 528.00,317.81 544.57,320.27 561.14,322.69 577.71,325.01 594.29,327.13 610.86,329.39 627.43,331.44 644.00,333.40 660.57,335.37 677.14,337.15 693.71,339.07 710.29,340.73 726.86,342.53 743.43,344.16 760.00,345.71 776.57,347.34 793.14,348.97 809.71,350.45 826.29,351.99 842.86,353.46 859.43,354.67 876.00,356.00" stroke="#dc2626" stroke-width="2" fill="none"/>
  <circle cx="876.00" cy="338.03" r="3" fill="#2563eb"/>
  <circle cx="876.00" cy="356.00" r="3" fill="#dc2626"/>
  <text x="680" y="18" fill="#57606a" font-family="monospace" font-size="12">train</text>
  <line x1="600" y1="14" x2="672" y2="14" stroke="#2563eb" stroke-width="2"/>
  <text x="680" y="38" fill="#57606a" font-family="monospace" font-size="12">validation subset</text>
  <line x1="600" y1="34" x2="672" y2="34" stroke="#dc2626" stroke-width="2"/>
</svg>
