<svg xmlns="http://www.w3.org/2000/svg" width="900" height="400" viewBox="0 0 900 400" fill="none">
  <rect width="900" height="400" fill="white"/>
  <line x1="64" y1="24" x2="64" y2="356" stroke="#d0d7de" stroke-width="1"/>
  <line x1="64" y1="356" x2="876" y2="356" stroke="#d0d7de" stroke-width="1"/>
  <text x="64" y="16" fill="#24292f" font-family="monospace" font-size="14">Train, train subset, and validation subset loss vs. step</text>
  <text x="64" y="388" fill="#57606a" font-family="monospace" font-size="12">step 100 to 100000</text>
  <text x="12" y="28" fill="#57606a" font-family="monospace" font-size="12">8.0842</text>
  <text x="12" y="360" fill="#57606a" font-family="monospace" font-size="12">5.3223</text>
  <polyline points="64.00,24.00 64.81,95.00 65.63,130.70 66.44,156.51 67.25,171.92 68.06,177.38 68.88,187.19 69.69,194.53 70.50,198.39 71.32,209.04 72.13,207.36 72.94,215.49 73.75,220.76 74.57,225.81 75.38,234.13 76.19,233.36 77.01,240.18 77.82,246.58 78.63,246.18 79.44,255.66 80.26,250.05 81.07,256.71 81.88,260.08 82.69,261.50 83.51,267.97 84.32,264.50 85.13,268.68 85.95,274.00 86.76,270.62 87.57,279.00 88.38,271.38 89.20,276.09 90.01,279.16 90.82,279.18 91.64,285.38 92.45,280.59 93.26,283.85 94.07,287.95 94.89,283.90 95.70,292.09 96.51,283.72 97.33,288.26 98.14,290.61 98.95,289.86 99.76,295.55 100.58,289.98 101.39,293.51 102.20,296.70 103.02,292.67 103.83,300.53 104.64,291.57 105.45,295.34 106.27,297.47 107.08,296.15 107.89,302.63 108.70,296.73 109.52,299.90 110.33,303.28 111.14,299.28 111.96,306.89 112.77,297.64 113.58,301.91 114.39,303.85 115.21,302.06 116.02,308.85 116.83,301.96 117.65,305.20 118.46,308.09 119.27,303.28 120.08,310.57 120.90,301.40 121.71,304.99 122.52,307.16 123.34,305.05 124.15,311.27 124.96,304.52 125.77,306.96 126.59,310.60 127.40,305.88 128.21,313.06 129.03,303.58 129.84,307.06 130.65,309.30 131.46,307.34 132.28,312.73 133.09,306.19 133.90,308.53 134.71,311.96 135.53,306.78 136.34,314.64 137.15,304.93 137.97,308.84 138.78,310.83 139.59,309.32 140.40,314.95 141.22,309.03 142.03,311.13 142.84,314.94 143.66,309.71 144.47,317.43 145.28,307.93 146.09,311.50 146.91,313.76 147.72,311.59 148.53,317.37 149.35,310.74 150.16,313.82 150.97,316.37 151.78,311.12 152.60,318.67 153.41,309.27 154.22,312.88 155.04,314.99 155.85,312.98 156.66,318.49 157.47,312.15 158.29,314.77 159.10,318.08 159.91,312.75 160.72,320.50 161.54,310.57 162.35,314.35 163.16,315.69 163.98,313.61 164.79,319.40 165.60,312.70 166.41,315.06 167.23,318.18 168.04,313.32 168.85,320.64 169.67,310.81 170.48,314.06 171.29,316.35 172.10,314.02 172.92,319.99 173.73,313.42 174.54,315.79 175.36,319.05 176.17,313.80 176.98,321.32 177.79,311.26 178.61,314.79 179.42,317.49 180.23,314.77 181.05,321.24 181.86,314.33 182.67,316.97 183.48,319.90 184.30,314.90 185.11,322.39 185.92,312.67 186.73,315.90 187.55,318.11 188.36,316.36 189.17,322.59 189.99,315.68 190.80,318.12 191.61,320.55 192.42,316.49 193.24,323.65 194.05,313.70 194.86,317.43 195.68,319.47 196.49,317.57 197.30,323.65 198.11,316.43 198.93,319.10 199.74,321.83 200.55,316.93 201.37,324.63 202.18,314.96 202.99,318.26 203.80,320.02 204.62,317.90 205.43,324.19 206.24,317.03 207.06,320.23 207.87,322.76 208.68,318.07 209.49,325.57 210.31,315.60 211.12,319.17 211.93,321.34 212.74,319.20 213.56,325.45 214.37,318.37 215.18,320.73 216.00,323.52 216.81,318.28 217.62,326.29 218.43,316.82 219.25,320.17 220.06,321.99 220.87,319.88 221.69,326.06 222.50,319.23 223.31,321.87 224.12,325.02 224.94,319.88 225.75,327.53 226.56,317.99 227.38,321.34 228.19,323.55 229.00,321.12 229.81,327.12 230.63,320.40 231.44,323.27 232.25,325.99 233.07,320.73 233.88,328.11 234.69,318.45 235.50,321.58 236.32,323.82 237.13,322.25 237.94,327.59 238.75,321.35 239.57,323.15 240.38,326.64 241.19,321.80 242.01,328.90 242.82,319.29 243.63,322.62 244.44,325.12 245.26,322.49 246.07,328.78 246.88,321.78 247.70,324.33 248.51,327.60 249.32,322.51 250.13,329.49 250.95,319.89 251.76,323.30 252.57,325.21 253.39,323.00 254.20,329.48 255.01,322.17 255.82,324.29 256.64,327.73 257.45,323.37 258.26,330.79 259.08,320.55 259.89,323.95 260.70,326.06 261.51,323.60 262.33,330.11 263.14,323.33 263.95,325.42 264.76,328.34 265.58,323.38 266.39,331.11 267.20,321.14 268.02,324.69 268.83,326.72 269.64,324.43 270.45,330.72 271.27,324.06 272.08,326.33 272.89,328.83 273.71,324.37 274.52,331.71 275.33,321.85 276.14,324.91 276.96,327.59 277.77,325.01 278.58,331.25 279.40,324.58 280.21,326.47 281.02,329.62 281.83,324.54 282.65,332.22 283.46,323.18 284.27,326.04 285.09,328.10 285.90,325.87 286.71,332.38 287.52,325.53 288.34,327.49 289.15,330.67 289.96,325.77 290.77,333.10 291.59,323.59 292.40,327.18 293.21,329.47 294.03,326.92 294.84,332.41 295.65,325.83 296.46,328.18 297.28,331.35 298.09,326.63 298.90,334.05 299.72,324.40 300.53,327.36 301.34,329.65 302.15,327.49 302.97,333.58 303.78,327.26 304.59,329.20 305.41,332.45 306.22,327.53 307.03,334.76 307.84,324.97 308.66,328.21 309.47,330.75 310.28,328.14 311.10,334.18 311.91,327.81 312.72,329.41 313.53,332.75 314.35,327.93 315.16,334.94 315.97,325.45 316.78,328.86 317.60,331.02 318.41,328.25 319.22,334.30 320.04,327.66 320.85,330.14 321.66,333.13 322.47,328.12 323.29,335.91 324.10,325.87 324.91,329.14 325.73,331.63 326.54,328.71 327.35,335.18 328.16,328.34 328.98,330.76 329.79,333.75 330.60,328.91 331.42,336.46 332.23,326.79 333.04,329.89 333.85,332.25 334.67,330.27 335.48,335.96 336.29,328.83 337.11,331.32 337.92,334.26 338.73,328.96 339.54,336.51 340.36,327.38 341.17,330.43 341.98,332.53 342.79,330.12 343.61,336.02 344.42,329.78 345.23,332.04 346.05,335.01 346.86,329.78 347.67,337.13 348.48,327.45 349.30,330.37 350.11,333.16 350.92,330.71 351.74,336.89 352.55,330.44 353.36,332.39 354.17,335.34 354.99,330.10 355.80,337.73 356.61,328.75 357.43,331.49 358.24,333.59 359.05,331.06 359.86,337.44 360.68,330.76 361.49,333.16 362.30,336.10 363.12,331.08 363.93,337.67 364.74,329.02 365.55,331.48 366.37,334.45 367.18,331.61 367.99,337.95 368.80,331.39 369.62,333.55 370.43,336.46 371.24,331.41 372.06,338.85 372.87,329.14 373.68,332.06 374.49,335.06 375.31,332.08 376.12,338.38 376.93,332.05 377.75,333.80 378.56,336.98 379.37,331.90 380.18,339.51 381.00,329.99 381.81,332.61 382.62,335.00 383.44,332.85 384.25,338.62 385.06,332.13 385.87,334.26 386.69,337.36 387.50,332.26 388.31,340.06 389.13,330.23 389.94,332.98 390.75,336.07 391.56,332.88 392.38,339.08 393.19,332.68 394.00,334.69 394.81,337.76 395.63,332.54 396.44,340.00 397.25,330.47 398.07,333.48 398.88,335.99 399.69,333.64 400.50,339.82 401.32,333.15 402.13,335.35 402.94,338.63 403.76,333.51 404.57,340.66 405.38,331.29 406.19,333.67 407.01,336.76 407.82,333.98 408.63,339.81 409.45,333.21 410.26,335.89 411.07,338.45 411.88,333.82 412.70,341.10 413.51,331.63 414.32,334.95 415.14,336.93 415.95,334.55 416.76,340.91 417.57,334.10 418.39,336.01 419.20,339.47 420.01,334.10 420.82,341.90 421.64,332.41 422.45,334.90 423.26,337.97 424.08,335.18 424.89,341.12 425.70,334.79 426.51,336.50 427.33,340.14 428.14,334.75 428.95,341.90 429.77,332.73 430.58,335.81 431.39,338.80 432.20,335.35 433.02,342.15 433.83,335.21 434.64,337.34 435.46,340.56 436.27,335.26 437.08,342.66 437.89,333.11 438.71,335.89 439.52,338.37 440.33,335.73 441.15,342.37 441.96,335.83 442.77,338.00 443.58,340.76 444.40,335.64 445.21,343.22 446.02,333.55 446.83,336.81 447.65,339.31 448.46,336.77 449.27,342.87 450.09,336.03 450.90,337.74 451.71,341.27 452.52,336.11 453.34,343.51 454.15,334.21 454.96,336.80 455.78,339.66 456.59,336.89 457.40,343.01 458.21,336.55 459.03,338.16 459.84,341.58 460.65,336.91 461.47,344.06 462.28,334.83 463.09,337.22 463.90,340.02 464.72,337.39 465.53,343.71 466.34,336.88 467.16,339.13 467.97,342.46 468.78,337.04 469.59,344.49 470.41,335.44 471.22,337.92 472.03,340.81 472.84,338.03 473.66,344.01 474.47,337.40 475.28,339.59 476.10,342.55 476.91,337.77 477.72,345.32 478.53,335.90 479.35,338.52 480.16,341.34 480.97,338.24 481.79,344.47 482.60,337.85 483.41,339.92 484.22,343.14 485.04,338.73 485.85,345.78 486.66,335.91 487.48,338.53 488.29,341.67 489.10,338.75 489.91,345.46 490.73,338.64 491.54,340.76 492.35,343.98 493.17,338.77 493.98,345.95 494.79,336.43 495.60,339.19 496.42,341.72 497.23,339.83 498.04,345.62 498.85,339.22 499.67,340.64 500.48,343.85 501.29,338.76 502.11,346.16 502.92,336.85 503.73,339.69 504.54,342.48 505.36,339.73 506.17,346.03 506.98,338.86 507.80,341.25 508.61,344.48 509.42,338.97 510.23,346.62 511.05,337.28 511.86,339.94 512.67,342.87 513.49,339.81 514.30,345.90 515.11,339.57 515.92,341.36 516.74,345.11 517.55,339.91 518.36,347.30 519.18,337.32 519.99,340.64 520.80,342.96 521.61,340.62 522.43,346.54 523.24,340.02 524.05,341.17 524.86,344.94 525.68,340.40 526.49,347.64 527.30,338.11 528.12,340.75 528.93,343.86 529.74,340.97 530.55,346.65 531.37,340.59 532.18,342.29 532.99,345.11 533.81,340.65 534.62,348.02 535.43,338.49 536.24,341.46 537.06,344.30 537.87,341.10 538.68,347.67 539.50,340.61 540.31,342.53 541.12,345.76 541.93,340.94 542.75,348.45 543.56,338.96 544.37,341.65 545.19,344.52 546.00,341.49 546.81,348.23 547.62,341.14 548.44,343.29 549.25,345.71 550.06,341.46 550.87,348.25 551.69,339.25 552.50,342.12 553.31,344.57 554.13,342.00 554.94,348.14 555.75,341.19 556.56,343.43 557.38,346.68 558.19,341.16 559.00,348.53 559.82,339.58 560.63,342.32 561.44,344.91 562.25,342.00 563.07,348.23 563.88,341.89 564.69,343.50 565.51,347.44 566.32,341.64 567.13,349.51 567.94,339.92 568.76,342.58 569.57,345.13 570.38,342.40 571.20,348.67 572.01,341.82 572.82,344.12 573.63,347.71 574.45,342.06 575.26,349.36 576.07,339.67 576.88,342.77 577.70,345.42 578.51,343.05 579.32,348.89 580.14,342.42 580.95,344.43 581.76,347.74 582.57,342.73 583.39,349.98 584.20,340.15 585.01,343.36 585.83,346.00 586.64,342.98 587.45,349.11 588.26,342.57 589.08,344.77 589.89,347.69 590.70,342.37 591.52,350.07 592.33,340.35 593.14,343.28 593.95,345.67 594.77,343.05 595.58,349.25 596.39,342.95 597.21,345.03 598.02,348.52 598.83,342.72 599.64,350.41 600.46,340.96 601.27,343.20 602.08,346.10 602.89,343.75 603.71,349.58 604.52,343.38 605.33,345.10 606.15,347.86 606.96,343.55 607.77,350.44 608.58,341.11 609.40,343.61 610.21,346.65 611.02,343.83 611.84,350.19 612.65,343.27 613.46,345.41 614.27,348.80 615.09,343.48 615.90,350.92 616.71,341.22 617.53,343.88 618.34,346.94 619.15,344.35 619.96,350.39 620.78,343.66 621.59,345.47 622.40,349.15 623.22,343.21 624.03,350.89 624.84,341.63 625.65,344.82 626.47,347.26 627.28,344.98 628.09,350.83 628.90,344.32 629.72,346.01 630.53,349.17 631.34,344.06 632.16,351.36 632.97,342.12 633.78,344.21 634.59,347.11 635.41,344.54 636.22,350.80 637.03,344.06 637.85,346.16 638.66,349.37 639.47,344.15 640.28,351.48 641.10,342.26 641.91,344.62 642.72,347.52 643.54,344.63 644.35,350.70 645.16,344.09 645.97,346.36 646.79,349.57 647.60,344.42 648.41,351.65 649.23,342.08 650.04,344.55 650.85,347.71 651.66,345.12 652.48,351.41 653.29,344.51 654.10,346.78 654.91,349.73 655.73,344.67 656.54,351.49 657.35,342.98 658.17,345.12 658.98,347.86 659.79,345.07 660.60,351.26 661.42,345.11 662.23,346.91 663.04,350.05 663.86,345.26 664.67,352.59 665.48,343.03 666.29,345.31 667.11,348.62 667.92,345.54 668.73,351.63 669.55,345.47 670.36,346.90 671.17,350.07 671.98,345.00 672.80,351.91 673.61,343.35 674.42,345.50 675.24,348.37 676.05,345.40 676.86,351.93 677.67,345.26 678.49,347.43 679.30,350.46 680.11,345.27 680.92,352.90 681.74,343.44 682.55,345.90 683.36,348.46 684.18,345.91 684.99,351.81 685.80,345.38 686.61,347.22 687.43,350.82 688.24,345.49 689.05,352.49 689.87,343.44 690.68,346.29 691.49,348.92 692.30,345.99 693.12,352.19 693.93,345.88 694.74,347.87 695.56,350.79 696.37,345.84 697.18,353.10 697.99,343.72 698.81,346.19 699.62,348.98 700.43,346.66 701.25,352.64 702.06,345.90 702.87,347.91 703.68,351.41 704.50,346.06 705.31,353.24 706.12,344.06 706.93,346.59 707.75,349.66 708.56,346.71 709.37,352.53 710.19,346.25 711.00,348.33 711.81,351.91 712.62,346.30 713.44,353.35 714.25,344.16 715.06,346.76 715.88,349.42 716.69,347.03 717.50,352.85 718.31,346.61 719.13,348.25 719.94,351.29 720.75,346.73 721.57,354.01 722.38,344.50 723.19,347.06 724.00,350.05 724.82,346.78 725.63,353.37 726.44,346.08 727.26,348.35 728.07,351.18 728.88,346.61 729.69,353.45 730.51,344.62 731.32,346.91 732.13,350.05 732.94,347.71 733.76,353.19 734.57,346.85 735.38,348.59 736.20,351.72 737.01,346.95 737.82,353.94 738.63,344.87 739.45,347.04 740.26,350.16 741.07,347.47 741.89,353.49 742.70,347.26 743.51,348.70 744.32,352.26 745.14,346.51 745.95,353.87 746.76,344.76 747.58,347.27 748.39,350.24 749.20,347.55 750.01,353.70 750.83,347.19 751.64,349.17 752.45,351.78 753.27,346.98 754.08,354.15 754.89,344.61 755.70,347.30 756.52,350.19 757.33,347.16 758.14,353.45 758.95,346.88 759.77,348.79 760.58,352.10 761.39,346.55 762.21,353.66 763.02,344.41 763.83,347.28 764.64,350.41 765.46,347.07 766.27,353.07 767.08,346.89 767.90,348.29 768.71,352.27 769.52,347.04 770.33,354.02 771.15,344.74 771.96,347.13 772.77,350.08 773.59,347.31 774.40,353.19 775.21,346.76 776.02,349.09 776.84,352.53 777.65,346.86 778.46,354.20 779.28,344.86 780.09,347.42 780.90,350.60 781.71,347.00 782.53,353.50 783.34,346.96 784.15,349.01 784.96,351.69 785.78,347.06 786.59,354.30 787.40,345.17 788.22,347.33 789.03,350.60 789.84,347.53 790.65,353.74 791.47,347.01 792.28,348.86 793.09,352.10 793.91,347.04 794.72,354.25 795.53,344.90 796.34,347.77 797.16,350.37 797.97,347.65 798.78,353.63 799.60,347.12 800.41,349.33 801.22,352.48 802.03,346.95 802.85,354.21 803.66,344.87 804.47,347.76 805.29,350.74 806.10,347.56 806.91,353.72 807.72,347.13 808.54,349.38 809.35,353.17 810.16,347.73 810.97,354.59 811.79,345.47 812.60,347.80 813.41,350.98 814.23,347.97 815.04,353.85 815.85,347.26 816.66,349.08 817.48,352.70 818.29,347.70 819.10,354.67 819.92,345.52 820.73,347.94 821.54,350.69 822.35,348.14 823.17,354.24 823.98,347.62 824.79,349.40 825.61,352.61 826.42,347.48 827.23,354.89 828.04,345.33 828.86,348.00 829.67,350.73 830.48,348.10 831.30,354.35 832.11,347.67 832.92,349.64 833.73,352.95 834.55,347.84 835.36,355.23 836.17,345.92 836.98,348.12 837.80,350.89 838.61,348.47 839.42,354.23 840.24,348.04 841.05,350.08 841.86,353.02 842.67,348.06 843.49,354.79 844.30,345.89 845.11,348.54 845.93,351.07 846.74,348.00 847.55,354.67 848.36,348.08 849.18,350.25 849.99,353.14 850.80,348.33 851.62,355.40 852.43,346.05 853.24,348.60 854.05,351.81 854.87,348.77 855.68,354.92 856.49,348.23 857.31,350.34 858.12,353.16 858.93,348.33 859.74,355.55 860.56,346.42 861.37,348.58 862.18,351.44 862.99,348.87 863.81,354.93 864.62,348.62 865.43,350.04 866.25,353.00 867.06,348.73 867.87,355.29 868.68,346.50 869.50,349.07 870.31,351.73 871.12,348.70 871.94,355.27 872.75,348.66 873.56,350.95 874.37,354.24 875.19,348.45 876.00,356.00" stroke="#2563eb" stroke-width="2" fill="none"/>
  <polyline points="64.00,64.66 64.81,105.48 65.63,137.22 66.44,154.84 67.25,163.42 68.06,173.28 68.88,179.61 69.69,184.99 70.50,192.57 71.32,194.31 72.13,205.49 72.94,206.97 73.75,211.37 74.57,214.70 75.38,218.21 76.19,225.56 77.01,227.76 77.82,232.86 78.63,237.95 79.44,238.42 80.26,248.15 81.07,247.87 81.88,249.03 82.69,251.94 83.51,251.58 84.32,254.83 85.13,257.26 85.95,258.65 86.76,258.70 87.57,259.32 88.38,270.12 89.20,264.66 90.01,267.65 90.82,267.86 91.64,264.51 92.45,271.29 93.26,272.85 94.07,273.11 94.89,273.52 95.70,273.90 96.51,283.40 97.33,277.05 98.14,278.51 98.95,278.85 99.76,278.64 100.58,279.88 101.39,279.81 102.20,281.34 103.02,282.01 103.83,280.63 104.64,289.32 105.45,284.25 106.27,285.24 107.08,284.63 107.89,283.37 108.70,286.94 109.52,285.82 110.33,283.97 111.14,288.07 111.96,285.77 112.77,295.44 113.58,289.99 114.39,288.72 115.21,291.72 116.02,288.45 116.83,292.28 117.65,289.84 118.46,290.77 119.27,291.09 120.08,289.26 120.90,298.45 121.71,295.28 122.52,294.78 123.34,294.27 124.15,290.55 124.96,294.50 125.77,293.08 126.59,292.88 127.40,294.97 128.21,293.35 129.03,300.91 129.84,295.18 130.65,294.98 131.46,294.61 132.28,294.39 133.09,295.68 133.90,292.53 134.71,294.32 135.53,296.07 136.34,293.20 137.15,302.53 137.97,295.95 138.78,294.89 139.59,295.13 140.40,294.14 141.22,295.75 142.03,296.25 142.84,295.88 143.66,297.12 144.47,295.42 145.28,305.28 146.09,297.44 146.91,296.78 147.72,297.70 148.53,295.01 149.35,298.27 150.16,297.95 150.97,297.41 151.78,299.59 152.60,297.79 153.41,306.14 154.22,299.70 155.04,299.58 155.85,298.46 156.66,296.26 157.47,299.18 158.29,298.45 159.10,298.76 159.91,300.45 160.72,298.32 161.54,306.89 162.35,299.55 163.16,301.25 163.98,300.45 164.79,296.92 165.60,299.89 166.41,299.71 167.23,299.49 168.04,299.24 168.85,296.58 169.67,307.33 170.48,301.23 171.29,302.12 172.10,299.48 172.92,299.04 173.73,301.24 174.54,300.07 175.36,300.68 176.17,300.45 176.98,299.44 177.79,309.15 178.61,303.01 179.42,300.83 180.23,300.77 181.05,298.06 181.86,302.59 182.67,300.98 183.48,300.95 184.30,303.29 185.11,298.49 185.92,309.94 186.73,302.06 187.55,302.95 188.36,302.29 189.17,300.34 189.99,304.01 190.80,300.80 191.61,301.38 192.42,303.98 193.24,299.06 194.05,309.41 194.86,303.14 195.68,303.49 196.49,303.69 197.30,301.26 198.11,305.03 198.93,301.44 199.74,302.60 200.55,304.36 201.37,301.31 202.18,312.10 202.99,305.45 203.80,305.61 204.62,306.01 205.43,303.06 206.24,304.39 207.06,303.80 207.87,304.38 208.68,306.47 209.49,301.76 210.31,313.60 211.12,306.53 211.93,306.10 212.74,305.80 213.56,302.89 214.37,304.24 215.18,305.03 216.00,306.34 216.81,307.01 217.62,301.77 218.43,315.69 219.25,307.22 220.06,306.46 220.87,307.92 221.69,304.79 222.50,306.84 223.31,305.56 224.12,306.73 224.94,307.27 225.75,305.39 226.56,315.45 227.38,307.77 228.19,308.96 229.00,307.08 229.81,306.77 230.63,308.23 231.44,306.82 232.25,306.44 233.07,306.69 233.88,302.82 234.69,315.38 235.50,308.33 236.32,306.61 237.13,307.20 237.94,306.07 238.75,308.11 239.57,307.29 240.38,307.21 241.19,308.70 242.01,305.36 242.82,316.90 243.63,308.73 244.44,309.29 245.26,309.01 246.07,306.53 246.88,308.17 247.70,307.08 248.51,306.76 249.32,309.02 250.13,303.12 250.95,317.07 251.76,309.72 252.57,310.09 253.39,308.95 254.20,306.08 255.01,308.60 255.82,307.92 256.64,306.87 257.45,309.74 258.26,304.48 259.08,317.63 259.89,309.26 260.70,310.90 261.51,310.79 262.33,308.18 263.14,311.47 263.95,309.76 264.76,310.70 265.58,310.71 266.39,308.80 267.20,318.85 268.02,312.90 268.83,311.46 269.64,310.26 270.45,310.05 271.27,310.29 272.08,310.24 272.89,308.87 273.71,309.24 274.52,307.29 275.33,318.72 276.14,311.15 276.96,312.00 277.77,311.09 278.58,308.23 279.40,311.29 280.21,309.31 281.02,311.11 281.83,311.97 282.65,307.21 283.46,320.22 284.27,312.36 285.09,312.18 285.90,312.64 286.71,311.13 287.52,313.37 288.34,311.90 289.15,310.63 289.96,312.22 290.77,309.08 291.59,320.47 292.40,313.90 293.21,313.83 294.03,313.07 294.84,310.77 295.65,312.05 296.46,313.28 297.28,314.62 298.09,312.89 298.90,309.55 299.72,320.88 300.53,313.07 301.34,313.44 302.15,313.05 302.97,312.93 303.78,313.13 304.59,312.61 305.41,313.88 306.22,314.76 307.03,310.51 307.84,321.31 308.66,313.84 309.47,314.51 310.28,315.43 311.10,310.59 311.91,315.27 312.72,312.53 313.53,312.67 314.35,312.88 315.16,311.21 315.97,322.98 316.78,314.91 317.60,313.41 318.41,313.67 319.22,312.99 320.04,314.46 320.85,314.22 321.66,312.84 322.47,315.60 323.29,312.05 324.10,324.10 324.91,315.57 325.73,315.79 326.54,314.24 327.35,313.10 328.16,315.28 328.98,314.13 329.79,313.17 330.60,314.49 331.42,311.72 332.23,323.63 333.04,316.65 333.85,315.73 334.67,315.26 335.48,311.55 336.29,315.17 337.11,313.70 337.92,312.88 338.73,315.45 339.54,312.24 340.36,323.09 341.17,316.24 341.98,314.45 342.79,315.72 343.61,313.14 344.42,316.41 345.23,314.81 346.05,316.22 346.86,315.32 347.67,310.74 348.48,323.76 349.30,316.84 350.11,315.33 350.92,315.26 351.74,314.45 352.55,315.07 353.36,313.91 354.17,316.42 354.99,315.98 355.80,314.14 356.61,325.01 357.43,316.10 358.24,315.71 359.05,315.98 359.86,314.09 360.68,317.69 361.49,316.00 362.30,317.02 363.12,316.04 363.93,315.53 364.74,325.83 365.55,318.97 366.37,317.50 367.18,318.05 367.99,313.86 368.80,317.46 369.62,316.09 370.43,316.50 371.24,318.42 372.06,312.48 372.87,325.42 373.68,317.60 374.49,317.94 375.31,315.95 376.12,313.79 376.93,317.87 377.75,317.08 378.56,318.25 379.37,318.67 380.18,315.49 381.00,327.76 381.81,318.69 382.62,318.86 383.44,318.84 384.25,316.49 385.06,318.97 385.87,317.15 386.69,316.88 387.50,317.86 388.31,316.23 389.13,327.21 389.94,318.74 390.75,319.08 391.56,318.59 392.38,316.63 393.19,319.74 394.00,317.67 394.81,317.07 395.63,318.50 396.44,318.01 397.25,326.66 398.07,321.82 398.88,319.57 399.69,319.88 400.50,315.94 401.32,319.97 402.13,315.72 402.94,319.12 403.76,319.85 404.57,316.82 405.38,327.34 406.19,319.88 407.01,319.93 407.82,318.78 408.63,317.39 409.45,320.11 410.26,318.30 411.07,318.82 411.88,319.28 412.70,317.95 413.51,327.31 414.32,318.35 415.14,319.18 415.95,322.04 416.76,319.22 417.57,320.43 418.39,319.21 419.20,317.69 420.01,320.90 420.82,318.48 421.64,328.68 422.45,319.99 423.26,321.69 424.08,319.72 424.89,318.33 425.70,321.69 426.51,319.13 427.33,321.07 428.14,322.52 428.95,319.82 429.77,330.51 430.58,322.26 431.39,321.91 432.20,321.43 433.02,317.91 433.83,321.47 434.64,320.60 435.46,320.31 436.27,321.90 437.08,318.81 437.89,328.92 438.71,322.77 439.52,321.68 440.33,322.11 441.15,319.93 441.96,322.56 442.77,318.60 443.58,321.48 444.40,321.13 445.21,320.12 446.02,331.91 446.83,322.69 447.65,322.63 448.46,321.92 449.27,318.77 450.09,320.89 450.90,319.05 451.71,321.34 452.52,322.03 453.34,318.47 454.15,330.56 454.96,322.68 455.78,323.50 456.59,321.11 457.40,319.89 458.21,324.49 459.03,320.11 459.84,322.27 460.65,321.58 461.47,320.11 462.28,331.16 463.09,321.73 463.90,324.12 464.72,322.99 465.53,319.70 466.34,323.47 467.16,321.67 467.97,322.51 468.78,324.30 469.59,319.86 470.41,331.88 471.22,322.02 472.03,323.44 472.84,323.03 473.66,321.34 474.47,322.94 475.28,320.79 476.10,322.36 476.91,323.54 477.72,320.99 478.53,332.64 479.35,323.47 480.16,323.93 480.97,323.27 481.79,322.03 482.60,324.32 483.41,320.80 484.22,323.58 485.04,323.48 485.85,319.74 486.66,332.40 487.48,324.66 488.29,324.47 489.10,324.52 489.91,321.07 490.73,324.67 491.54,323.42 492.35,322.65 493.17,324.39 493.98,320.09 494.79,332.64 495.60,324.39 496.42,323.74 497.23,323.55 498.04,323.05 498.85,323.42 499.67,323.00 500.48,324.05 501.29,325.42 502.11,322.57 502.92,335.05 503.73,325.61 504.54,324.86 505.36,325.89 506.17,322.21 506.98,324.39 507.80,323.34 508.61,322.64 509.42,323.91 510.23,321.52 511.05,334.29 511.86,323.73 512.67,323.88 513.49,325.13 514.30,321.85 515.11,325.27 515.92,323.30 516.74,323.94 517.55,324.92 518.36,321.82 519.18,334.26 519.99,325.39 520.80,324.72 521.61,327.10 522.43,323.68 523.24,325.74 524.05,324.18 524.86,325.21 525.68,325.49 526.49,321.91 527.30,334.47 528.12,325.43 528.93,325.77 529.74,325.89 530.55,323.30 531.37,326.82 532.18,325.54 532.99,324.66 533.81,326.08 534.62,322.03 535.43,334.44 536.24,327.05 537.06,325.36 537.87,325.37 538.68,322.67 539.50,325.55 540.31,325.17 541.12,324.80 541.93,325.53 542.75,321.34 543.56,335.73 544.37,327.43 545.19,326.14 546.00,326.85 546.81,323.21 547.62,325.65 548.44,324.78 549.25,325.87 550.06,325.74 550.87,321.89 551.69,334.37 552.50,325.68 553.31,326.50 554.13,326.51 554.94,323.93 555.75,326.09 556.56,324.47 557.38,324.21 558.19,326.15 559.00,322.77 559.82,335.73 560.63,326.17 561.44,326.60 562.25,326.86 563.07,323.42 563.88,326.97 564.69,326.04 565.51,325.48 566.32,327.00 567.13,324.10 567.94,335.54 568.76,326.24 569.57,327.22 570.38,328.11 571.20,324.73 572.01,327.16 572.82,325.55 573.63,327.18 574.45,327.46 575.26,324.16 576.07,335.79 576.88,327.14 577.70,327.07 578.51,327.56 579.32,323.86 580.14,328.46 580.95,327.06 581.76,325.48 582.57,326.59 583.39,324.05 584.20,337.55 585.01,328.36 585.83,328.12 586.64,328.78 587.45,324.93 588.26,326.90 589.08,325.32 589.89,325.49 590.70,326.88 591.52,322.75 592.33,335.46 593.14,328.34 593.95,328.09 594.77,327.99 595.58,324.60 596.39,328.60 597.21,325.80 598.02,325.96 598.83,328.86 599.64,323.26 600.46,336.00 601.27,326.78 602.08,326.87 602.89,328.68 603.71,325.87 604.52,327.78 605.33,327.80 606.15,326.36 606.96,327.86 607.77,325.24 608.58,336.65 609.40,328.57 610.21,326.95 611.02,328.44 611.84,324.97 612.65,326.69 613.46,326.70 614.27,327.44 615.09,327.44 615.90,323.40 616.71,336.28 617.53,328.93 618.34,329.54 619.15,330.18 619.96,326.18 620.78,327.85 621.59,325.74 622.40,326.35 623.22,327.21 624.03,325.45 624.84,338.58 625.65,327.69 626.47,328.00 627.28,329.79 628.09,325.26 628.90,328.96 629.72,326.73 630.53,328.46 631.34,328.23 632.16,326.08 632.97,337.36 633.78,328.14 634.59,328.11 635.41,328.88 636.22,326.63 637.03,328.68 637.85,326.34 638.66,329.13 639.47,328.60 640.28,326.10 641.10,338.49 641.91,328.12 642.72,327.84 643.54,328.40 644.35,327.35 645.16,328.81 645.97,327.45 646.79,327.58 647.60,328.68 648.41,325.69 649.23,336.93 650.04,328.36 650.85,328.70 651.66,330.85 652.48,326.47 653.29,329.51 654.10,326.66 654.91,326.19 655.73,329.79 656.54,326.67 657.35,338.94 658.17,328.49 658.98,328.52 659.79,330.51 660.60,326.09 661.42,330.11 662.23,329.38 663.04,328.33 663.86,330.67 664.67,326.57 665.48,337.96 666.29,330.31 667.11,328.77 667.92,330.31 668.73,326.20 669.55,330.89 670.36,327.56 671.17,327.05 671.98,329.83 672.80,326.53 673.61,338.88 674.42,329.25 675.24,329.81 676.05,330.79 676.86,326.66 677.67,330.52 678.49,327.79 679.30,328.47 680.11,330.17 680.92,325.86 681.74,337.72 682.55,330.96 683.36,329.24 684.18,330.18 684.99,328.16 685.80,330.38 686.61,328.63 687.43,327.99 688.24,329.69 689.05,324.63 689.87,338.65 690.68,330.74 691.49,329.76 692.30,330.54 693.12,326.50 693.93,328.96 694.74,328.17 695.56,328.92 696.37,329.83 697.18,327.38 697.99,339.84 698.81,329.87 699.62,329.31 700.43,330.21 701.25,325.87 702.06,330.09 702.87,327.63 703.68,328.89 704.50,331.07 705.31,327.51 706.12,339.80 706.93,330.13 707.75,330.85 708.56,331.72 709.37,328.58 710.19,331.17 711.00,328.14 711.81,330.17 712.62,330.82 713.44,328.51 714.25,340.98 715.06,331.52 715.88,330.08 716.69,331.90 717.50,326.99 718.31,330.02 719.13,328.28 719.94,329.24 720.75,330.43 721.57,328.51 722.38,339.67 723.19,330.75 724.00,330.33 724.82,332.74 725.63,327.26 726.44,331.54 727.26,329.14 728.07,331.42 728.88,332.27 729.69,327.16 730.51,340.33 731.32,331.70 732.13,332.25 732.94,330.90 733.76,328.23 734.57,331.48 735.38,330.71 736.20,329.84 737.01,332.51 737.82,327.39 738.63,341.32 739.45,330.90 740.26,332.60 741.07,332.43 741.89,329.14 742.70,331.12 743.51,330.01 744.32,330.02 745.14,331.73 745.95,328.42 746.76,340.00 747.58,331.27 748.39,330.67 749.20,332.62 750.01,328.86 750.83,331.16 751.64,330.20 752.45,330.56 753.27,330.56 754.08,327.12 754.89,340.77 755.70,331.68 756.52,331.10 757.33,331.71 758.14,329.38 758.95,331.95 759.77,329.29 760.58,328.58 761.39,331.37 762.21,327.51 763.02,339.39 763.83,330.72 764.64,331.53 765.46,331.66 766.27,328.02 767.08,331.57 767.90,328.52 768.71,329.66 769.52,331.04 770.33,328.20 771.15,340.00 771.96,330.03 772.77,330.46 773.59,332.69 774.40,328.73 775.21,330.72 776.02,330.20 776.84,331.23 777.65,330.92 778.46,328.40 779.28,341.92 780.09,331.19 780.90,331.72 781.71,331.85 782.53,328.18 783.34,331.45 784.15,328.85 784.96,329.47 785.78,330.82 786.59,328.35 787.40,341.02 788.22,330.49 789.03,330.66 789.84,331.17 790.65,329.67 791.47,331.17 792.28,329.83 793.09,330.88 793.91,330.10 794.72,329.09 795.53,338.87 796.34,331.82 797.16,330.12 797.97,331.57 798.78,327.57 799.60,330.73 800.41,330.37 801.22,330.77 802.03,330.90 802.85,328.12 803.66,339.37 804.47,331.63 805.29,330.92 806.10,331.13 806.91,328.38 807.72,331.21 808.54,328.11 809.35,329.38 810.16,329.03 810.97,326.31 811.79,339.54 812.60,332.03 813.41,329.44 814.23,329.99 815.04,329.47 815.85,331.51 816.66,327.98 817.48,330.30 818.29,330.40 819.10,328.91 819.92,340.72 820.73,330.68 821.54,332.04 822.35,330.45 823.17,328.80 823.98,330.77 824.79,329.54 825.61,329.19 826.42,330.80 827.23,327.59 828.04,341.06 828.86,331.05 829.67,330.88 830.48,332.56 831.30,328.02 832.11,331.27 832.92,329.49 833.73,330.31 834.55,331.41 835.36,328.36 836.17,340.58 836.98,331.43 837.80,330.40 838.61,332.85 839.42,328.62 840.24,330.67 841.05,329.84 841.86,330.60 842.67,332.64 843.49,329.01 844.30,341.52 845.11,330.91 845.93,332.63 846.74,332.22 847.55,328.20 848.36,332.88 849.18,331.28 849.99,330.21 850.80,331.93 851.62,329.62 852.43,342.63 853.24,330.50 854.05,332.63 854.87,332.50 855.68,329.96 856.49,332.46 857.31,329.30 858.12,331.97 858.93,332.60 859.74,328.71 860.56,343.12 861.37,331.19 862.18,333.18 862.99,331.72 863.81,328.50 864.62,333.25 865.43,330.68 866.25,331.58 867.06,332.89 867.87,328.65 868.68,340.43 869.50,331.07 870.31,332.34 871.12,333.41 871.94,329.42 872.75,332.41 873.56,329.16 874.37,331.31 875.19,333.21 876.00,329.13" stroke="#059669" stroke-width="2" fill="none"/>
  <polyline points="64.00,77.50 64.81,123.32 65.63,153.26 66.44,170.66 67.25,179.35 68.06,187.77 68.88,194.41 69.69,200.00 70.50,206.23 71.32,210.80 72.13,217.30 72.94,221.52 73.75,226.03 74.57,230.27 75.38,235.28 76.19,239.26 77.01,243.19 77.82,247.93 78.63,250.48 79.44,252.85 80.26,257.28 81.07,259.77 81.88,263.01 82.69,263.67 83.51,265.83 84.32,268.77 85.13,271.40 85.95,272.66 86.76,273.46 87.57,275.17 88.38,276.64 89.20,277.84 90.01,279.79 90.82,279.66 91.64,279.16 92.45,281.39 93.26,283.38 94.07,284.55 94.89,285.96 95.70,287.55 96.51,288.36 97.33,289.22 98.14,289.80 98.95,289.09 99.76,291.84 100.58,291.75 101.39,292.76 102.20,293.76 103.02,293.90 103.83,292.83 104.64,295.35 105.45,295.84 106.27,296.65 107.08,295.55 107.89,297.37 108.70,299.67 109.52,298.13 110.33,299.71 111.14,299.73 111.96,298.94 112.77,302.47 113.58,301.72 114.39,302.30 115.21,303.07 116.02,301.97 116.83,303.00 117.65,303.11 118.46,302.53 119.27,303.74 120.08,302.76 120.90,303.28 121.71,304.43 122.52,304.10 123.34,304.06 124.15,302.58 124.96,304.76 125.77,304.89 126.59,305.22 127.40,303.82 128.21,305.46 129.03,306.17 129.84,306.83 130.65,306.06 131.46,304.42 132.28,306.04 133.09,306.60 133.90,305.46 134.71,307.45 135.53,306.42 136.34,307.22 137.15,307.57 137.97,306.78 138.78,306.30 139.59,306.92 140.40,308.46 141.22,306.61 142.03,309.01 142.84,308.04 143.66,308.91 144.47,308.82 145.28,310.48 146.09,308.49 146.91,308.23 147.72,309.80 148.53,308.94 149.35,309.29 150.16,309.30 150.97,310.37 151.78,310.96 152.60,311.07 153.41,311.95 154.22,311.40 155.04,311.63 155.85,309.88 156.66,310.00 157.47,310.93 158.29,311.67 159.10,311.44 159.91,311.74 160.72,311.28 161.54,312.34 162.35,312.05 163.16,313.35 163.98,313.11 164.79,311.36 165.60,312.70 166.41,312.81 167.23,313.58 168.04,311.87 168.85,311.30 169.67,313.15 170.48,313.28 171.29,313.28 172.10,312.69 172.92,312.69 173.73,312.96 174.54,313.10 175.36,312.06 176.17,312.73 176.98,311.99 177.79,313.65 178.61,313.45 179.42,312.97 180.23,314.73 181.05,311.81 181.86,312.90 182.67,313.73 183.48,313.45 184.30,313.61 185.11,312.50 185.92,314.52 186.73,314.52 187.55,314.69 188.36,313.34 189.17,313.06 189.99,314.85 190.80,314.47 191.61,315.02 192.42,314.70 193.24,314.47 194.05,315.40 194.86,316.42 195.68,316.32 196.49,314.64 197.30,314.95 198.11,315.75 198.93,314.77 199.74,315.83 200.55,316.40 201.37,316.34 202.18,316.80 202.99,316.43 203.80,317.43 204.62,317.54 205.43,317.19 206.24,317.82 207.06,318.13 207.87,317.33 208.68,317.27 209.49,316.14 210.31,318.52 211.12,317.50 211.93,319.08 212.74,317.91 213.56,317.93 214.37,316.88 215.18,317.20 216.00,317.85 216.81,317.88 217.62,316.66 218.43,318.62 219.25,318.01 220.06,316.35 220.87,317.32 221.69,317.26 222.50,317.74 223.31,319.70 224.12,318.91 224.94,318.64 225.75,318.15 226.56,319.25 227.38,319.43 228.19,319.00 229.00,317.92 229.81,316.91 230.63,317.88 231.44,318.73 232.25,317.43 233.07,318.77 233.88,317.16 234.69,318.05 235.50,321.13 236.32,320.38 237.13,319.38 237.94,319.25 238.75,319.07 239.57,319.07 240.38,320.22 241.19,320.41 242.01,319.74 242.82,322.95 243.63,319.85 244.44,321.15 245.26,320.23 246.07,319.55 246.88,320.34 247.70,320.72 248.51,320.94 249.32,319.57 250.13,317.78 250.95,321.11 251.76,321.92 252.57,320.10 253.39,320.21 254.20,320.62 255.01,319.05 255.82,321.21 256.64,319.58 257.45,321.47 258.26,319.08 259.08,322.32 259.89,320.27 260.70,322.19 261.51,322.13 262.33,320.96 263.14,321.12 263.95,322.14 264.76,322.45 265.58,321.21 266.39,320.96 267.20,321.51 268.02,322.71 268.83,321.63 269.64,321.22 270.45,321.39 271.27,320.88 272.08,322.54 272.89,321.39 273.71,320.96 274.52,321.09 275.33,322.46 276.14,323.17 276.96,323.32 277.77,322.04 278.58,321.25 279.40,321.33 280.21,324.10 281.02,323.84 281.83,323.54 282.65,321.30 283.46,323.66 284.27,324.34 285.09,323.75 285.90,323.28 286.71,323.49 287.52,322.85 288.34,324.38 289.15,323.54 289.96,324.48 290.77,323.15 291.59,324.90 292.40,324.93 293.21,325.59 294.03,324.23 294.84,324.63 295.65,323.63 296.46,325.19 297.28,326.29 298.09,325.42 298.90,324.42 299.72,325.57 300.53,325.44 301.34,324.20 302.15,324.31 302.97,325.44 303.78,324.51 304.59,325.46 305.41,325.27 306.22,324.39 307.03,324.53 307.84,325.69 308.66,325.06 309.47,325.68 310.28,323.82 311.10,324.90 311.91,325.50 312.72,325.46 313.53,325.91 314.35,325.94 315.16,326.04 315.97,326.73 316.78,327.00 317.60,325.94 318.41,325.41 319.22,325.44 320.04,326.13 320.85,327.45 321.66,324.62 322.47,326.15 323.29,326.10 324.10,327.41 324.91,327.11 325.73,327.70 326.54,325.74 327.35,326.73 328.16,325.73 328.98,326.50 329.79,326.97 330.60,327.58 331.42,325.69 332.23,327.32 333.04,326.88 333.85,326.48 334.67,324.94 335.48,328.22 336.29,327.44 337.11,326.70 337.92,326.90 338.73,327.12 339.54,327.72 340.36,328.84 341.17,327.60 341.98,327.95 342.79,326.80 343.61,327.78 344.42,327.10 345.23,328.02 346.05,327.68 346.86,326.12 347.67,325.19 348.48,327.73 349.30,327.91 350.11,328.82 350.92,327.20 351.74,328.05 352.55,326.87 353.36,327.96 354.17,328.04 354.99,327.42 355.80,327.65 356.61,328.20 357.43,327.69 358.24,328.26 359.05,328.07 359.86,327.24 360.68,328.48 361.49,330.14 362.30,328.84 363.12,328.06 363.93,329.11 364.74,328.70 365.55,329.73 366.37,327.57 367.18,327.78 367.99,327.00 368.80,327.56 369.62,328.83 370.43,330.28 371.24,330.37 372.06,326.21 372.87,330.21 373.68,329.35 374.49,329.89 375.31,328.20 376.12,328.66 376.93,327.95 377.75,330.17 378.56,329.75 379.37,329.67 380.18,328.71 381.00,329.68 381.81,329.60 382.62,329.45 383.44,328.67 384.25,329.61 385.06,327.81 385.87,329.69 386.69,330.16 387.50,329.72 388.31,329.14 389.13,330.43 389.94,330.06 390.75,329.90 391.56,330.18 392.38,329.38 393.19,329.43 394.00,331.69 394.81,328.90 395.63,329.11 396.44,329.34 397.25,330.40 398.07,330.58 398.88,330.82 399.69,330.30 400.50,329.74 401.32,328.75 402.13,330.62 402.94,330.35 403.76,330.45 404.57,329.38 405.38,331.08 406.19,329.66 407.01,331.87 407.82,330.77 408.63,331.64 409.45,330.52 410.26,330.71 411.07,329.37 411.88,331.22 412.70,330.23 413.51,331.02 414.32,330.62 415.14,331.10 415.95,330.54 416.76,332.86 417.57,330.66 418.39,331.41 419.20,330.73 420.01,330.59 420.82,330.95 421.64,331.90 422.45,331.20 423.26,333.00 424.08,331.26 424.89,329.94 425.70,331.33 426.51,331.95 427.33,331.31 428.14,331.83 428.95,331.93 429.77,332.30 430.58,333.50 431.39,331.57 432.20,331.39 433.02,331.30 433.83,331.41 434.64,331.82 435.46,332.87 436.27,331.22 437.08,330.65 437.89,332.32 438.71,333.15 439.52,331.60 440.33,332.52 441.15,331.00 441.96,332.55 442.77,331.11 443.58,334.16 444.40,332.00 445.21,331.44 446.02,332.38 446.83,332.86 447.65,332.89 448.46,332.75 449.27,331.01 450.09,330.92 450.90,332.76 451.71,333.44 452.52,331.96 453.34,331.31 454.15,332.08 454.96,332.97 455.78,333.56 456.59,332.14 457.40,332.17 458.21,333.45 459.03,331.80 459.84,334.95 460.65,332.59 461.47,333.26 462.28,333.54 463.09,332.43 463.90,334.30 464.72,333.65 465.53,332.18 466.34,333.23 467.16,334.08 467.97,335.05 468.78,333.11 469.59,333.47 470.41,332.76 471.22,334.09 472.03,334.03 472.84,332.14 473.66,333.88 474.47,333.74 475.28,333.99 476.10,334.55 476.91,335.11 477.72,332.03 478.53,335.29 479.35,333.32 480.16,334.26 480.97,333.93 481.79,334.26 482.60,334.87 483.41,334.02 484.22,335.06 485.04,335.39 485.85,334.22 486.66,334.51 487.48,335.95 488.29,334.05 489.10,333.49 489.91,333.96 490.73,334.85 491.54,334.60 492.35,334.35 493.17,334.28 493.98,332.58 494.79,333.67 495.60,334.41 496.42,334.80 497.23,332.10 498.04,335.15 498.85,332.99 499.67,335.19 500.48,335.94 501.29,335.35 502.11,336.15 502.92,335.61 503.73,335.09 504.54,335.36 505.36,335.94 506.17,335.46 506.98,333.62 507.80,335.58 508.61,335.18 509.42,335.47 510.23,334.44 511.05,333.79 511.86,333.12 512.67,333.68 513.49,336.41 514.30,335.33 515.11,336.33 515.92,335.97 516.74,336.41 517.55,336.16 518.36,336.22 519.18,335.56 519.99,334.79 520.80,334.85 521.61,335.48 522.43,334.57 523.24,336.22 524.05,336.96 524.86,337.07 525.68,336.26 526.49,334.32 527.30,336.36 528.12,335.53 528.93,335.00 529.74,335.49 530.55,335.19 531.37,335.39 532.18,336.31 532.99,335.75 533.81,336.48 534.62,335.20 535.43,337.00 536.24,338.00 537.06,334.91 537.87,335.62 538.68,334.24 539.50,335.97 540.31,336.68 541.12,336.34 541.93,336.11 542.75,335.56 543.56,337.76 544.37,337.59 545.19,336.21 546.00,335.61 546.81,334.26 547.62,335.79 548.44,336.73 549.25,336.76 550.06,336.36 550.87,334.69 551.69,336.07 552.50,336.83 553.31,337.30 554.13,336.63 554.94,334.78 555.75,337.28 556.56,336.69 557.38,336.56 558.19,336.19 559.00,333.88 559.82,335.18 560.63,336.23 561.44,337.11 562.25,335.71 563.07,335.60 563.88,335.94 564.69,339.20 565.51,338.67 566.32,336.52 567.13,336.43 567.94,337.77 568.76,336.54 569.57,337.79 570.38,336.08 571.20,337.29 572.01,337.97 572.82,338.76 573.63,338.52 574.45,338.27 575.26,337.53 576.07,337.98 576.88,337.85 577.70,335.64 578.51,336.30 579.32,336.57 580.14,338.21 580.95,339.25 581.76,338.00 582.57,337.04 583.39,337.05 584.20,339.16 585.01,337.65 585.83,337.71 586.64,336.91 587.45,335.90 588.26,336.25 589.08,337.22 589.89,336.67 590.70,337.60 591.52,334.97 592.33,337.84 593.14,338.45 593.95,337.70 594.77,337.50 595.58,337.09 596.39,338.45 597.21,339.14 598.02,339.14 598.83,338.71 599.64,336.40 600.46,338.90 601.27,338.24 602.08,339.16 602.89,336.87 603.71,339.41 604.52,338.69 605.33,338.36 606.15,338.68 606.96,338.73 607.77,337.76 608.58,338.19 609.40,339.21 610.21,338.44 611.02,338.26 611.84,337.47 612.65,338.13 613.46,338.77 614.27,340.28 615.09,340.30 615.90,338.77 616.71,339.88 617.53,340.07 618.34,339.47 619.15,339.84 619.96,338.63 620.78,338.64 621.59,340.42 622.40,340.01 623.22,339.64 624.03,340.47 624.84,340.30 625.65,339.43 626.47,339.67 627.28,339.12 628.09,338.92 628.90,340.39 629.72,339.50 630.53,339.53 631.34,336.95 632.16,338.99 632.97,339.76 633.78,339.08 634.59,339.20 635.41,339.47 636.22,338.20 637.03,338.36 637.85,338.00 638.66,338.85 639.47,338.37 640.28,338.58 641.10,339.88 641.91,339.81 642.72,338.96 643.54,338.63 644.35,338.53 645.16,338.25 645.97,338.99 646.79,339.56 647.60,338.78 648.41,338.26 649.23,339.01 650.04,338.96 650.85,339.51 651.66,340.82 652.48,341.30 653.29,340.12 654.10,340.29 654.91,339.70 655.73,339.91 656.54,339.39 657.35,341.68 658.17,340.19 658.98,339.95 659.79,340.59 660.60,339.56 661.42,339.34 662.23,340.23 663.04,340.96 663.86,339.66 664.67,338.82 665.48,341.31 666.29,341.81 667.11,341.35 667.92,338.24 668.73,339.39 669.55,339.17 670.36,341.00 671.17,339.76 671.98,339.62 672.80,338.11 673.61,340.04 674.42,339.77 675.24,338.99 676.05,339.48 676.86,339.81 677.67,339.85 678.49,339.66 679.30,339.72 680.11,339.78 680.92,338.63 681.74,340.89 682.55,341.16 683.36,340.22 684.18,338.92 684.99,339.34 685.80,340.16 686.61,340.02 687.43,339.61 688.24,338.55 689.05,338.08 689.87,340.37 690.68,341.71 691.49,340.90 692.30,340.01 693.12,339.49 693.93,339.80 694.74,340.86 695.56,340.00 696.37,341.23 697.18,339.02 697.99,341.05 698.81,339.20 699.62,340.62 700.43,339.90 701.25,340.67 702.06,341.03 702.87,341.64 703.68,341.69 704.50,342.23 705.31,339.77 706.12,341.78 706.93,341.79 707.75,340.45 708.56,340.92 709.37,342.79 710.19,340.45 711.00,341.36 711.81,341.58 712.62,340.02 713.44,341.69 714.25,344.02 715.06,340.69 715.88,341.03 716.69,340.58 717.50,339.83 718.31,340.47 719.13,340.57 719.94,342.36 720.75,341.69 721.57,340.25 722.38,341.59 723.19,342.16 724.00,340.52 724.82,341.35 725.63,339.61 726.44,339.95 727.26,340.51 728.07,343.24 728.88,341.47 729.69,339.97 730.51,341.80 731.32,342.28 732.13,342.35 732.94,340.93 733.76,341.72 734.57,342.11 735.38,342.13 736.20,341.26 737.01,342.09 737.82,341.25 738.63,342.55 739.45,341.26 740.26,341.74 741.07,341.48 741.89,341.39 742.70,340.56 743.51,342.29 744.32,340.54 745.14,339.86 745.95,340.55 746.76,339.99 747.58,341.90 748.39,341.79 749.20,342.42 750.01,342.17 750.83,341.76 751.64,343.58 752.45,343.47 753.27,341.50 754.08,341.59 754.89,342.19 755.70,341.80 756.52,341.92 757.33,341.54 758.14,342.46 758.95,341.98 759.77,342.39 760.58,341.80 761.39,340.41 762.21,340.23 763.02,341.62 763.83,342.24 764.64,341.93 765.46,340.88 766.27,341.29 767.08,342.23 767.90,340.56 768.71,342.72 769.52,342.07 770.33,341.03 771.15,342.58 771.96,341.38 772.77,340.63 773.59,341.72 774.40,340.27 775.21,342.57 776.02,342.86 776.84,343.21 777.65,341.14 778.46,341.46 779.28,343.22 780.09,342.31 780.90,342.80 781.71,341.69 782.53,342.28 783.34,342.14 784.15,341.27 784.96,342.75 785.78,342.72 786.59,342.05 787.40,344.08 788.22,341.76 789.03,343.52 789.84,341.65 790.65,341.95 791.47,340.76 792.28,342.85 793.09,342.84 793.91,341.48 794.72,342.19 795.53,343.26 796.34,341.88 797.16,343.12 797.97,341.16 798.78,340.45 799.60,343.16 800.41,342.60 801.22,343.15 802.03,342.28 802.85,341.41 803.66,344.22 804.47,343.32 805.29,342.13 806.10,343.12 806.91,342.00 807.72,342.03 808.54,342.84 809.35,341.29 810.16,342.03 810.97,340.61 811.79,344.39 812.60,343.04 813.41,343.79 814.23,341.20 815.04,340.75 815.85,342.32 816.66,340.14 817.48,342.38 818.29,342.07 819.10,342.72 819.92,343.34 820.73,343.41 821.54,343.27 822.35,341.21 823.17,341.72 823.98,341.29 824.79,343.58 825.61,342.82 826.42,343.15 827.23,341.15 828.04,342.77 828.86,342.75 829.67,342.30 830.48,341.39 831.30,341.13 832.11,341.99 832.92,340.93 833.73,342.05 834.55,342.33 835.36,340.67 836.17,340.92 836.98,341.85 837.80,341.34 838.61,340.97 839.42,341.60 840.24,342.37 841.05,342.47 841.86,342.69 842.67,342.10 843.49,341.85 844.30,343.46 845.11,341.67 845.93,343.45 846.74,342.20 847.55,343.36 848.36,342.51 849.18,342.17 849.99,344.10 850.80,342.15 851.62,341.64 852.43,343.14 853.24,341.31 854.05,343.82 854.87,341.84 855.68,341.46 856.49,342.51 857.31,342.62 858.12,343.39 858.93,343.25 859.74,341.46 860.56,344.74 861.37,341.86 862.18,343.59 862.99,340.99 863.81,341.39 864.62,341.83 865.43,342.11 866.25,342.99 867.06,341.44 867.87,341.78 868.68,344.71 869.50,344.20 870.31,342.76 871.12,343.59 871.94,342.58 872.75,342.21 873.56,343.09 874.37,343.26 875.19,343.32 876.00,343.15" stroke="#dc2626" stroke-width="2" fill="none"/>
  <circle cx="876.00" cy="356.00" r="3" fill="#2563eb"/>
  <circle cx="876.00" cy="329.13" r="3" fill="#059669"/>
  <circle cx="876.00" cy="343.15" r="3" fill="#dc2626"/>
  <text x="680" y="18" fill="#57606a" font-family="monospace" font-size="12">train</text>
  <line x1="600" y1="14" x2="672" y2="14" stroke="#2563eb" stroke-width="2"/>
  <text x="680" y="38" fill="#57606a" font-family="monospace" font-size="12">train subset</text>
  <line x1="600" y1="34" x2="672" y2="34" stroke="#059669" stroke-width="2"/>
  <text x="680" y="58" fill="#57606a" font-family="monospace" font-size="12">validation subset</text>
  <line x1="600" y1="54" x2="672" y2="54" stroke="#dc2626" stroke-width="2"/>
</svg>
