<svg xmlns="http://www.w3.org/2000/svg" width="900" height="400" viewBox="0 0 900 400" fill="none">
  <rect width="900" height="400" fill="white"/>
  <line x1="64" y1="24" x2="64" y2="356" stroke="#d0d7de" stroke-width="1"/>
  <line x1="64" y1="356" x2="876" y2="356" stroke="#d0d7de" stroke-width="1"/>
  <text x="64" y="16" fill="#24292f" font-family="monospace" font-size="14">Train, train subset, and validation subset loss vs. step</text>
  <text x="64" y="388" fill="#57606a" font-family="monospace" font-size="12">step 100 to 100000</text>
  <text x="12" y="28" fill="#57606a" font-family="monospace" font-size="12">8.1928</text>
  <text x="12" y="360" fill="#57606a" font-family="monospace" font-size="12">4.7111</text>
  <polyline points="64.00,24.00 64.81,62.68 65.63,92.60 66.44,121.47 67.25,141.83 68.06,152.20 68.88,163.74 69.69,171.78 70.50,178.03 71.32,190.07 72.13,191.09 72.94,199.62 73.75,205.25 74.57,209.48 75.38,217.51 76.19,217.72 77.01,223.28 77.82,229.56 78.63,229.94 79.44,237.28 80.26,235.08 81.07,240.16 81.88,243.41 82.69,245.08 83.51,250.95 84.32,248.65 85.13,252.93 85.95,256.36 86.76,255.00 87.57,262.54 88.38,257.51 89.20,261.62 90.01,264.73 90.82,264.43 91.64,269.90 92.45,265.80 93.26,269.49 94.07,273.24 94.89,270.29 95.70,277.77 96.51,271.73 97.33,274.82 98.14,278.56 98.95,276.30 99.76,281.48 100.58,278.14 101.39,280.56 102.20,283.60 103.02,280.83 103.83,287.34 104.64,282.15 105.45,284.66 106.27,286.75 107.08,284.69 107.89,291.04 108.70,286.47 109.52,288.53 110.33,292.04 111.14,289.22 111.96,294.29 112.77,288.46 113.58,291.66 114.39,293.28 115.21,291.51 116.02,297.80 116.83,292.78 117.65,295.31 118.46,298.34 119.27,294.26 120.08,300.89 120.90,294.56 121.71,297.24 122.52,299.72 123.34,297.19 124.15,303.10 124.96,297.74 125.77,299.54 126.59,303.83 127.40,299.54 128.21,305.86 129.03,298.17 129.84,302.33 130.65,303.93 131.46,301.48 132.28,307.89 133.09,302.19 133.90,303.74 134.71,308.20 135.53,302.51 136.34,309.59 137.15,303.66 137.97,305.81 138.78,308.19 139.59,306.07 140.40,310.65 141.22,306.04 142.03,306.98 142.84,311.40 143.66,307.45 144.47,312.64 145.28,307.27 146.09,308.98 146.91,311.53 147.72,309.10 148.53,314.37 149.35,308.85 150.16,311.83 150.97,314.37 151.78,310.98 152.60,315.74 153.41,310.08 154.22,311.97 155.04,315.08 155.85,311.67 156.66,317.21 157.47,312.77 158.29,313.32 159.10,316.42 159.91,312.70 160.72,319.31 161.54,312.83 162.35,314.75 163.16,316.89 163.98,314.21 164.79,320.27 165.60,314.47 166.41,316.18 167.23,319.30 168.04,315.39 168.85,321.90 169.67,315.03 170.48,317.26 171.29,318.86 172.10,316.53 172.92,322.37 173.73,317.00 174.54,317.56 175.36,322.46 176.17,317.37 176.98,323.83 177.79,316.23 178.61,319.38 179.42,321.69 180.23,318.90 181.05,324.39 181.86,319.32 182.67,320.09 183.48,323.43 184.30,319.63 185.11,326.72 185.92,318.79 186.73,321.50 187.55,323.41 188.36,321.64 189.17,327.48 189.99,320.77 190.80,321.67 191.61,325.01 192.42,321.95 193.24,327.42 194.05,321.13 194.86,322.09 195.68,324.98 196.49,322.62 197.30,327.45 198.11,322.88 198.93,323.88 199.74,326.50 200.55,322.83 201.37,328.73 202.18,322.32 202.99,324.45 203.80,325.71 204.62,323.96 205.43,329.42 206.24,323.67 207.06,325.26 207.87,328.79 208.68,324.62 209.49,329.47 210.31,323.55 211.12,325.84 211.93,328.09 212.74,324.97 213.56,330.85 214.37,325.74 215.18,327.17 216.00,330.53 216.81,325.14 217.62,331.57 218.43,325.74 219.25,326.56 220.06,328.99 220.87,326.44 221.69,332.43 222.50,327.29 223.31,327.70 224.12,331.09 224.94,328.11 225.75,333.18 226.56,327.33 227.38,328.85 228.19,330.88 229.00,327.96 229.81,332.93 230.63,328.00 231.44,329.97 232.25,333.29 233.07,328.10 233.88,334.99 234.69,327.26 235.50,330.23 236.32,331.28 237.13,328.76 237.94,334.20 238.75,328.95 239.57,330.63 240.38,333.81 241.19,329.05 242.01,335.87 242.82,328.40 243.63,330.91 244.44,332.83 245.26,329.95 246.07,335.90 246.88,330.39 247.70,331.97 248.51,334.82 249.32,329.83 250.13,337.04 250.95,329.97 251.76,331.35 252.57,333.67 253.39,330.47 254.20,336.75 255.01,330.73 255.82,331.63 256.64,336.15 257.45,331.64 258.26,336.89 259.08,331.06 259.89,332.32 260.70,334.83 261.51,331.10 262.33,336.85 263.14,332.29 263.95,333.00 264.76,336.93 265.58,332.07 266.39,338.20 267.20,331.58 268.02,333.46 268.83,335.49 269.64,332.51 270.45,337.78 271.27,333.95 272.08,334.84 272.89,337.47 273.71,333.19 274.52,338.35 275.33,331.33 276.14,334.01 276.96,336.23 277.77,333.74 278.58,339.01 279.40,333.43 280.21,333.98 281.02,338.27 281.83,333.73 282.65,339.13 283.46,333.07 284.27,333.66 285.09,336.70 285.90,333.82 286.71,339.71 287.52,334.72 288.34,334.62 289.15,339.05 289.96,334.53 290.77,340.46 291.59,333.43 292.40,335.57 293.21,338.07 294.03,334.90 294.84,339.74 295.65,334.93 296.46,334.99 297.28,338.64 298.09,335.33 298.90,340.79 299.72,333.94 300.53,336.01 301.34,337.80 302.15,335.55 302.97,341.07 303.78,335.19 304.59,335.93 305.41,339.58 306.22,335.35 307.03,341.18 307.84,334.59 308.66,336.53 309.47,338.87 310.28,335.68 311.10,341.18 311.91,336.18 312.72,337.09 313.53,341.31 314.35,335.58 315.16,342.29 315.97,335.18 316.78,337.36 317.60,338.95 318.41,336.53 319.22,342.12 320.04,337.10 320.85,338.42 321.66,341.53 322.47,336.91 323.29,343.26 324.10,335.27 324.91,337.60 325.73,340.49 326.54,337.34 327.35,342.45 328.16,336.85 328.98,338.69 329.79,341.66 330.60,337.54 331.42,342.78 332.23,336.60 333.04,337.67 333.85,340.89 334.67,337.79 335.48,343.14 336.29,337.18 337.11,337.94 337.92,342.18 338.73,337.35 339.54,342.79 340.36,336.29 341.17,339.21 341.98,341.46 342.79,338.83 343.61,342.93 344.42,338.55 345.23,339.86 346.05,342.73 346.86,337.66 347.67,343.76 348.48,337.61 349.30,338.76 350.11,341.16 350.92,338.19 351.74,344.94 352.55,337.74 353.36,339.66 354.17,343.47 354.99,338.98 355.80,343.80 356.61,337.84 357.43,338.82 358.24,342.41 359.05,337.96 359.86,344.17 360.68,338.75 361.49,340.39 362.30,343.69 363.12,338.65 363.93,343.83 364.74,338.15 365.55,339.69 366.37,343.13 367.18,339.15 367.99,345.12 368.80,339.15 369.62,341.14 370.43,343.40 371.24,339.41 372.06,345.34 372.87,337.62 373.68,340.52 374.49,343.10 375.31,338.95 376.12,345.42 376.93,339.54 377.75,340.74 378.56,344.40 379.37,339.41 380.18,344.79 381.00,339.01 381.81,340.58 382.62,342.49 383.44,339.48 384.25,344.82 385.06,340.38 385.87,341.15 386.69,344.82 387.50,339.85 388.31,346.68 389.13,339.56 389.94,340.72 390.75,343.52 391.56,340.50 392.38,345.59 393.19,339.78 394.00,341.41 394.81,344.66 395.63,339.84 396.44,346.62 397.25,339.83 398.07,341.55 398.88,344.54 399.69,340.02 400.50,345.74 401.32,340.76 402.13,342.07 402.94,345.12 403.76,340.62 404.57,346.33 405.38,338.80 406.19,341.36 407.01,344.50 407.82,340.91 408.63,346.00 409.45,341.26 410.26,342.63 411.07,345.40 411.88,341.93 412.70,346.59 413.51,339.51 414.32,342.33 415.14,344.97 415.95,340.36 416.76,346.53 417.57,341.52 418.39,341.90 419.20,345.50 420.01,341.36 420.82,347.06 421.64,340.19 422.45,341.88 423.26,345.03 424.08,341.85 424.89,346.76 425.70,342.05 426.51,342.77 427.33,346.66 428.14,340.86 428.95,346.50 429.77,340.53 430.58,342.55 431.39,345.14 432.20,342.54 433.02,347.57 433.83,342.19 434.64,343.45 435.46,346.19 436.27,342.68 437.08,347.03 437.89,341.37 438.71,342.58 439.52,345.33 440.33,341.74 441.15,347.92 441.96,342.82 442.77,343.54 443.58,347.04 444.40,341.43 445.21,348.08 446.02,341.44 446.83,343.39 447.65,346.35 448.46,342.40 449.27,347.84 450.09,342.96 450.90,342.60 451.71,346.66 452.52,342.31 453.34,348.35 454.15,341.21 454.96,343.05 455.78,345.94 456.59,342.51 457.40,348.06 458.21,342.47 459.03,343.83 459.84,347.01 460.65,342.84 461.47,348.49 462.28,342.27 463.09,343.03 463.90,345.90 464.72,343.28 465.53,348.18 466.34,343.53 467.16,343.71 467.97,348.03 468.78,342.82 469.59,348.86 470.41,342.47 471.22,344.33 472.03,346.85 472.84,343.24 473.66,348.37 474.47,343.28 475.28,343.57 476.10,346.63 476.91,343.36 477.72,348.49 478.53,342.84 479.35,343.68 480.16,346.00 480.97,343.09 481.79,348.34 482.60,343.28 483.41,344.54 484.22,348.13 485.04,344.07 485.85,350.06 486.66,343.05 487.48,343.95 488.29,346.98 489.10,343.07 489.91,350.38 490.73,343.42 491.54,345.18 492.35,348.33 493.17,344.10 493.98,349.92 494.79,343.18 495.60,345.05 496.42,347.04 497.23,343.96 498.04,349.15 498.85,344.40 499.67,345.31 500.48,348.95 501.29,343.24 502.11,349.33 502.92,343.69 503.73,344.91 504.54,347.03 505.36,344.01 506.17,349.67 506.98,342.64 507.80,345.34 508.61,348.36 509.42,343.31 510.23,350.10 511.05,344.06 511.86,344.91 512.67,348.11 513.49,344.23 514.30,349.10 515.11,344.53 515.92,345.09 516.74,349.37 517.55,345.02 518.36,350.35 519.18,342.31 519.99,345.33 520.80,347.75 521.61,344.97 522.43,349.38 523.24,344.94 524.05,345.30 524.86,349.50 525.68,344.61 526.49,350.70 527.30,344.12 528.12,345.27 528.93,348.03 529.74,344.64 530.55,349.79 531.37,344.85 532.18,345.79 532.99,349.50 533.81,344.07 534.62,350.67 535.43,344.00 536.24,345.56 537.06,347.64 537.87,345.62 538.68,350.15 539.50,344.42 540.31,346.29 541.12,349.08 541.93,345.28 542.75,350.85 543.56,344.23 544.37,346.40 545.19,348.98 546.00,344.71 546.81,351.05 547.62,345.67 548.44,346.13 549.25,349.40 550.06,344.69 550.87,351.09 551.69,344.63 552.50,346.06 553.31,347.81 554.13,345.83 554.94,351.10 555.75,345.06 556.56,346.07 557.38,349.93 558.19,344.76 559.00,350.68 559.82,343.93 560.63,345.27 561.44,348.55 562.25,345.18 563.07,350.61 563.88,344.98 564.69,345.71 565.51,350.23 566.32,345.63 567.13,351.44 567.94,344.48 568.76,347.06 569.57,348.64 570.38,344.92 571.20,351.20 572.01,346.35 572.82,347.08 573.63,350.38 574.45,346.15 575.26,351.56 576.07,344.22 576.88,347.55 577.70,348.24 578.51,346.07 579.32,351.21 580.14,346.71 580.95,347.10 581.76,350.61 582.57,345.54 583.39,351.77 584.20,345.39 585.01,346.00 585.83,349.49 586.64,345.53 587.45,352.04 588.26,345.73 589.08,347.68 589.89,350.73 590.70,345.53 591.52,351.74 592.33,345.41 593.14,347.10 593.95,349.28 594.77,346.26 595.58,351.31 596.39,346.81 597.21,347.07 598.02,351.22 598.83,345.46 599.64,351.63 600.46,345.14 601.27,347.24 602.08,349.65 602.89,346.25 603.71,352.46 604.52,345.76 605.33,346.97 606.15,350.41 606.96,346.51 607.77,352.25 608.58,345.52 609.40,346.36 610.21,349.35 611.02,346.77 611.84,352.78 612.65,346.53 613.46,347.40 614.27,351.01 615.09,345.92 615.90,352.38 616.71,344.86 617.53,347.16 618.34,349.95 619.15,346.19 619.96,351.88 620.78,347.21 621.59,347.72 622.40,351.62 623.22,346.64 624.03,351.91 624.84,345.28 625.65,347.45 626.47,349.76 627.28,346.45 628.09,352.31 628.90,347.60 629.72,347.58 630.53,351.20 631.34,346.04 632.16,351.91 632.97,346.55 633.78,347.52 634.59,349.86 635.41,347.05 636.22,351.94 637.03,347.02 637.85,348.25 638.66,351.66 639.47,347.66 640.28,351.90 641.10,346.53 641.91,347.46 642.72,350.09 643.54,346.71 644.35,352.63 645.16,347.11 645.97,347.59 646.79,351.47 647.60,347.25 648.41,352.00 649.23,345.85 650.04,347.73 650.85,350.93 651.66,347.20 652.48,352.46 653.29,348.20 654.10,348.53 654.91,352.29 655.73,346.89 656.54,352.53 657.35,346.49 658.17,347.76 658.98,351.13 659.79,346.91 660.60,352.18 661.42,347.78 662.23,348.20 663.04,351.73 663.86,347.35 664.67,352.82 665.48,346.24 666.29,348.32 667.11,350.64 667.92,347.11 668.73,353.12 669.55,347.20 670.36,348.74 671.17,352.18 671.98,347.38 672.80,353.03 673.61,347.50 674.42,348.29 675.24,350.65 676.05,347.21 676.86,353.03 677.67,347.73 678.49,348.13 679.30,351.25 680.11,347.26 680.92,352.77 681.74,346.77 682.55,348.43 683.36,350.70 684.18,347.54 684.99,353.08 685.80,347.81 686.61,348.42 687.43,351.81 688.24,348.01 689.05,353.89 689.87,346.35 690.68,348.24 691.49,350.99 692.30,347.57 693.12,353.19 693.93,348.52 694.74,349.30 695.56,351.84 696.37,346.68 697.18,353.26 697.99,347.59 698.81,348.30 699.62,350.41 700.43,347.61 701.25,353.30 702.06,347.95 702.87,349.19 703.68,353.28 704.50,347.92 705.31,353.81 706.12,347.29 706.93,349.01 707.75,351.79 708.56,347.88 709.37,353.76 710.19,348.26 711.00,349.17 711.81,353.48 712.62,348.12 713.44,352.88 714.25,347.15 715.06,348.64 715.88,350.93 716.69,348.25 717.50,354.38 718.31,348.23 719.13,349.09 719.94,351.77 720.75,349.29 721.57,354.42 722.38,347.57 723.19,348.90 724.00,351.71 724.82,347.97 725.63,354.02 726.44,348.05 727.26,349.10 728.07,352.88 728.88,347.78 729.69,353.07 730.51,347.48 731.32,348.30 732.13,351.28 732.94,348.85 733.76,353.24 734.57,348.85 735.38,348.69 736.20,353.84 737.01,347.78 737.82,354.30 738.63,347.13 739.45,349.63 740.26,351.67 741.07,347.74 741.89,354.47 742.70,348.91 743.51,349.79 744.32,352.94 745.14,348.48 745.95,353.88 746.76,347.19 747.58,348.29 748.39,351.67 749.20,348.52 750.01,354.63 750.83,348.92 751.64,349.40 752.45,353.46 753.27,348.93 754.08,354.09 754.89,347.98 755.70,349.78 756.52,351.30 757.33,348.19 758.14,353.52 758.95,349.19 759.77,349.24 760.58,353.01 761.39,348.42 762.21,353.67 763.02,347.83 763.83,348.97 764.64,352.56 765.46,348.30 766.27,353.45 767.08,349.18 767.90,350.00 768.71,353.73 769.52,348.66 770.33,355.24 771.15,347.91 771.96,349.02 772.77,352.10 773.59,348.47 774.40,353.78 775.21,349.39 776.02,349.79 776.84,353.26 777.65,348.74 778.46,354.60 779.28,347.90 780.09,349.73 780.90,352.76 781.71,349.28 782.53,353.83 783.34,349.34 784.15,350.15 784.96,353.11 785.78,348.47 786.59,354.52 787.40,347.89 788.22,349.52 789.03,351.30 789.84,349.62 790.65,354.88 791.47,349.55 792.28,349.85 793.09,354.01 793.91,349.17 794.72,355.24 795.53,348.46 796.34,350.28 797.16,351.54 797.97,349.04 798.78,353.99 799.60,349.81 800.41,350.02 801.22,353.46 802.03,348.97 802.85,354.14 803.66,347.85 804.47,350.47 805.29,352.32 806.10,349.45 806.91,355.28 807.72,350.11 808.54,350.72 809.35,354.39 810.16,348.69 810.97,354.66 811.79,348.68 812.60,349.90 813.41,352.14 814.23,348.85 815.04,354.73 815.85,350.18 816.66,350.30 817.48,354.38 818.29,349.78 819.10,354.69 819.92,348.66 820.73,349.40 821.54,351.91 822.35,348.77 823.17,354.13 823.98,349.20 824.79,350.25 825.61,353.10 826.42,348.54 827.23,354.44 828.04,347.65 828.86,350.30 829.67,352.89 830.48,349.39 831.30,355.61 832.11,350.05 832.92,350.95 833.73,353.62 834.55,349.02 835.36,354.63 836.17,348.61 836.98,350.11 837.80,352.64 838.61,349.28 839.42,355.44 840.24,349.65 841.05,350.42 841.86,354.14 842.67,350.24 843.49,354.59 844.30,348.07 845.11,349.32 845.93,352.05 846.74,349.48 847.55,355.43 848.36,349.67 849.18,350.57 849.99,353.73 850.80,348.52 851.62,355.71 852.43,348.54 853.24,350.38 854.05,353.82 854.87,349.43 855.68,355.75 856.49,350.56 857.31,351.01 858.12,354.97 858.93,349.71 859.74,354.65 860.56,349.47 861.37,350.42 862.18,353.00 862.99,349.79 863.81,355.11 864.62,349.67 865.43,351.37 866.25,354.89 867.06,350.35 867.87,356.00 868.68,349.75 869.50,350.69 870.31,352.87 871.12,350.62 871.94,355.72 872.75,350.08 873.56,351.66 874.37,355.26 875.19,350.18 876.00,355.20" stroke="#2563eb" stroke-width="2" fill="none"/>
  <polyline points="64.00,46.20 64.81,70.92 65.63,103.90 66.44,125.50 67.25,139.21 68.06,151.51 68.88,159.20 69.69,167.57 70.50,175.67 71.32,181.88 72.13,191.35 72.94,194.40 73.75,199.75 74.57,203.76 75.38,207.31 76.19,212.73 77.01,216.16 77.82,220.86 78.63,223.85 79.44,225.87 80.26,231.89 81.07,233.35 81.88,236.10 82.69,238.26 83.51,239.32 84.32,243.56 85.13,244.52 85.95,245.96 86.76,248.64 87.57,249.12 88.38,254.45 89.20,255.08 90.01,256.01 90.82,257.63 91.64,258.17 92.45,260.67 93.26,261.16 94.07,261.89 94.89,263.68 95.70,263.27 96.51,268.77 97.33,268.44 98.14,268.72 98.95,269.78 99.76,269.92 100.58,271.61 101.39,272.04 102.20,272.85 103.02,274.23 103.83,273.24 104.64,278.70 105.45,277.40 106.27,278.61 107.08,278.90 107.89,277.77 108.70,279.82 109.52,280.42 110.33,280.61 111.14,281.67 111.96,280.51 112.77,285.75 113.58,284.61 114.39,285.22 115.21,285.71 116.02,285.07 116.83,285.60 117.65,286.93 118.46,287.57 119.27,287.50 120.08,287.00 120.90,291.11 121.71,290.40 122.52,289.22 123.34,291.17 124.15,289.17 124.96,290.52 125.77,290.85 126.59,291.17 127.40,292.27 128.21,291.17 129.03,295.87 129.84,294.83 130.65,295.50 131.46,295.09 132.28,293.98 133.09,295.95 133.90,295.44 134.71,295.74 135.53,295.75 136.34,295.06 137.15,299.92 137.97,298.62 138.78,298.69 139.59,299.50 140.40,298.59 141.22,298.81 142.03,299.24 142.84,299.24 143.66,299.87 144.47,298.82 145.28,304.03 146.09,302.04 146.91,301.60 147.72,301.71 148.53,301.64 149.35,302.84 150.16,302.94 150.97,302.63 151.78,302.87 152.60,302.67 153.41,306.11 154.22,304.33 155.04,304.50 155.85,305.14 156.66,304.32 157.47,305.40 158.29,305.00 159.10,305.15 159.91,305.43 160.72,303.79 161.54,308.38 162.35,305.73 163.16,306.84 163.98,306.86 164.79,305.69 165.60,307.99 166.41,307.88 167.23,307.38 168.04,308.02 168.85,306.43 169.67,309.72 170.48,309.06 171.29,309.22 172.10,309.41 172.92,308.20 173.73,310.32 174.54,309.65 175.36,309.86 176.17,309.70 176.98,308.86 177.79,313.24 178.61,311.53 179.42,311.73 180.23,312.11 181.05,310.70 181.86,312.02 182.67,312.20 183.48,311.71 184.30,311.93 185.11,310.51 185.92,314.76 186.73,313.02 187.55,312.39 188.36,313.25 189.17,312.10 189.99,313.48 190.80,314.05 191.61,313.36 192.42,312.90 193.24,312.62 194.05,315.94 194.86,314.43 195.68,315.08 196.49,314.87 197.30,313.24 198.11,315.40 198.93,314.06 199.74,314.83 200.55,314.96 201.37,314.08 202.18,318.91 202.99,316.72 203.80,316.98 204.62,316.94 205.43,315.82 206.24,317.88 207.06,316.44 207.87,316.40 208.68,317.00 209.49,316.07 210.31,320.70 211.12,319.51 211.93,318.66 212.74,319.08 213.56,317.76 214.37,319.34 215.18,318.52 216.00,318.87 216.81,319.67 217.62,317.55 218.43,322.15 219.25,321.09 220.06,319.65 220.87,320.67 221.69,319.18 222.50,320.34 223.31,319.81 224.12,320.12 224.94,320.62 225.75,318.89 226.56,322.88 227.38,321.87 228.19,321.62 229.00,321.32 229.81,320.46 230.63,321.88 231.44,321.21 232.25,320.19 233.07,320.99 233.88,319.78 234.69,324.11 235.50,322.33 236.32,321.80 237.13,322.81 237.94,321.22 238.75,321.09 239.57,321.68 240.38,321.22 241.19,321.93 242.01,320.33 242.82,324.12 243.63,323.62 244.44,322.96 245.26,322.99 246.07,321.97 246.88,323.03 247.70,322.71 248.51,322.16 249.32,322.94 250.13,321.95 250.95,324.66 251.76,322.92 252.57,323.65 253.39,323.24 254.20,322.63 255.01,323.65 255.82,322.74 256.64,323.09 257.45,323.38 258.26,322.72 259.08,326.42 259.89,325.12 260.70,324.56 261.51,323.95 262.33,323.25 263.14,324.31 263.95,323.79 264.76,323.88 265.58,324.39 266.39,323.24 267.20,326.40 268.02,325.70 268.83,324.45 269.64,325.39 270.45,324.11 271.27,325.22 272.08,325.26 272.89,324.97 273.71,325.31 274.52,324.30 275.33,328.26 276.14,327.40 276.96,326.67 277.77,326.48 278.58,326.10 279.40,326.35 280.21,325.34 281.02,325.66 281.83,325.48 282.65,324.50 283.46,329.97 284.27,327.95 285.09,327.47 285.90,327.28 286.71,326.81 287.52,327.25 288.34,326.24 289.15,326.09 289.96,326.68 290.77,325.02 291.59,328.94 292.40,327.79 293.21,327.45 294.03,327.27 294.84,326.66 295.65,327.71 296.46,327.14 297.28,326.70 298.09,327.40 298.90,326.71 299.72,329.79 300.53,328.92 301.34,327.93 302.15,327.85 302.97,327.10 303.78,328.77 304.59,328.60 305.41,328.27 306.22,327.60 307.03,327.34 307.84,330.21 308.66,328.71 309.47,328.63 310.28,328.99 311.10,327.58 311.91,328.51 312.72,327.87 313.53,327.83 314.35,327.37 315.16,327.11 315.97,331.06 316.78,329.50 317.60,328.37 318.41,328.68 319.22,328.18 320.04,328.51 320.85,329.24 321.66,328.44 322.47,328.62 323.29,328.42 324.10,331.69 324.91,329.63 325.73,329.47 326.54,329.01 327.35,328.94 328.16,329.72 328.98,329.50 329.79,329.03 330.60,329.28 331.42,327.90 332.23,331.99 333.04,331.29 333.85,330.77 334.67,330.52 335.48,329.39 336.29,330.55 337.11,329.08 337.92,329.06 338.73,329.45 339.54,329.04 340.36,332.72 341.17,331.01 341.98,330.25 342.79,330.67 343.61,329.46 344.42,330.42 345.23,330.05 346.05,330.11 346.86,330.27 347.67,329.79 348.48,332.68 349.30,331.78 350.11,331.22 350.92,331.31 351.74,330.16 352.55,330.61 353.36,331.39 354.17,329.95 354.99,330.75 355.80,329.66 356.61,332.37 357.43,331.39 358.24,331.63 359.05,332.28 359.86,331.16 360.68,331.35 361.49,331.18 362.30,331.08 363.12,331.06 363.93,329.89 364.74,333.91 365.55,332.42 366.37,332.54 367.18,332.45 367.99,331.33 368.80,331.94 369.62,331.30 370.43,330.81 371.24,332.12 372.06,330.74 372.87,334.82 373.68,333.18 374.49,332.75 375.31,332.52 376.12,330.87 376.93,332.58 377.75,332.08 378.56,331.59 379.37,332.08 380.18,331.18 381.00,335.99 381.81,333.80 382.62,332.83 383.44,333.31 384.25,332.19 385.06,332.61 385.87,332.05 386.69,332.01 387.50,332.71 388.31,331.53 389.13,335.22 389.94,334.24 390.75,333.30 391.56,333.03 392.38,332.43 393.19,332.98 394.00,332.22 394.81,332.18 395.63,332.56 396.44,331.58 397.25,336.20 398.07,334.48 398.88,333.84 399.69,333.79 400.50,332.83 401.32,333.75 402.13,333.04 402.94,333.71 403.76,333.40 404.57,333.15 405.38,335.34 406.19,334.94 407.01,333.93 407.82,334.08 408.63,332.61 409.45,334.08 410.26,333.55 411.07,333.01 411.88,333.48 412.70,332.38 413.51,335.71 414.32,334.30 415.14,334.03 415.95,334.67 416.76,333.63 417.57,334.15 418.39,334.53 419.20,333.42 420.01,334.20 420.82,333.26 421.64,337.14 422.45,335.87 423.26,335.33 424.08,334.65 424.89,334.15 425.70,334.20 426.51,333.19 427.33,333.44 428.14,333.51 428.95,332.98 429.77,336.07 430.58,334.11 431.39,334.43 432.20,334.57 433.02,334.00 433.83,334.34 434.64,334.37 435.46,333.98 436.27,334.13 437.08,332.88 437.89,336.95 438.71,335.77 439.52,335.53 440.33,335.93 441.15,334.98 441.96,335.18 442.77,335.31 443.58,334.41 444.40,335.33 445.21,334.26 446.02,338.60 446.83,336.65 447.65,335.76 448.46,335.62 449.27,335.02 450.09,336.03 450.90,334.39 451.71,335.00 452.52,335.37 453.34,334.56 454.15,338.44 454.96,336.50 455.78,335.76 456.59,335.72 457.40,335.14 458.21,335.87 459.03,334.64 459.84,335.23 460.65,336.00 461.47,334.56 462.28,338.04 463.09,336.70 463.90,336.04 464.72,336.67 465.53,335.10 466.34,335.37 467.16,334.66 467.97,334.72 468.78,335.26 469.59,334.16 470.41,338.23 471.22,336.75 472.03,336.46 472.84,335.85 473.66,335.36 474.47,336.07 475.28,335.36 476.10,335.29 476.91,335.78 477.72,335.25 478.53,338.17 479.35,336.96 480.16,336.80 480.97,336.27 481.79,335.84 482.60,336.78 483.41,335.91 484.22,335.64 485.04,336.01 485.85,334.96 486.66,339.12 487.48,337.16 488.29,336.91 489.10,336.92 489.91,336.30 490.73,336.60 491.54,336.15 492.35,336.05 493.17,336.25 493.98,335.58 494.79,339.56 495.60,338.18 496.42,337.29 497.23,337.24 498.04,336.32 498.85,337.52 499.67,336.53 500.48,336.34 501.29,337.01 502.11,336.23 502.92,339.35 503.73,337.91 504.54,337.91 505.36,337.50 506.17,336.91 506.98,337.70 507.80,336.62 508.61,336.50 509.42,336.74 510.23,335.49 511.05,339.07 511.86,337.67 512.67,337.27 513.49,337.12 514.30,336.30 515.11,337.36 515.92,336.58 516.74,336.58 517.55,337.21 518.36,335.51 519.18,338.98 519.99,338.28 520.80,337.62 521.61,337.69 522.43,336.75 523.24,338.38 524.05,337.87 524.86,337.73 525.68,337.62 526.49,337.03 527.30,339.98 528.12,337.90 528.93,338.05 529.74,338.14 530.55,336.49 531.37,337.18 532.18,337.19 532.99,336.81 533.81,337.49 534.62,336.15 535.43,340.79 536.24,339.16 537.06,337.68 537.87,338.41 538.68,336.20 539.50,338.54 540.31,337.92 541.12,337.74 541.93,338.43 542.75,337.26 543.56,340.10 544.37,338.92 545.19,338.82 546.00,338.47 546.81,337.35 547.62,338.01 548.44,338.00 549.25,337.10 550.06,338.17 550.87,336.72 551.69,340.19 552.50,339.38 553.31,338.53 554.13,338.65 554.94,337.80 555.75,337.38 556.56,338.04 557.38,338.06 558.19,338.73 559.00,337.20 559.82,341.33 560.63,339.90 561.44,339.07 562.25,338.64 563.07,337.56 563.88,338.01 564.69,338.70 565.51,338.33 566.32,338.47 567.13,337.81 567.94,340.92 568.76,339.43 569.57,338.89 570.38,339.24 571.20,338.69 572.01,338.97 572.82,338.15 573.63,337.92 574.45,338.88 575.26,337.54 576.07,340.80 576.88,339.48 577.70,339.23 578.51,338.66 579.32,337.91 580.14,338.33 580.95,337.83 581.76,336.94 582.57,337.61 583.39,337.41 584.20,340.48 585.01,339.44 585.83,338.80 586.64,338.97 587.45,338.38 588.26,339.12 589.08,338.48 589.89,338.40 590.70,338.28 591.52,338.03 592.33,341.59 593.14,339.97 593.95,339.47 594.77,339.34 595.58,338.42 596.39,339.09 597.21,337.86 598.02,338.39 598.83,338.53 599.64,337.40 600.46,341.17 601.27,339.88 602.08,339.15 602.89,339.09 603.71,338.80 604.52,339.43 605.33,338.04 606.15,338.18 606.96,338.12 607.77,337.56 608.58,340.86 609.40,339.40 610.21,339.38 611.02,339.47 611.84,338.62 612.65,338.84 613.46,338.62 614.27,338.54 615.09,339.05 615.90,337.81 616.71,342.08 617.53,341.33 618.34,340.36 619.15,340.14 619.96,339.23 620.78,339.71 621.59,339.63 622.40,339.26 623.22,339.74 624.03,338.40 624.84,341.97 625.65,340.50 626.47,340.25 627.28,340.35 628.09,338.49 628.90,340.31 629.72,339.66 630.53,339.45 631.34,339.18 632.16,338.54 632.97,341.78 633.78,340.58 634.59,340.09 635.41,339.55 636.22,339.17 637.03,339.48 637.85,338.96 638.66,338.86 639.47,339.61 640.28,339.11 641.10,341.80 641.91,340.45 642.72,340.45 643.54,340.23 644.35,339.36 645.16,340.06 645.97,339.36 646.79,339.39 647.60,338.89 648.41,338.71 649.23,342.39 650.04,341.29 650.85,340.46 651.66,340.89 652.48,339.72 653.29,340.77 654.10,340.04 654.91,339.09 655.73,339.03 656.54,338.52 657.35,341.71 658.17,340.01 658.98,340.50 659.79,340.22 660.60,339.65 661.42,340.28 662.23,340.35 663.04,339.68 663.86,339.79 664.67,339.21 665.48,342.40 666.29,341.09 667.11,341.21 667.92,341.15 668.73,340.29 669.55,340.79 670.36,340.11 671.17,339.45 671.98,339.45 672.80,339.03 673.61,342.52 674.42,341.63 675.24,340.89 676.05,340.86 676.86,339.29 677.67,340.30 678.49,340.10 679.30,340.32 680.11,340.65 680.92,339.13 681.74,342.57 682.55,341.56 683.36,341.58 684.18,341.06 684.99,340.23 685.80,340.32 686.61,340.39 687.43,340.43 688.24,340.55 689.05,340.16 689.87,343.01 690.68,341.47 691.49,341.64 692.30,341.26 693.12,340.06 693.93,340.53 694.74,339.43 695.56,339.75 696.37,340.77 697.18,340.26 697.99,343.00 698.81,342.27 699.62,341.63 700.43,341.49 701.25,340.42 702.06,340.70 702.87,340.40 703.68,340.88 704.50,341.13 705.31,339.83 706.12,342.86 706.93,342.07 707.75,341.14 708.56,341.78 709.37,340.43 710.19,341.18 711.00,340.68 711.81,340.78 712.62,341.05 713.44,339.72 714.25,343.62 715.06,341.85 715.88,340.75 716.69,341.51 717.50,340.79 718.31,341.24 719.13,341.03 719.94,341.21 720.75,341.21 721.57,339.77 722.38,343.45 723.19,342.42 724.00,341.28 724.82,341.83 725.63,340.49 726.44,341.35 727.26,341.13 728.07,341.38 728.88,341.20 729.69,339.93 730.51,343.90 731.32,342.74 732.13,342.20 732.94,341.55 733.76,340.38 734.57,340.75 735.38,340.90 736.20,340.78 737.01,341.11 737.82,339.97 738.63,343.64 739.45,342.29 740.26,342.00 741.07,341.80 741.89,340.87 742.70,341.23 743.51,340.70 744.32,341.19 745.14,341.02 745.95,340.42 746.76,343.21 747.58,341.86 748.39,341.32 749.20,341.49 750.01,340.91 750.83,340.84 751.64,339.94 752.45,340.60 753.27,340.89 754.08,340.79 754.89,343.58 755.70,342.43 756.52,342.18 757.33,342.03 758.14,341.88 758.95,342.44 759.77,341.23 760.58,340.38 761.39,340.80 762.21,339.86 763.02,344.17 763.83,342.05 764.64,342.20 765.46,342.59 766.27,341.02 767.08,341.68 767.90,341.08 768.71,341.05 769.52,341.14 770.33,340.32 771.15,343.65 771.96,342.80 772.77,342.47 773.59,342.68 774.40,342.40 775.21,342.12 776.02,341.55 776.84,341.26 777.65,341.47 778.46,341.06 779.28,344.56 780.09,342.80 780.90,342.52 781.71,342.56 782.53,341.20 783.34,342.02 784.15,341.43 784.96,340.80 785.78,341.88 786.59,340.75 787.40,344.32 788.22,342.83 789.03,342.98 789.84,342.05 790.65,341.58 791.47,341.36 792.28,341.32 793.09,340.96 793.91,341.29 794.72,340.94 795.53,343.97 796.34,342.50 797.16,342.08 797.97,341.93 798.78,341.07 799.60,341.85 800.41,342.02 801.22,341.98 802.03,342.29 802.85,341.00 803.66,344.22 804.47,343.25 805.29,342.83 806.10,342.39 806.91,341.29 807.72,342.17 808.54,341.23 809.35,340.97 810.16,341.88 810.97,340.63 811.79,343.68 812.60,342.81 813.41,342.45 814.23,342.12 815.04,341.21 815.85,342.07 816.66,341.65 817.48,341.33 818.29,341.08 819.10,339.93 819.92,343.43 820.73,342.34 821.54,341.27 822.35,341.43 823.17,341.11 823.98,341.97 824.79,341.85 825.61,341.11 826.42,341.43 827.23,340.40 828.04,344.30 828.86,342.65 829.67,342.66 830.48,342.19 831.30,341.66 832.11,341.57 832.92,341.62 833.73,341.41 834.55,342.07 835.36,341.12 836.17,344.12 836.98,343.19 837.80,342.21 838.61,342.48 839.42,342.11 840.24,342.40 841.05,341.47 841.86,340.98 842.67,341.59 843.49,341.17 844.30,344.96 845.11,343.42 845.93,343.36 846.74,343.20 847.55,342.45 848.36,342.70 849.18,342.37 849.99,341.47 850.80,342.34 851.62,341.58 852.43,345.47 853.24,343.55 854.05,344.39 854.87,343.20 855.68,342.10 856.49,342.79 857.31,342.45 858.12,342.51 858.93,342.14 859.74,340.74 860.56,344.70 861.37,343.95 862.18,343.46 862.99,343.17 863.81,341.92 864.62,342.75 865.43,342.12 866.25,342.24 867.06,342.17 867.87,341.18 868.68,344.51 869.50,343.69 870.31,343.35 871.12,343.08 871.94,342.18 872.75,342.52 873.56,341.95 874.37,341.93 875.19,342.16 876.00,341.29" stroke="#059669" stroke-width="2" fill="none"/>
  <polyline points="64.00,56.11 64.81,83.02 65.63,115.87 66.44,138.42 67.25,152.89 68.06,163.02 68.88,171.28 69.69,179.92 70.50,185.59 71.32,192.29 72.13,198.52 72.94,203.58 73.75,208.46 74.57,213.24 75.38,216.94 76.19,221.20 77.01,225.61 77.82,230.15 78.63,233.34 79.44,235.15 80.26,238.96 81.07,241.53 81.88,244.05 82.69,246.41 83.51,248.34 84.32,251.26 85.13,252.93 85.95,254.94 86.76,256.09 87.57,257.19 88.38,260.41 89.20,261.43 90.01,262.46 90.82,264.31 91.64,265.21 92.45,267.09 93.26,268.78 94.07,268.66 94.89,270.68 95.70,270.30 96.51,272.24 97.33,273.45 98.14,274.48 98.95,275.74 99.76,277.14 100.58,277.99 101.39,278.82 102.20,279.93 103.02,280.53 103.83,280.40 104.64,282.09 105.45,283.40 106.27,283.77 107.08,284.54 107.89,284.67 108.70,285.71 109.52,286.86 110.33,287.13 111.14,287.75 111.96,287.78 112.77,288.81 113.58,289.64 114.39,290.65 115.21,290.39 116.02,289.96 116.83,290.78 117.65,292.24 118.46,293.26 119.27,292.45 120.08,292.91 120.90,293.78 121.71,295.02 122.52,294.43 123.34,295.51 124.15,294.66 124.96,296.17 125.77,296.19 126.59,296.49 127.40,297.08 128.21,297.51 129.03,298.88 129.84,298.44 130.65,299.18 131.46,299.83 132.28,299.05 133.09,300.34 133.90,301.19 134.71,301.12 135.53,301.88 136.34,301.42 137.15,302.55 137.97,302.66 138.78,303.32 139.59,302.81 140.40,302.69 141.22,302.79 142.03,303.61 142.84,304.03 143.66,304.28 144.47,304.09 145.28,305.32 146.09,305.35 146.91,305.27 147.72,306.14 148.53,306.40 149.35,305.97 150.16,307.41 150.97,306.98 151.78,306.87 152.60,307.31 153.41,307.96 154.22,308.98 155.04,308.39 155.85,308.38 156.66,309.46 157.47,308.75 158.29,309.65 159.10,309.50 159.91,309.63 160.72,309.09 161.54,310.52 162.35,309.86 163.16,311.18 163.98,310.08 164.79,310.70 165.60,311.33 166.41,311.49 167.23,311.87 168.04,311.85 168.85,311.60 169.67,312.13 170.48,312.66 171.29,312.54 172.10,312.91 172.92,312.45 173.73,313.38 174.54,312.77 175.36,313.42 176.17,312.46 176.98,312.99 177.79,314.24 178.61,313.87 179.42,314.92 180.23,314.29 181.05,314.54 181.86,314.56 182.67,315.50 183.48,314.98 184.30,314.83 185.11,315.09 185.92,315.17 186.73,316.31 187.55,316.55 188.36,317.14 189.17,316.46 189.99,316.34 190.80,316.99 191.61,316.69 192.42,317.52 193.24,316.92 194.05,317.89 194.86,317.08 195.68,317.24 196.49,318.01 197.30,317.60 198.11,318.05 198.93,318.37 199.74,318.48 200.55,318.62 201.37,318.26 202.18,318.66 202.99,318.85 203.80,318.51 204.62,319.18 205.43,318.46 206.24,319.08 207.06,319.94 207.87,320.77 208.68,319.74 209.49,319.62 210.31,320.23 211.12,319.72 211.93,319.83 212.74,321.13 213.56,320.36 214.37,321.10 215.18,320.47 216.00,321.31 216.81,321.26 217.62,320.04 218.43,322.06 219.25,321.30 220.06,321.47 220.87,322.16 221.69,321.73 222.50,321.68 223.31,321.85 224.12,322.57 224.94,322.86 225.75,321.95 226.56,323.16 227.38,323.08 228.19,322.51 229.00,323.60 229.81,322.95 230.63,323.83 231.44,323.83 232.25,323.50 233.07,323.60 233.88,323.57 234.69,323.89 235.50,323.09 236.32,323.69 237.13,324.24 237.94,323.14 238.75,323.67 239.57,323.87 240.38,323.61 241.19,324.99 242.01,323.91 242.82,325.94 243.63,325.80 244.44,325.46 245.26,325.56 246.07,325.21 246.88,325.46 247.70,326.03 248.51,325.60 249.32,325.37 250.13,325.54 250.95,325.73 251.76,325.82 252.57,327.00 253.39,326.97 254.20,326.46 255.01,326.52 255.82,326.86 256.64,326.70 257.45,327.30 258.26,327.02 259.08,326.21 259.89,326.74 260.70,327.03 261.51,327.09 262.33,326.53 263.14,327.37 263.95,327.39 264.76,327.48 265.58,327.56 266.39,327.30 267.20,327.52 268.02,327.69 268.83,327.25 269.64,327.28 270.45,327.05 271.27,327.68 272.08,327.52 272.89,327.77 273.71,327.91 274.52,328.10 275.33,328.24 276.14,328.30 276.96,328.28 277.77,327.78 278.58,328.34 279.40,328.20 280.21,328.24 281.02,328.68 281.83,328.58 282.65,327.77 283.46,328.25 284.27,328.10 285.09,328.77 285.90,328.37 286.71,328.85 287.52,329.11 288.34,328.44 289.15,328.76 289.96,328.98 290.77,328.09 291.59,329.13 292.40,328.03 293.21,328.62 294.03,328.96 294.84,328.58 295.65,328.98 296.46,329.19 297.28,329.75 298.09,329.73 298.90,329.14 299.72,329.13 300.53,329.37 301.34,329.53 302.15,330.44 302.97,329.82 303.78,330.19 304.59,331.10 305.41,330.50 306.22,330.88 307.03,330.33 307.84,330.94 308.66,330.19 309.47,330.55 310.28,330.45 311.10,330.40 311.91,330.62 312.72,330.29 313.53,330.47 314.35,329.68 315.16,330.00 315.97,331.08 316.78,330.26 317.60,330.16 318.41,330.29 319.22,330.09 320.04,330.82 320.85,331.41 321.66,331.47 322.47,330.71 323.29,330.21 324.10,331.32 324.91,330.38 325.73,331.47 326.54,331.25 327.35,330.58 328.16,330.84 328.98,331.08 329.79,331.50 330.60,331.87 331.42,330.39 332.23,331.72 333.04,331.05 333.85,331.43 334.67,331.16 335.48,331.13 336.29,331.84 337.11,331.35 337.92,331.94 338.73,332.18 339.54,331.99 340.36,332.20 341.17,332.59 341.98,332.17 342.79,332.54 343.61,332.15 344.42,332.08 345.23,332.28 346.05,332.18 346.86,332.46 347.67,331.92 348.48,332.17 349.30,331.98 350.11,332.47 350.92,332.19 351.74,332.53 352.55,332.28 353.36,332.02 354.17,332.25 354.99,332.67 355.80,332.18 356.61,332.49 357.43,332.45 358.24,333.13 359.05,332.78 359.86,332.69 360.68,332.90 361.49,332.86 362.30,332.83 363.12,333.47 363.93,332.78 364.74,333.44 365.55,333.75 366.37,333.44 367.18,333.07 367.99,333.50 368.80,333.68 369.62,333.77 370.43,333.37 371.24,332.84 372.06,332.82 372.87,333.29 373.68,333.01 374.49,332.90 375.31,333.04 376.12,333.41 376.93,332.79 377.75,333.30 378.56,333.18 379.37,333.00 380.18,333.11 381.00,333.65 381.81,333.85 382.62,333.15 383.44,333.48 384.25,333.58 385.06,333.44 385.87,334.35 386.69,333.67 387.50,333.97 388.31,333.38 389.13,334.00 389.94,333.81 390.75,333.96 391.56,333.90 392.38,334.59 393.19,334.48 394.00,334.38 394.81,334.42 395.63,334.14 396.44,334.02 397.25,333.99 398.07,334.50 398.88,334.45 399.69,334.99 400.50,333.99 401.32,334.97 402.13,334.99 402.94,335.07 403.76,334.33 404.57,334.11 405.38,334.95 406.19,334.70 407.01,334.67 407.82,334.65 408.63,334.59 409.45,334.19 410.26,334.57 411.07,334.56 411.88,334.78 412.70,334.87 413.51,334.44 414.32,334.84 415.14,334.36 415.95,334.80 416.76,334.53 417.57,334.69 418.39,335.49 419.20,334.97 420.01,335.01 420.82,335.26 421.64,334.84 422.45,335.33 423.26,334.42 424.08,335.60 424.89,335.18 425.70,335.04 426.51,335.14 427.33,335.54 428.14,335.56 428.95,335.14 429.77,335.47 430.58,335.68 431.39,335.60 432.20,335.81 433.02,335.69 433.83,335.70 434.64,335.35 435.46,335.06 436.27,335.00 437.08,334.93 437.89,335.54 438.71,335.44 439.52,335.57 440.33,335.83 441.15,334.76 441.96,335.58 442.77,335.66 443.58,335.52 444.40,335.67 445.21,335.74 446.02,336.53 446.83,336.41 447.65,335.55 448.46,335.80 449.27,336.03 450.09,336.27 450.90,336.20 451.71,335.83 452.52,335.83 453.34,335.47 454.15,335.53 454.96,336.26 455.78,335.89 456.59,336.02 457.40,335.95 458.21,336.33 459.03,335.84 459.84,336.62 460.65,336.55 461.47,336.28 462.28,336.25 463.09,335.92 463.90,335.68 464.72,336.96 465.53,335.98 466.34,336.11 467.16,336.85 467.97,336.37 468.78,336.50 469.59,336.26 470.41,336.21 471.22,336.25 472.03,336.49 472.84,336.28 473.66,336.53 474.47,336.79 475.28,336.40 476.10,336.62 476.91,336.67 477.72,337.25 478.53,336.81 479.35,337.01 480.16,336.97 480.97,337.74 481.79,336.79 482.60,337.14 483.41,337.54 484.22,337.28 485.04,337.64 485.85,337.65 486.66,337.21 487.48,337.34 488.29,337.61 489.10,337.04 489.91,336.99 490.73,336.69 491.54,337.28 492.35,337.22 493.17,337.21 493.98,337.00 494.79,337.25 495.60,337.34 496.42,337.73 497.23,337.63 498.04,336.93 498.85,337.97 499.67,338.08 500.48,337.52 501.29,337.23 502.11,337.31 502.92,337.48 503.73,337.85 504.54,337.30 505.36,337.42 506.17,337.12 506.98,338.44 507.80,337.38 508.61,337.63 509.42,338.01 510.23,336.98 511.05,338.24 511.86,337.32 512.67,337.65 513.49,337.93 514.30,337.12 515.11,337.41 515.92,338.17 516.74,338.28 517.55,337.98 518.36,337.48 519.18,338.48 519.99,337.71 520.80,337.94 521.61,338.27 522.43,338.15 523.24,338.18 524.05,338.36 524.86,338.17 525.68,337.96 526.49,338.05 527.30,338.21 528.12,338.32 528.93,337.76 529.74,337.95 530.55,337.64 531.37,338.12 532.18,338.09 532.99,337.76 533.81,338.01 534.62,337.96 535.43,337.85 536.24,338.19 537.06,338.16 537.87,338.12 538.68,337.87 539.50,338.58 540.31,338.27 541.12,338.05 541.93,338.63 542.75,338.10 543.56,338.22 544.37,338.61 545.19,337.82 546.00,338.45 546.81,338.05 547.62,337.72 548.44,338.15 549.25,337.80 550.06,338.53 550.87,338.62 551.69,338.67 552.50,338.92 553.31,338.55 554.13,338.88 554.94,338.00 555.75,338.12 556.56,338.40 557.38,338.36 558.19,338.59 559.00,337.99 559.82,339.34 560.63,338.92 561.44,338.86 562.25,338.69 563.07,339.11 563.88,339.17 564.69,339.11 565.51,339.46 566.32,339.33 567.13,338.47 567.94,338.86 568.76,339.01 569.57,338.45 570.38,338.49 571.20,338.88 572.01,339.16 572.82,340.06 573.63,339.40 574.45,339.53 575.26,338.49 576.07,339.33 576.88,338.89 577.70,339.59 578.51,339.33 579.32,339.47 580.14,339.58 580.95,339.53 581.76,339.65 582.57,339.68 583.39,339.45 584.20,339.70 585.01,339.34 585.83,339.06 586.64,339.70 587.45,339.39 588.26,340.11 589.08,339.31 589.89,339.10 590.70,339.88 591.52,340.11 592.33,340.52 593.14,340.55 593.95,340.39 594.77,339.37 595.58,339.06 596.39,339.57 597.21,339.50 598.02,339.29 598.83,339.39 599.64,339.02 600.46,340.37 601.27,339.63 602.08,339.85 602.89,339.06 603.71,338.97 604.52,339.33 605.33,339.91 606.15,339.48 606.96,339.35 607.77,338.95 608.58,339.72 609.40,339.91 610.21,339.04 611.02,339.78 611.84,339.36 612.65,339.06 613.46,339.44 614.27,339.35 615.09,340.29 615.90,339.08 616.71,340.08 617.53,339.69 618.34,339.43 619.15,339.26 619.96,339.21 620.78,339.83 621.59,339.56 622.40,339.25 623.22,339.98 624.03,339.82 624.84,340.22 625.65,340.21 626.47,340.33 627.28,340.86 628.09,340.06 628.90,340.01 629.72,340.02 630.53,340.32 631.34,339.87 632.16,339.55 632.97,339.51 633.78,339.73 634.59,340.47 635.41,339.89 636.22,340.24 637.03,339.94 637.85,339.56 638.66,340.75 639.47,339.97 640.28,340.09 641.10,340.27 641.91,340.60 642.72,340.08 643.54,340.35 644.35,340.02 645.16,339.87 645.97,340.49 646.79,340.88 647.60,340.33 648.41,340.33 649.23,340.36 650.04,340.72 650.85,339.97 651.66,339.94 652.48,339.90 653.29,339.74 654.10,340.17 654.91,340.17 655.73,340.25 656.54,340.27 657.35,340.02 658.17,339.61 658.98,340.41 659.79,339.87 660.60,339.75 661.42,339.85 662.23,340.39 663.04,340.36 663.86,340.51 664.67,340.38 665.48,341.29 666.29,339.59 667.11,340.88 667.92,340.57 668.73,340.30 669.55,341.20 670.36,340.63 671.17,341.03 671.98,340.56 672.80,340.65 673.61,340.91 674.42,340.70 675.24,340.40 676.05,340.65 676.86,339.88 677.67,340.74 678.49,340.56 679.30,340.62 680.11,340.75 680.92,340.28 681.74,340.91 682.55,340.54 683.36,340.96 684.18,340.60 684.99,340.65 685.80,340.69 686.61,341.76 687.43,340.84 688.24,340.85 689.05,341.26 689.87,340.89 690.68,341.19 691.49,341.47 692.30,341.02 693.12,341.13 693.93,341.35 694.74,341.25 695.56,341.51 696.37,341.65 697.18,341.05 697.99,341.56 698.81,340.85 699.62,340.80 700.43,340.87 701.25,340.53 702.06,341.71 702.87,341.01 703.68,341.51 704.50,340.50 705.31,341.20 706.12,341.68 706.93,341.38 707.75,341.07 708.56,341.15 709.37,341.21 710.19,342.03 711.00,341.44 711.81,341.33 712.62,340.79 713.44,340.99 714.25,341.78 715.06,341.13 715.88,341.76 716.69,341.40 717.50,341.64 718.31,341.24 719.13,341.28 719.94,341.66 720.75,341.28 721.57,341.24 722.38,341.53 723.19,341.89 724.00,341.83 724.82,341.40 725.63,341.26 726.44,341.23 727.26,341.68 728.07,340.93 728.88,341.61 729.69,341.16 730.51,341.47 731.32,340.88 732.13,341.09 732.94,341.38 733.76,341.29 734.57,341.15 735.38,341.25 736.20,341.21 737.01,341.20 737.82,341.29 738.63,341.60 739.45,341.40 740.26,341.40 741.07,341.36 741.89,341.43 742.70,341.39 743.51,340.88 744.32,341.68 745.14,341.65 745.95,341.76 746.76,342.23 747.58,341.85 748.39,341.17 749.20,341.54 750.01,341.49 750.83,342.06 751.64,342.12 752.45,342.05 753.27,342.28 754.08,342.06 754.89,342.39 755.70,342.06 756.52,341.67 757.33,341.89 758.14,341.52 758.95,342.36 759.77,342.27 760.58,342.23 761.39,342.16 762.21,341.20 763.02,342.23 763.83,341.46 764.64,341.90 765.46,342.07 766.27,342.05 767.08,341.71 767.90,342.31 768.71,342.24 769.52,341.97 770.33,341.76 771.15,342.41 771.96,341.49 772.77,342.20 773.59,342.22 774.40,342.38 775.21,342.39 776.02,342.12 776.84,342.39 777.65,342.00 778.46,341.53 779.28,342.53 780.09,342.03 780.90,342.02 781.71,342.65 782.53,341.26 783.34,341.94 784.15,341.98 784.96,342.42 785.78,342.78 786.59,341.93 787.40,342.48 788.22,342.26 789.03,341.84 789.84,342.27 790.65,341.89 791.47,341.51 792.28,341.73 793.09,342.22 793.91,341.92 794.72,341.99 795.53,342.50 796.34,342.74 797.16,342.31 797.97,342.00 798.78,341.93 799.60,342.21 800.41,342.46 801.22,342.39 802.03,342.62 802.85,342.21 803.66,342.74 804.47,342.38 805.29,341.82 806.10,342.28 806.91,342.46 807.72,342.57 808.54,342.54 809.35,342.78 810.16,342.84 810.97,342.43 811.79,343.19 812.60,342.37 813.41,342.50 814.23,342.97 815.04,342.24 815.85,342.55 816.66,342.43 817.48,342.63 818.29,343.11 819.10,342.33 819.92,342.49 820.73,342.59 821.54,342.41 822.35,342.96 823.17,342.35 823.98,343.17 824.79,343.06 825.61,342.14 826.42,342.31 827.23,342.03 828.04,342.69 828.86,342.00 829.67,342.32 830.48,342.87 831.30,342.46 832.11,342.63 832.92,342.40 833.73,343.04 834.55,342.99 835.36,342.39 836.17,342.64 836.98,342.43 837.80,342.57 838.61,342.42 839.42,342.75 840.24,342.20 841.05,343.03 841.86,342.67 842.67,342.76 843.49,343.09 844.30,343.12 845.11,343.05 845.93,343.46 846.74,342.74 847.55,342.69 848.36,342.44 849.18,343.03 849.99,343.13 850.80,343.16 851.62,343.09 852.43,343.06 853.24,342.24 854.05,342.64 854.87,342.93 855.68,342.84 856.49,342.99 857.31,343.36 858.12,342.64 858.93,342.71 859.74,342.75 860.56,343.06 861.37,342.87 862.18,342.96 862.99,342.78 863.81,342.53 864.62,342.63 865.43,342.15 866.25,342.53 867.06,342.15 867.87,341.90 868.68,342.73 869.50,342.37 870.31,342.95 871.12,342.19 871.94,342.17 872.75,343.06 873.56,342.89 874.37,343.13 875.19,343.00 876.00,342.67" stroke="#dc2626" stroke-width="2" fill="none"/>
  <circle cx="876.00" cy="355.20" r="3" fill="#2563eb"/>
  <circle cx="876.00" cy="341.29" r="3" fill="#059669"/>
  <circle cx="876.00" cy="342.67" r="3" fill="#dc2626"/>
  <text x="680" y="18" fill="#57606a" font-family="monospace" font-size="12">train</text>
  <line x1="600" y1="14" x2="672" y2="14" stroke="#2563eb" stroke-width="2"/>
  <text x="680" y="38" fill="#57606a" font-family="monospace" font-size="12">train subset</text>
  <line x1="600" y1="34" x2="672" y2="34" stroke="#059669" stroke-width="2"/>
  <text x="680" y="58" fill="#57606a" font-family="monospace" font-size="12">validation subset</text>
  <line x1="600" y1="54" x2="672" y2="54" stroke="#dc2626" stroke-width="2"/>
</svg>
