<svg xmlns="http://www.w3.org/2000/svg" width="900" height="400" viewBox="0 0 900 400" fill="none">
  <rect width="900" height="400" fill="white"/>
  <line x1="64" y1="24" x2="64" y2="356" stroke="#d0d7de" stroke-width="1"/>
  <line x1="64" y1="356" x2="876" y2="356" stroke="#d0d7de" stroke-width="1"/>
  <text x="64" y="16" fill="#24292f" font-family="monospace" font-size="14">Train, train subset, and validation subset loss vs. step</text>
  <text x="64" y="388" fill="#57606a" font-family="monospace" font-size="12">step 100 to 152000</text>
  <text x="12" y="28" fill="#57606a" font-family="monospace" font-size="12">7.8626</text>
  <text x="12" y="360" fill="#57606a" font-family="monospace" font-size="12">4.1635</text>
  <polyline points="64.00,24.00 64.53,85.24 65.07,102.13 65.60,112.26 66.14,122.19 66.67,127.50 67.21,136.60 67.74,144.87 68.28,149.42 68.81,158.85 69.35,159.14 69.88,169.19 70.41,171.77 70.95,173.61 71.48,181.49 72.02,180.73 72.55,188.10 73.09,190.70 73.62,193.15 74.16,200.53 74.69,199.57 75.23,206.31 75.76,207.81 76.29,210.77 76.83,216.07 77.36,215.43 77.90,222.04 78.43,221.34 78.97,224.08 79.50,229.84 80.04,226.72 80.57,234.32 81.11,231.87 81.64,234.26 82.18,240.00 82.71,236.84 83.24,242.39 83.78,241.01 84.31,243.60 84.85,247.71 85.38,247.25 85.92,252.43 86.45,249.25 86.99,250.75 87.52,254.94 88.06,254.53 88.59,259.39 89.12,255.28 89.66,259.14 90.19,261.52 90.73,259.17 91.26,265.88 91.80,261.53 92.33,266.41 92.87,267.23 93.40,266.30 93.94,272.81 94.47,267.75 95.00,273.23 95.54,270.42 96.07,272.20 96.61,277.36 97.14,273.04 97.68,278.97 98.21,274.20 98.75,278.45 99.28,280.19 99.82,276.72 100.35,283.91 100.88,280.74 101.42,281.05 101.95,285.17 102.49,282.48 103.02,289.37 103.56,282.59 104.09,287.41 104.63,288.23 105.16,286.88 105.70,291.56 106.23,285.71 106.76,290.06 107.30,290.96 107.83,288.32 108.37,294.21 108.90,288.96 109.44,292.39 109.97,293.61 110.51,291.05 111.04,296.82 111.58,290.49 112.11,295.10 112.65,296.39 113.18,292.84 113.71,299.91 114.25,292.47 114.78,297.55 115.32,296.42 115.85,297.45 116.39,301.42 116.92,294.47 117.46,300.62 117.99,298.25 118.53,298.80 119.06,302.17 119.59,297.68 120.13,304.11 120.66,299.61 121.20,299.91 121.73,304.64 122.27,298.01 122.80,304.90 123.34,300.90 123.87,302.22 124.41,305.76 124.94,300.20 125.47,306.33 126.01,301.20 126.54,303.44 127.08,305.53 127.61,301.49 128.15,308.70 128.68,301.00 129.22,305.73 129.75,307.88 130.29,303.30 130.82,313.07 131.35,302.09 131.89,307.89 132.42,308.51 132.96,305.01 133.49,312.27 134.03,303.47 134.56,309.20 135.10,307.27 135.63,306.23 136.17,312.67 136.70,304.53 137.24,313.99 137.77,307.64 138.30,307.18 138.84,315.25 139.37,306.92 139.91,313.86 140.44,308.89 140.98,308.85 141.51,314.82 142.05,307.28 142.58,316.61 143.12,308.97 143.65,309.64 144.18,316.86 144.72,308.29 145.25,314.81 145.79,311.05 146.32,310.05 146.86,316.94 147.39,308.49 147.93,315.59 148.46,312.62 149.00,311.30 149.53,320.14 150.06,309.52 150.60,316.27 151.13,313.86 151.67,311.71 152.20,320.41 152.74,310.28 153.27,316.66 153.81,315.21 154.34,312.15 154.88,321.48 155.41,310.45 155.94,318.71 156.48,315.74 157.01,313.86 157.55,321.26 158.08,312.25 158.62,319.16 159.15,318.29 159.69,316.18 160.22,321.79 160.76,311.68 161.29,321.66 161.82,316.23 162.36,315.22 162.89,322.68 163.43,314.67 163.96,323.12 164.50,313.93 165.03,316.45 165.57,321.10 166.10,314.60 166.64,324.23 167.17,316.85 167.71,317.96 168.24,322.82 168.77,316.44 169.31,325.41 169.84,315.47 170.38,319.23 170.91,321.82 171.45,315.37 171.98,325.02 172.52,314.37 173.05,320.38 173.59,322.25 174.12,319.32 174.65,326.00 175.19,314.40 175.72,321.50 176.26,321.62 176.79,319.05 177.33,327.21 177.86,317.06 178.40,322.27 178.93,321.15 179.47,319.15 180.00,326.26 180.53,317.09 181.07,323.24 181.60,323.00 182.14,318.53 182.67,327.03 183.21,317.43 183.74,323.86 184.28,321.66 184.81,319.57 185.35,327.88 185.88,318.24 186.41,324.94 186.95,321.90 187.48,321.12 188.02,327.31 188.55,318.71 189.09,325.90 189.62,322.37 190.16,321.56 190.69,328.19 191.23,318.71 191.76,326.67 192.29,322.42 192.83,321.26 193.36,328.19 193.90,319.88 194.43,326.39 194.97,322.73 195.50,322.96 196.04,327.73 196.57,319.54 197.11,329.24 197.64,321.76 198.18,321.83 198.71,330.11 199.24,321.32 199.78,329.06 200.31,322.03 200.85,323.08 201.38,329.65 201.92,321.84 202.45,331.06 202.99,321.34 203.52,324.83 204.06,327.26 204.59,323.39 205.12,330.75 205.66,321.58 206.19,325.23 206.73,328.84 207.26,321.54 207.80,332.48 208.33,321.44 208.87,326.21 209.40,327.34 209.94,322.03 210.47,332.89 211.00,320.51 211.54,329.39 212.07,326.25 212.61,323.16 213.14,333.45 213.68,320.48 214.21,329.17 214.75,325.89 215.28,323.26 215.82,333.42 216.35,321.58 216.88,331.59 217.42,325.76 217.95,325.02 218.49,333.26 219.02,321.74 219.56,333.30 220.09,323.52 220.63,325.33 221.16,332.54 221.70,323.93 222.23,335.06 222.76,323.91 223.30,327.20 223.83,331.06 224.37,323.41 224.90,335.66 225.44,322.26 225.97,329.21 226.51,330.08 227.04,324.19 227.58,335.43 228.11,322.41 228.65,333.71 229.18,326.61 229.71,326.18 230.25,334.02 230.78,323.50 231.32,336.14 231.85,322.35 232.39,330.16 232.92,332.51 233.46,326.23 233.99,336.42 234.53,325.48 235.06,333.70 235.59,327.93 236.13,327.36 236.66,324.62 237.20,326.51 237.73,324.70 238.27,326.33 238.80,325.66 239.34,327.75 239.87,326.16 240.41,326.34 240.94,326.86 241.47,324.94 242.01,327.70 242.54,324.38 243.08,327.39 243.61,325.02 244.15,327.44 244.68,326.00 245.22,327.22 245.75,327.20 246.29,325.61 246.82,329.22 247.35,324.04 247.89,329.03 248.42,326.36 248.96,328.89 249.49,326.34 250.03,328.00 250.56,327.66 251.10,327.70 251.63,327.40 252.17,326.59 252.70,328.33 253.24,326.04 253.77,328.35 254.30,326.08 254.84,328.34 255.37,326.44 255.91,328.62 256.44,327.26 256.98,327.82 257.51,327.79 258.05,326.36 258.58,328.75 259.12,326.80 259.65,329.00 260.18,325.24 260.72,327.60 261.25,327.63 261.79,329.49 262.32,328.04 262.86,328.11 263.39,328.27 263.93,328.14 264.46,330.62 265.00,327.97 265.53,328.97 266.06,329.06 266.60,328.82 267.13,328.58 267.67,328.50 268.20,330.20 268.74,328.53 269.27,329.85 269.81,327.65 270.34,328.83 270.88,327.52 271.41,328.79 271.94,327.67 272.48,330.69 273.01,328.21 273.55,328.07 274.08,328.58 274.62,327.48 275.15,330.23 275.69,329.42 276.22,330.37 276.76,328.53 277.29,329.10 277.82,328.03 278.36,329.40 278.89,328.52 279.43,332.21 279.96,328.34 280.50,328.90 281.03,330.03 281.57,328.84 282.10,329.90 282.64,328.04 283.17,329.45 283.71,327.81 284.24,329.94 284.77,328.44 285.31,330.43 285.84,328.78 286.38,328.44 286.91,329.56 287.45,327.97 287.98,330.08 288.52,328.45 289.05,330.52 289.59,328.82 290.12,330.62 290.65,330.00 291.19,330.38 291.72,329.10 292.26,329.58 292.79,328.89 293.33,328.66 293.86,328.73 294.40,327.69 294.93,330.71 295.47,327.96 296.00,329.63 296.53,328.31 297.07,330.10 297.60,329.02 298.14,329.66 298.67,330.94 299.21,328.14 299.74,329.99 300.28,327.75 300.81,330.40 301.35,328.91 301.88,330.88 302.41,327.25 302.95,331.61 303.48,330.29 304.02,331.14 304.55,329.52 305.09,330.01 305.62,330.37 306.16,328.27 306.69,330.10 307.23,328.39 307.76,330.22 308.29,329.27 308.83,331.38 309.36,329.70 309.90,330.55 310.43,330.13 310.97,332.45 311.50,330.49 312.04,329.39 312.57,331.90 313.11,328.61 313.64,331.90 314.18,329.54 314.71,332.07 315.24,328.50 315.78,331.91 316.31,330.39 316.85,332.28 317.38,331.58 317.92,331.83 318.45,330.93 318.99,331.62 319.52,330.97 320.06,331.23 320.59,332.54 321.12,331.16 321.66,330.40 322.19,330.30 322.73,331.73 323.26,329.72 323.80,332.43 324.33,330.49 324.87,331.67 325.40,330.76 325.94,331.97 326.47,330.23 327.00,331.05 327.54,331.55 328.07,331.04 328.61,330.43 329.14,333.38 329.68,332.76 330.21,332.07 330.75,331.91 331.28,331.86 331.82,332.89 332.35,332.11 332.88,333.31 333.42,329.78 333.95,333.00 334.49,330.40 335.02,332.69 335.56,331.47 336.09,331.67 336.63,332.13 337.16,332.07 337.70,331.47 338.23,332.31 338.76,332.76 339.30,331.32 339.83,333.98 340.37,331.06 340.90,333.30 341.44,332.54 341.97,335.57 342.51,334.24 343.04,334.22 343.58,332.72 344.11,333.92 344.65,333.56 345.18,332.85 345.71,333.69 346.25,332.54 346.78,333.25 347.32,332.77 347.85,334.30 348.39,333.25 348.92,333.25 349.46,333.87 349.99,333.40 350.53,334.60 351.06,332.40 351.59,336.34 352.13,332.52 352.66,333.90 353.20,331.98 353.73,335.64 354.27,333.44 354.80,333.83 355.34,334.86 355.87,334.59 356.41,333.02 356.94,333.46 357.47,334.99 358.01,332.31 358.54,334.91 359.08,333.44 359.61,335.12 360.15,332.24 360.68,335.42 361.22,332.28 361.75,335.17 362.29,333.91 362.82,333.13 363.35,334.27 363.89,333.77 364.42,334.59 364.96,332.13 365.49,334.38 366.03,332.77 366.56,335.98 367.10,332.31 367.63,335.89 368.17,331.78 368.70,334.30 369.24,332.82 369.77,335.38 370.30,332.43 370.84,333.03 371.37,334.91 371.91,332.95 372.44,335.44 372.98,331.80 373.51,335.40 374.05,334.33 374.58,336.66 375.12,334.46 375.65,334.88 376.18,332.17 376.72,336.10 377.25,333.21 377.79,335.47 378.32,335.21 378.86,334.09 379.39,335.51 379.93,336.10 380.46,335.93 381.00,334.67 381.53,336.26 382.06,333.72 382.60,336.87 383.13,334.57 383.67,336.14 384.20,333.86 384.74,336.92 385.27,333.48 385.81,335.72 386.34,335.01 386.88,334.83 387.41,335.52 387.94,333.61 388.48,336.45 389.01,333.37 389.55,334.75 390.08,335.16 390.62,337.16 391.15,334.99 391.69,335.70 392.22,334.24 392.76,336.07 393.29,336.34 393.82,336.70 394.36,336.88 394.89,336.61 395.43,337.12 395.96,334.78 396.50,336.88 397.03,334.94 397.57,336.39 398.10,334.51 398.64,337.40 399.17,335.61 399.71,335.85 400.24,335.78 400.77,336.29 401.31,336.59 401.84,335.35 402.38,336.35 402.91,335.37 403.45,337.26 403.98,335.37 404.52,338.10 405.05,334.98 405.59,337.33 406.12,335.71 406.65,337.48 407.19,335.57 407.72,336.78 408.26,337.81 408.79,335.44 409.33,339.18 409.86,336.32 410.40,339.01 410.93,336.38 411.47,337.34 412.00,336.41 412.53,337.74 413.07,338.32 413.60,336.75 414.14,338.31 414.67,337.37 415.21,337.70 415.74,336.65 416.28,338.28 416.81,336.60 417.35,337.30 417.88,336.88 418.41,337.41 418.95,337.31 419.48,337.01 420.02,337.79 420.55,335.96 421.09,338.56 421.62,336.17 422.16,337.32 422.69,336.52 423.23,338.46 423.76,337.64 424.29,337.89 424.83,337.20 425.36,337.44 425.90,337.21 426.43,338.18 426.97,338.69 427.50,336.77 428.04,338.78 428.57,338.39 429.11,338.62 429.64,336.99 430.18,337.92 430.71,335.30 431.24,337.78 431.78,337.79 432.31,338.16 432.85,337.04 433.38,338.38 433.92,337.05 434.45,339.24 434.99,337.31 435.52,337.81 436.06,338.78 436.59,337.02 437.12,338.61 437.66,337.66 438.19,339.01 438.73,336.72 439.26,339.53 439.80,337.36 440.33,338.61 440.87,337.56 441.40,339.27 441.94,338.30 442.47,339.65 443.00,337.11 443.54,339.09 444.07,338.11 444.61,338.46 445.14,339.05 445.68,339.31 446.21,338.36 446.75,337.51 447.28,340.20 447.82,338.00 448.35,339.23 448.88,337.29 449.42,341.53 449.95,337.14 450.49,338.88 451.02,336.24 451.56,340.90 452.09,337.46 452.63,339.54 453.16,339.48 453.70,338.37 454.23,340.07 454.76,338.62 455.30,339.37 455.83,337.67 456.37,341.52 456.90,338.81 457.44,340.91 457.97,337.96 458.51,339.95 459.04,338.92 459.58,340.92 460.11,338.80 460.65,340.48 461.18,340.29 461.71,339.77 462.25,340.58 462.78,337.81 463.32,341.37 463.85,337.60 464.39,340.75 464.92,336.59 465.46,340.25 465.99,338.63 466.53,341.13 467.06,339.75 467.59,339.66 468.13,339.60 468.66,339.21 469.20,339.57 469.73,338.14 470.27,341.32 470.80,338.53 471.34,341.02 471.87,338.09 472.41,341.24 472.94,338.13 473.47,340.87 474.01,339.10 474.54,340.34 475.08,338.57 475.61,340.38 476.15,339.97 476.68,340.66 477.22,341.14 477.75,339.29 478.29,341.81 478.82,338.56 479.35,341.86 479.89,338.27 480.42,341.77 480.96,339.53 481.49,340.77 482.03,339.71 482.56,341.42 483.10,340.24 483.63,341.21 484.17,341.16 484.70,339.19 485.24,342.44 485.77,339.78 486.30,342.61 486.84,340.05 487.37,340.66 487.91,339.24 488.44,342.25 488.98,340.25 489.51,339.63 490.05,342.20 490.58,340.61 491.12,339.82 491.65,340.21 492.18,342.00 492.72,340.90 493.25,342.11 493.79,339.40 494.32,342.72 494.86,339.36 495.39,342.42 495.93,340.00 496.46,341.57 497.00,341.57 497.53,340.42 498.06,343.32 498.60,339.17 499.13,343.58 499.67,340.18 500.20,341.86 500.74,340.07 501.27,343.17 501.81,340.83 502.34,343.24 502.88,341.70 503.41,341.12 503.94,342.12 504.48,340.61 505.01,342.69 505.55,340.05 506.08,344.05 506.62,339.16 507.15,341.77 507.69,340.66 508.22,340.97 508.76,338.90 509.29,341.55 509.82,341.16 510.36,341.15 510.89,341.41 511.43,339.32 511.96,342.73 512.50,339.71 513.03,342.12 513.57,339.94 514.10,342.51 514.64,340.22 515.17,342.72 515.71,340.28 516.24,341.98 516.77,341.54 517.31,340.36 517.84,340.94 518.38,341.04 518.91,342.92 519.45,340.77 519.98,342.34 520.52,340.70 521.05,343.22 521.59,341.44 522.12,343.00 522.65,340.66 523.19,342.20 523.72,342.04 524.26,340.47 524.79,342.99 525.33,341.68 525.86,343.36 526.40,341.17 526.93,343.83 527.47,340.51 528.00,343.22 528.53,341.35 529.07,342.61 529.60,342.78 530.14,343.19 530.67,341.96 531.21,339.95 531.74,341.67 532.28,339.66 532.81,343.12 533.35,340.08 533.88,342.56 534.41,340.68 534.95,341.96 535.48,342.01 536.02,340.83 536.55,343.30 537.09,340.02 537.62,344.08 538.16,339.20 538.69,343.88 539.23,339.92 539.76,343.85 540.29,341.06 540.83,342.99 541.36,340.39 541.90,342.76 542.43,341.80 542.97,342.00 543.50,342.35 544.04,339.60 544.57,343.43 545.11,339.07 545.64,343.49 546.18,338.97 546.71,343.64 547.24,340.17 547.78,342.88 548.31,342.54 548.85,341.66 549.38,342.22 549.92,341.34 550.45,343.19 550.99,340.74 551.52,343.86 552.06,341.24 552.59,343.80 553.12,340.33 553.66,343.80 554.19,340.98 554.73,343.30 555.26,340.44 555.80,342.38 556.33,342.86 556.87,341.22 557.40,344.12 557.94,342.27 558.47,344.89 559.00,341.01 559.54,344.18 560.07,339.25 560.61,343.28 561.14,340.35 561.68,344.30 562.21,341.49 562.75,343.11 563.28,342.69 563.82,342.08 564.35,342.67 564.88,341.43 565.42,344.69 565.95,340.73 566.49,343.44 567.02,339.13 567.56,344.26 568.09,338.92 568.63,344.35 569.16,338.93 569.70,343.31 570.23,340.87 570.76,342.96 571.30,342.37 571.83,342.24 572.37,343.44 572.90,340.78 573.44,344.85 573.97,340.41 574.51,345.31 575.04,340.08 575.58,344.91 576.11,341.17 576.65,345.45 577.18,340.16 577.71,343.10 578.25,343.01 578.78,342.65 579.32,343.92 579.85,340.57 580.39,344.44 580.92,341.27 581.46,345.41 581.99,341.88 582.53,345.17 583.06,341.32 583.59,345.70 584.13,340.93 584.66,346.32 585.20,342.34 585.73,344.68 586.27,342.96 586.80,343.28 587.34,344.13 587.87,342.62 588.41,344.86 588.94,341.79 589.47,344.84 590.01,341.51 590.54,346.62 591.08,342.57 591.61,345.08 592.15,341.48 592.68,345.63 593.22,341.47 593.75,345.39 594.29,341.99 594.82,344.06 595.35,343.27 595.89,343.55 596.42,343.38 596.96,341.09 597.49,345.74 598.03,342.60 598.56,345.99 599.10,342.50 599.63,345.47 600.17,341.64 600.70,345.42 601.24,342.59 601.77,351.49 602.30,338.33 602.84,340.34 603.37,343.35 603.91,340.76 604.44,346.10 604.98,340.60 605.51,340.91 606.05,345.02 606.58,340.60 607.12,346.12 607.65,337.75 608.18,344.85 608.72,344.19 609.25,340.87 609.79,346.06 610.32,339.80 610.86,343.75 611.39,342.50 611.93,340.58 612.46,346.66 613.00,339.55 613.53,343.57 614.06,342.13 614.60,341.46 615.13,345.29 615.67,340.32 616.20,345.33 616.74,342.17 617.27,341.55 617.81,346.73 618.34,339.22 618.88,345.23 619.41,339.87 619.94,340.53 620.48,346.07 621.01,339.18 621.55,344.49 622.08,340.89 622.62,341.79 623.15,346.01 623.69,342.14 624.22,346.35 624.76,341.61 625.29,341.83 625.82,344.59 626.36,341.70 626.89,346.16 627.43,339.50 627.96,341.99 628.50,344.74 629.03,339.03 629.57,345.37 630.10,339.44 630.64,342.97 631.17,343.51 631.71,339.99 632.24,346.25 632.77,339.97 633.31,344.87 633.84,340.66 634.38,341.11 634.91,346.16 635.45,340.06 635.98,345.85 636.52,339.77 637.05,342.85 637.59,344.27 638.12,339.00 638.65,346.96 639.19,342.74 639.72,341.34 640.26,346.09 640.79,341.69 641.33,348.28 641.86,340.60 642.40,344.92 642.93,345.67 643.47,342.84 644.00,347.45 644.53,341.17 645.07,344.43 645.60,345.29 646.14,341.39 646.67,347.14 647.21,341.33 647.74,344.28 648.28,345.46 648.81,341.54 649.35,347.22 649.88,340.47 650.41,344.57 650.95,345.68 651.48,341.38 652.02,348.27 652.55,340.30 653.09,344.98 653.62,343.28 654.16,344.15 654.69,347.92 655.23,339.93 655.76,345.94 656.29,343.94 656.83,343.59 657.36,347.43 657.90,341.71 658.43,348.03 658.97,343.22 659.50,342.76 660.04,347.93 660.57,340.54 661.11,347.04 661.64,342.85 662.18,343.94 662.71,347.46 663.24,341.43 663.78,347.14 664.31,342.14 664.85,343.72 665.38,346.31 665.92,341.20 666.45,348.42 666.99,340.34 667.52,344.38 668.06,347.44 668.59,341.99 669.12,351.98 669.66,340.06 670.19,346.05 670.73,346.54 671.26,342.54 671.80,349.93 672.33,340.26 672.87,346.30 673.40,344.51 673.94,342.80 674.47,349.30 675.00,340.64 675.54,350.57 676.07,343.80 676.61,342.42 677.14,351.27 677.68,342.08 678.21,348.82 678.75,344.17 679.28,343.57 679.82,349.84 680.35,341.59 680.88,350.94 681.42,342.78 681.95,343.12 682.49,350.93 683.02,341.77 683.56,348.30 684.09,344.54 684.63,343.00 685.16,350.46 685.70,341.11 686.23,347.71 686.76,345.37 687.30,343.34 687.83,352.43 688.37,341.55 688.90,347.89 689.44,345.51 689.97,343.22 690.51,352.03 691.04,341.71 691.58,347.73 692.11,346.40 692.65,342.84 693.18,352.19 693.71,341.01 694.25,349.07 694.78,346.41 695.32,343.65 695.85,351.61 696.39,342.08 696.92,348.64 697.46,348.08 697.99,345.27 698.53,351.36 699.06,340.52 699.59,350.99 700.13,345.32 700.66,344.01 701.20,351.73 701.73,343.63 702.27,351.83 702.80,342.14 703.34,344.39 703.87,349.52 704.41,342.63 704.94,352.35 705.47,344.67 706.01,345.41 706.54,350.41 707.08,344.22 707.61,352.99 708.15,342.76 708.68,346.20 709.22,349.34 709.75,341.97 710.29,351.93 710.82,341.41 711.35,346.68 711.89,349.01 712.42,345.48 712.96,352.52 713.49,340.85 714.03,347.41 714.56,347.58 715.10,344.63 715.63,353.20 716.17,342.90 716.70,348.05 717.24,347.29 717.77,344.34 718.30,351.95 718.84,342.65 719.37,348.42 719.91,348.20 720.44,343.71 720.98,352.49 721.51,342.36 722.05,348.40 722.58,346.64 723.12,343.98 723.65,352.50 724.18,343.13 724.72,349.14 725.25,346.16 725.79,345.48 726.32,351.54 726.86,343.12 727.39,349.62 727.93,346.56 728.46,345.56 729.00,352.43 729.53,342.72 730.06,350.54 730.60,346.08 731.13,344.40 731.67,351.99 732.20,343.36 732.74,349.29 733.27,346.36 733.81,345.79 734.34,351.08 734.88,342.83 735.41,351.96 735.94,344.91 736.48,344.45 737.01,353.49 737.55,343.90 738.08,351.45 738.62,344.73 739.15,345.66 739.69,352.43 740.22,344.31 740.76,353.23 741.29,343.67 741.82,346.76 742.36,349.56 742.89,344.98 743.43,353.12 743.96,343.85 744.50,346.87 745.03,351.01 745.57,342.96 746.10,353.99 746.64,342.99 747.17,348.14 747.71,349.10 748.24,343.23 748.77,354.14 749.31,341.89 749.84,350.92 750.38,348.42 750.91,344.27 751.45,354.67 751.98,341.48 752.52,350.19 753.05,347.41 753.59,344.13 754.12,354.57 754.65,342.45 755.19,351.96 755.72,346.99 756.26,345.58 756.79,354.04 757.33,342.20 757.86,353.85 758.40,343.86 758.93,345.74 759.47,353.10 760.00,344.30 760.53,355.24 761.07,344.14 761.60,347.16 762.14,351.27 762.67,343.24 763.21,356.00 763.74,342.24 764.28,349.01 764.81,350.07 765.35,343.99 765.88,355.23 766.41,342.13 766.95,353.41 767.48,346.09 768.02,345.70 768.55,353.69 769.09,342.83 769.62,355.67 770.16,342.06 770.69,349.72 771.23,352.14 771.76,345.48 772.29,355.89 772.83,344.82 773.36,352.73 773.90,347.48 774.43,346.20 774.97,343.54 775.50,345.02 776.04,343.72 776.57,345.06 777.11,344.51 777.64,346.48 778.18,344.67 778.71,344.83 779.24,345.76 779.78,343.79 780.31,345.83 780.85,342.94 781.38,345.91 781.92,343.62 782.45,345.89 782.99,344.44 783.52,345.69 784.06,345.33 784.59,343.93 785.12,347.41 785.66,342.37 786.19,347.01 786.73,344.62 787.26,347.18 787.80,344.44 788.33,345.87 788.87,345.31 789.40,345.88 789.94,345.33 790.47,344.68 791.00,346.15 791.54,344.27 792.07,346.35 792.61,344.04 793.14,346.16 793.68,344.01 794.21,346.24 794.75,344.93 795.28,345.37 795.82,345.33 796.35,344.01 796.88,346.37 797.42,344.63 797.95,346.32 798.49,342.34 799.02,344.91 799.56,344.71 800.09,346.71 800.63,345.35 801.16,345.43 801.70,345.25 802.23,345.54 802.76,347.61 803.30,344.89 803.83,346.26 804.37,346.09 804.90,345.96 805.44,345.56 805.97,345.55 806.51,347.24 807.04,345.54 807.58,346.47 808.11,344.50 808.65,345.49 809.18,344.33 809.71,345.38 810.25,344.72 810.78,347.32 811.32,344.93 811.85,344.62 812.39,345.25 812.92,344.44 813.46,346.65 813.99,346.15 814.53,346.80 815.06,344.87 815.59,345.53 816.13,344.65 816.66,345.61 817.20,345.08 817.73,348.29 818.27,344.58 818.80,345.48 819.34,346.12 819.87,345.32 820.41,346.03 820.94,344.10 821.47,345.69 822.01,344.02 822.54,346.16 823.08,344.27 823.61,346.27 824.15,344.58 824.68,344.57 825.22,345.12 825.75,344.48 826.29,345.90 826.82,344.65 827.35,346.44 827.89,344.94 828.42,346.59 828.96,345.66 829.49,346.06 830.03,344.21 830.56,345.54 831.10,344.37 831.63,344.19 832.17,344.56 832.70,343.31 833.24,346.35 833.77,343.60 834.30,345.21 834.84,343.50 835.37,345.81 835.91,344.20 836.44,345.31 836.98,346.05 837.51,343.41 838.05,345.14 838.58,342.94 839.12,346.10 839.65,343.80 840.18,345.88 840.72,342.19 841.25,346.76 841.79,344.98 842.32,346.56 842.86,344.54 843.39,345.03 843.93,345.47 844.46,343.41 845.00,345.22 845.53,343.65 846.06,345.27 846.60,344.31 847.13,346.73 847.67,344.47 848.20,345.60 848.74,344.84 849.27,347.49 849.81,344.77 850.34,343.94 850.88,346.76 851.41,343.35 851.94,346.77 852.48,344.05 853.01,346.71 853.55,343.22 854.08,346.38 854.62,344.87 855.15,346.99 855.69,346.45 856.22,346.34 856.76,345.39 857.29,346.36 857.82,345.16 858.36,345.68 858.89,346.67 859.43,345.44 859.96,344.75 860.50,344.64 861.03,345.86 861.57,343.96 862.10,346.73 862.64,344.76 863.17,345.65 863.71,344.87 864.24,346.11 864.77,344.27 865.31,345.70 865.84,345.42 866.38,345.19 866.91,344.35 867.45,347.49 867.98,346.35 868.52,346.47 869.05,345.53 869.59,345.67 870.12,346.43 870.65,345.98 871.19,347.43 871.72,343.83 872.26,346.62 872.79,344.17 873.33,346.23 873.86,344.90 874.40,345.17 874.93,345.96 875.47,345.88 876.00,345.23" stroke="#2563eb" stroke-width="2" fill="none"/>
  <polyline points="68.81,152.83 74.16,190.09 79.50,219.83 84.85,237.85 90.19,252.78 95.54,263.32 100.88,273.15 106.23,279.23 111.58,284.06 116.92,289.10 122.27,292.44 127.61,295.45 132.96,296.20 138.30,298.10 143.65,300.58 149.00,303.55 154.34,302.76 159.69,305.56 165.03,307.16 170.38,308.49 175.72,310.03 181.07,309.69 186.41,311.21 191.76,310.67 197.11,311.87 202.45,313.84 207.80,313.61 213.14,315.12 218.49,315.14 223.83,315.72 229.18,317.68 234.53,318.68 239.87,318.90 245.22,318.85 250.56,319.07 255.91,320.17 261.25,319.84 266.60,321.77 271.94,321.28 277.29,322.66 282.64,323.20 287.98,321.43 293.33,322.03 298.67,323.49 304.02,324.07 309.36,324.38 314.71,324.57 320.06,325.09 325.40,324.90 330.75,324.20 336.09,325.16 341.44,325.95 346.78,326.31 352.13,326.83 357.47,326.18 362.82,326.60 368.17,326.93 373.51,326.87 378.86,328.36 384.20,328.95 389.55,328.11 394.89,329.47 400.24,329.81 405.59,328.74 410.93,329.73 416.28,328.46 421.62,330.51 426.97,328.35 432.31,328.55 437.66,330.79 443.00,330.49 448.35,329.98 453.70,331.50 459.04,331.23 464.39,330.69 469.73,330.89 475.08,331.69 480.42,331.49 485.77,331.40 491.12,331.64 496.46,332.54 501.81,331.51 507.15,330.90 512.50,331.93 517.84,331.19 523.19,332.19 528.53,331.81 533.88,330.50 539.23,332.20 544.57,332.24 549.92,332.19 555.26,332.41 560.61,331.54 565.95,333.38 571.30,333.14 576.65,332.45 581.99,333.66 587.34,332.17 592.68,332.55 598.03,332.98 603.37,337.00 608.72,334.83 614.06,334.82 619.41,335.58 624.76,336.44 630.10,334.84 635.45,335.55 640.79,335.34 646.14,335.18 651.48,336.56 656.83,335.78 662.18,335.65 667.52,334.52 672.87,334.17 678.21,334.35 683.56,335.16 688.90,335.68 694.25,336.44 699.59,334.80 704.94,334.42 710.29,335.35 715.63,336.49 720.98,334.80 726.32,336.06 731.67,336.55 737.01,336.37 742.36,337.79 747.71,336.84 753.05,338.09 758.40,337.30 763.74,337.82 769.09,337.94 774.43,337.89 779.78,338.60 785.12,338.93 790.47,338.96 795.82,339.14 801.16,339.37 806.51,338.40 811.85,339.58 817.20,339.30 822.54,339.32 827.89,339.09 833.24,339.96 838.58,339.59 843.93,338.13 849.27,340.11 854.62,340.18 859.96,339.59 865.31,340.26 870.65,340.40 876.00,340.40" stroke="#059669" stroke-width="2" fill="none"/>
  <polyline points="68.81,153.81 74.16,192.05 79.50,219.37 84.85,237.15 90.19,251.81 95.54,262.39 100.88,271.79 106.23,277.24 111.58,281.28 116.92,286.78 122.27,290.54 127.61,293.68 132.96,295.41 138.30,297.20 143.65,298.41 149.00,300.32 154.34,301.42 159.69,304.25 165.03,305.67 170.38,306.21 175.72,308.33 181.07,307.80 186.41,308.79 191.76,309.10 197.11,310.11 202.45,312.50 207.80,311.98 213.14,312.28 218.49,312.28 223.83,313.12 229.18,315.11 234.53,314.77 239.87,316.42 245.22,315.99 250.56,316.74 255.91,317.05 261.25,317.54 266.60,319.11 271.94,317.97 277.29,318.87 282.64,318.69 287.98,318.94 293.33,319.05 298.67,320.14 304.02,320.28 309.36,320.70 314.71,320.96 320.06,321.59 325.40,321.58 330.75,321.71 336.09,322.38 341.44,322.11 346.78,323.57 352.13,322.79 357.47,323.19 362.82,323.31 368.17,323.91 373.51,323.94 378.86,324.68 384.20,324.80 389.55,325.33 394.89,325.92 400.24,325.51 405.59,325.38 410.93,325.95 416.28,325.51 421.62,326.52 426.97,325.38 432.31,326.45 437.66,327.30 443.00,326.94 448.35,327.60 453.70,327.27 459.04,327.60 464.39,328.27 469.73,328.10 475.08,327.94 480.42,328.87 485.77,327.88 491.12,328.96 496.46,328.71 501.81,328.45 507.15,328.11 512.50,328.41 517.84,328.34 523.19,329.09 528.53,328.62 533.88,327.77 539.23,327.66 544.57,329.71 549.92,328.54 555.26,329.17 560.61,328.35 565.95,329.27 571.30,329.89 576.65,329.49 581.99,330.04 587.34,328.75 592.68,329.00 598.03,330.39 603.37,330.91 608.72,329.88 614.06,329.93 619.41,331.33 624.76,331.96 630.10,330.98 635.45,331.16 640.79,332.07 646.14,331.49 651.48,331.84 656.83,332.26 662.18,332.73 667.52,331.51 672.87,331.91 678.21,332.61 683.56,332.48 688.90,332.91 694.25,332.32 699.59,332.71 704.94,331.69 710.29,333.26 715.63,333.29 720.98,331.82 726.32,332.78 731.67,332.98 737.01,332.25 742.36,333.51 747.71,332.82 753.05,333.86 758.40,333.80 763.74,333.45 769.09,333.77 774.43,334.32 779.78,333.44 785.12,334.15 790.47,334.84 795.82,335.55 801.16,334.19 806.51,334.51 811.85,335.11 817.20,336.01 822.54,335.98 827.89,335.12 833.24,335.60 838.58,335.05 843.93,334.91 849.27,335.92 854.62,335.98 859.96,335.70 865.31,335.70 870.65,336.07 876.00,336.40" stroke="#dc2626" stroke-width="2" fill="none"/>
  <circle cx="876.00" cy="345.23" r="3" fill="#2563eb"/>
  <circle cx="876.00" cy="340.40" r="3" fill="#059669"/>
  <circle cx="876.00" cy="336.40" r="3" fill="#dc2626"/>
  <text x="680" y="18" fill="#57606a" font-family="monospace" font-size="12">train</text>
  <line x1="600" y1="14" x2="672" y2="14" stroke="#2563eb" stroke-width="2"/>
  <text x="680" y="38" fill="#57606a" font-family="monospace" font-size="12">train subset</text>
  <line x1="600" y1="34" x2="672" y2="34" stroke="#059669" stroke-width="2"/>
  <text x="680" y="58" fill="#57606a" font-family="monospace" font-size="12">validation subset</text>
  <line x1="600" y1="54" x2="672" y2="54" stroke="#dc2626" stroke-width="2"/>
</svg>
