<svg xmlns="http://www.w3.org/2000/svg" width="900" height="400" viewBox="0 0 900 400" fill="none">
  <rect width="900" height="400" fill="white"/>
  <line x1="64" y1="24" x2="64" y2="356" stroke="#d0d7de" stroke-width="1"/>
  <line x1="64" y1="356" x2="876" y2="356" stroke="#d0d7de" stroke-width="1"/>
  <text x="64" y="16" fill="#24292f" font-family="monospace" font-size="14">Train, train subset, and validation subset loss vs. step</text>
  <text x="64" y="388" fill="#57606a" font-family="monospace" font-size="12">step 100 to 20000</text>
  <text x="12" y="28" fill="#57606a" font-family="monospace" font-size="12">9.2088</text>
  <text x="12" y="360" fill="#57606a" font-family="monospace" font-size="12">7.2688</text>
  <polyline points="64.00,24.00 68.08,98.36 72.16,122.21 76.24,141.33 80.32,153.29 84.40,160.01 88.48,170.24 92.56,173.90 96.64,181.64 100.72,189.30 104.80,189.11 108.88,197.60 112.96,195.53 117.05,202.20 121.13,204.24 125.21,204.68 129.29,209.28 133.37,210.77 137.45,214.41 141.53,217.72 145.61,217.54 149.69,222.72 153.77,218.82 157.85,224.84 161.93,225.17 166.01,225.64 170.09,228.72 174.17,228.99 178.25,230.97 182.33,234.10 186.41,232.55 190.49,236.73 194.57,233.22 198.65,238.67 202.73,239.04 206.81,236.92 210.89,240.52 214.97,239.60 219.06,240.99 223.14,245.57 227.22,242.51 231.30,246.05 235.38,243.95 239.46,247.68 243.54,247.21 247.62,246.01 251.70,248.52 255.78,248.17 259.86,250.76 263.94,253.58 268.02,250.35 272.10,254.40 276.18,251.09 280.26,255.21 284.34,256.00 288.42,252.81 292.50,256.87 296.58,255.59 300.66,257.61 304.74,260.63 308.82,256.50 312.90,262.45 316.98,258.35 321.07,261.51 325.15,263.67 329.23,259.41 333.31,265.08 337.39,263.35 341.47,264.19 345.55,268.82 349.63,264.27 353.71,269.68 357.79,265.71 361.87,270.70 365.95,270.13 370.03,267.79 374.11,272.30 378.19,270.73 382.27,273.25 386.35,276.71 390.43,271.22 394.51,277.25 398.59,273.53 402.67,277.64 406.75,278.41 410.83,274.02 414.91,279.60 418.99,278.57 423.08,279.11 427.16,284.30 431.24,278.63 435.32,284.96 439.40,281.26 443.48,284.05 447.56,285.54 451.64,282.13 455.72,285.80 459.80,285.59 463.88,286.88 467.96,290.79 472.04,285.15 476.12,290.97 480.20,287.17 484.28,291.49 488.36,291.69 492.44,288.55 496.52,294.06 500.60,293.46 504.68,293.21 508.76,296.66 512.84,292.23 516.92,297.48 521.01,293.54 525.09,298.24 529.17,299.10 533.25,294.12 537.33,299.24 541.41,298.35 545.49,299.87 549.57,305.10 553.65,298.38 557.73,304.06 561.81,299.48 565.89,303.91 569.97,305.99 574.05,300.80 578.13,305.92 582.21,305.24 586.29,306.18 590.37,312.21 594.45,305.14 598.53,310.32 602.61,306.06 606.69,310.05 610.77,312.29 614.85,308.15 618.93,311.35 623.02,312.08 627.10,311.82 631.18,316.88 635.26,309.90 639.34,315.64 643.42,312.13 647.50,315.89 651.58,316.68 655.66,312.48 659.74,317.79 663.82,316.91 667.90,316.33 671.98,323.66 676.06,314.63 680.14,322.61 684.22,316.75 688.30,322.07 692.38,324.19 696.46,319.15 700.54,322.98 704.62,322.46 708.70,323.03 712.78,327.20 716.86,321.18 720.94,327.11 725.03,322.30 729.11,327.54 733.19,328.26 737.27,323.64 741.35,328.55 745.43,326.79 749.51,327.20 753.59,332.78 757.67,325.15 761.75,330.99 765.83,326.21 769.91,331.40 773.99,333.30 778.07,328.53 782.15,333.08 786.23,333.30 790.31,331.33 794.39,337.61 798.47,329.40 802.55,337.02 806.63,332.30 810.71,335.65 814.79,338.30 818.87,332.15 822.95,338.37 827.04,337.87 831.12,336.38 835.20,341.96 839.28,334.80 843.36,340.59 847.44,336.60 851.52,340.31 855.60,343.68 859.68,336.37 863.76,342.12 867.84,342.14 871.92,341.32 876.00,346.44" stroke="#2563eb" stroke-width="2" fill="none"/>
  <polyline points="64.00,67.98 68.08,106.26 72.16,127.32 76.24,141.85 80.32,152.39 84.40,161.08 88.48,168.02 92.56,173.80 96.64,178.96 100.72,182.99 104.80,187.11 108.88,190.49 112.96,193.85 117.05,196.84 121.13,199.44 125.21,202.17 129.29,204.53 133.37,206.67 137.45,208.86 141.53,210.62 145.61,212.84 149.69,214.51 153.77,216.20 157.85,217.80 161.93,219.04 166.01,220.74 170.09,222.07 174.17,223.34 178.25,224.79 182.33,225.75 186.41,227.23 190.49,228.34 194.57,229.57 198.65,230.66 202.73,231.46 206.81,232.73 210.89,233.71 214.97,234.58 219.06,235.68 223.14,236.25 227.22,237.49 231.30,238.28 235.38,239.14 239.46,239.98 243.54,240.54 247.62,241.57 251.70,242.41 255.78,243.06 259.86,243.89 263.94,244.37 268.02,245.51 272.10,246.18 276.18,246.90 280.26,247.76 284.34,248.20 288.42,249.16 292.50,249.85 296.58,250.54 300.66,251.36 304.74,251.88 308.82,252.93 312.90,253.52 316.98,254.31 321.07,255.04 325.15,255.64 329.23,256.58 333.31,257.24 337.39,257.91 341.47,258.77 345.55,259.20 349.63,260.25 353.71,260.92 357.79,261.67 361.87,262.42 365.95,262.86 370.03,263.80 374.11,264.49 378.19,265.09 382.27,265.94 386.35,266.31 390.43,267.28 394.51,267.87 398.59,268.53 402.67,269.34 406.75,269.77 410.83,270.66 414.91,271.28 418.99,271.80 423.08,272.55 427.16,272.86 431.24,273.85 435.32,274.58 439.40,275.10 443.48,275.98 447.56,276.23 451.64,277.12 455.72,277.77 459.80,278.43 463.88,279.28 467.96,279.50 472.04,280.46 476.12,281.07 480.20,281.80 484.28,282.42 488.36,282.75 492.44,283.42 496.52,284.15 500.60,284.69 504.68,285.37 508.76,285.91 512.84,286.80 516.92,287.38 521.01,288.03 525.09,288.61 529.17,289.05 533.25,289.84 537.33,290.50 541.41,290.90 545.49,291.59 549.57,291.92 553.65,292.89 557.73,293.47 561.81,294.02 565.89,294.66 569.97,294.86 574.05,295.81 578.13,296.26 582.21,296.77 586.29,297.50 590.37,297.86 594.45,298.82 598.53,299.25 602.61,299.38 606.69,300.36 610.77,300.53 614.85,301.52 618.93,302.01 623.02,302.31 627.10,303.17 631.18,303.38 635.26,304.24 639.34,304.70 643.42,305.34 647.50,305.87 651.58,306.20 655.66,306.88 659.74,307.43 663.82,307.85 667.90,308.54 671.98,308.70 676.06,309.46 680.14,310.15 684.22,310.72 688.30,311.08 692.38,311.45 696.46,312.20 700.54,312.68 704.62,313.22 708.70,313.91 712.78,313.41 716.86,314.75 720.94,315.32 725.03,315.66 729.11,316.42 733.19,316.53 737.27,317.28 741.35,317.55 745.43,318.06 749.51,318.64 753.59,318.73 757.67,319.78 761.75,319.97 765.83,320.75 769.91,320.41 773.99,321.07 778.07,321.59 782.15,322.46 786.23,322.74 790.31,323.54 794.39,323.63 798.47,324.62 802.55,324.26 806.63,325.35 810.71,325.80 814.79,325.32 818.87,326.62 822.95,327.19 827.04,327.21 831.12,327.96 835.20,328.01 839.28,329.08 843.36,329.18 847.44,329.86 851.52,330.10 855.60,330.22 859.68,330.98 863.76,331.39 867.84,331.91 871.92,332.09 876.00,332.57" stroke="#059669" stroke-width="2" fill="none"/>
  <polyline points="64.00,87.41 68.08,126.64 72.16,147.66 76.24,162.14 80.32,172.63 84.40,181.11 88.48,188.11 92.56,193.75 96.64,198.78 100.72,203.11 104.80,207.01 108.88,210.66 112.96,213.86 117.05,217.04 121.13,219.84 125.21,222.43 129.29,224.97 133.37,227.13 137.45,229.35 141.53,231.29 145.61,233.24 149.69,235.18 153.77,236.79 157.85,238.53 161.93,239.98 166.01,241.41 170.09,242.94 174.17,244.22 178.25,245.57 182.33,246.74 186.41,248.03 190.49,249.27 194.57,250.35 198.65,251.59 202.73,252.54 206.81,253.56 210.89,254.57 214.97,255.52 219.06,256.54 223.14,257.42 227.22,258.38 231.30,259.29 235.38,260.08 239.46,261.06 243.54,261.84 247.62,262.57 251.70,263.42 255.78,264.14 259.86,264.96 263.94,265.57 268.02,266.44 272.10,267.23 276.18,267.92 280.26,268.75 284.34,269.32 288.42,270.03 292.50,270.84 296.58,271.33 300.66,272.13 304.74,272.75 308.82,273.58 312.90,274.35 316.98,275.05 321.07,275.77 325.15,276.38 329.23,277.06 333.31,277.78 337.39,278.48 341.47,279.28 345.55,279.98 349.63,280.77 353.71,281.56 357.79,282.28 361.87,283.12 365.95,283.80 370.03,284.48 374.11,285.23 378.19,285.91 382.27,286.71 386.35,287.44 390.43,288.21 394.51,289.07 398.59,289.75 402.67,290.50 406.75,291.11 410.83,291.78 414.91,292.61 418.99,293.26 423.08,294.04 427.16,294.65 431.24,295.46 435.32,296.35 439.40,297.01 443.48,297.74 447.56,298.37 451.64,299.06 455.72,299.88 459.80,300.45 463.88,301.23 467.96,301.76 472.04,302.54 476.12,303.33 480.20,303.98 484.28,304.72 488.36,305.25 492.44,305.92 496.52,306.70 500.60,307.28 504.68,308.02 508.76,308.56 512.84,309.18 516.92,310.09 521.01,310.76 525.09,311.55 529.17,311.95 533.25,312.63 537.33,313.44 541.41,313.80 545.49,314.64 549.57,315.25 553.65,316.01 557.73,316.52 561.81,317.27 565.89,317.93 569.97,318.50 574.05,319.16 578.13,319.75 582.21,320.09 586.29,321.03 590.37,321.57 594.45,322.27 598.53,322.97 602.61,323.15 606.69,324.20 610.77,324.49 614.85,325.30 618.93,325.93 623.02,326.30 627.10,327.06 631.18,327.55 635.26,328.17 639.34,328.82 643.42,329.43 647.50,329.82 651.58,330.38 655.66,331.02 659.74,331.57 663.82,331.87 667.90,332.71 671.98,332.95 676.06,333.35 680.14,334.31 684.22,334.83 688.30,335.05 692.38,335.67 696.46,336.26 700.54,336.69 704.62,337.23 708.70,337.97 712.78,337.82 716.86,338.90 720.94,339.30 725.03,339.65 729.11,340.32 733.19,340.64 737.27,341.21 741.35,341.72 745.43,342.19 749.51,342.72 753.59,342.80 757.67,343.63 761.75,343.89 765.83,344.45 769.91,344.18 773.99,345.20 778.07,345.49 782.15,346.32 786.23,346.55 790.31,347.19 794.39,347.47 798.47,348.14 802.55,347.82 806.63,349.07 810.71,349.48 814.79,348.80 818.87,350.28 822.95,350.85 827.04,350.72 831.12,351.40 835.20,351.61 839.28,352.47 843.36,352.68 847.44,353.14 851.52,353.60 855.60,353.78 859.68,354.39 863.76,355.10 867.84,355.48 871.92,355.60 876.00,356.00" stroke="#dc2626" stroke-width="2" fill="none"/>
  <circle cx="876.00" cy="346.44" r="3" fill="#2563eb"/>
  <circle cx="876.00" cy="332.57" r="3" fill="#059669"/>
  <circle cx="876.00" cy="356.00" r="3" fill="#dc2626"/>
  <text x="680" y="18" fill="#57606a" font-family="monospace" font-size="12">train</text>
  <line x1="600" y1="14" x2="672" y2="14" stroke="#2563eb" stroke-width="2"/>
  <text x="680" y="38" fill="#57606a" font-family="monospace" font-size="12">train subset</text>
  <line x1="600" y1="34" x2="672" y2="34" stroke="#059669" stroke-width="2"/>
  <text x="680" y="58" fill="#57606a" font-family="monospace" font-size="12">validation subset</text>
  <line x1="600" y1="54" x2="672" y2="54" stroke="#dc2626" stroke-width="2"/>
</svg>
