<svg xmlns="http://www.w3.org/2000/svg" width="900" height="400" viewBox="0 0 900 400" fill="none">
  <rect width="900" height="400" fill="white"/>
  <line x1="64" y1="24" x2="64" y2="356" stroke="#d0d7de" stroke-width="1"/>
  <line x1="64" y1="356" x2="876" y2="356" stroke="#d0d7de" stroke-width="1"/>
  <text x="64" y="16" fill="#24292f" font-family="monospace" font-size="14">Train, train subset, and validation subset loss vs. step</text>
  <text x="64" y="388" fill="#57606a" font-family="monospace" font-size="12">step 100 to 20000</text>
  <text x="12" y="28" fill="#57606a" font-family="monospace" font-size="12">9.2098</text>
  <text x="12" y="360" fill="#57606a" font-family="monospace" font-size="12">7.2707</text>
  <polyline points="64.00,24.00 68.08,98.10 72.16,122.32 76.24,141.63 80.32,153.51 84.40,160.08 88.48,170.53 92.56,173.89 96.64,182.23 100.72,189.75 104.80,189.62 108.88,197.40 112.96,196.12 117.05,202.14 121.13,204.27 125.21,205.19 129.29,209.17 133.37,211.38 137.45,214.12 141.53,217.91 145.61,217.58 149.69,223.13 153.77,218.75 157.85,224.89 161.93,225.02 166.01,225.73 170.09,229.11 174.17,228.60 178.25,230.87 182.33,234.41 186.41,232.58 190.49,237.07 194.57,233.31 198.65,238.41 202.73,238.48 206.81,237.12 210.89,240.38 214.97,239.63 219.06,241.59 223.14,245.78 227.22,242.01 231.30,246.60 235.38,244.85 239.46,248.11 243.54,247.83 247.62,246.47 251.70,249.60 255.78,247.95 259.86,251.06 263.94,253.79 268.02,251.01 272.10,254.40 276.18,251.05 280.26,254.95 284.34,256.57 288.42,252.73 292.50,257.63 296.58,255.57 300.66,257.86 304.74,260.67 308.82,255.56 312.90,262.45 316.98,257.70 321.07,261.78 325.15,263.42 329.23,259.76 333.31,265.06 337.39,263.94 341.47,264.37 345.55,269.30 349.63,264.36 353.71,268.89 357.79,266.40 361.87,270.03 365.95,270.04 370.03,267.56 374.11,272.41 378.19,270.77 382.27,273.16 386.35,276.23 390.43,271.20 394.51,276.94 398.59,273.25 402.67,277.69 406.75,278.73 410.83,273.77 414.91,280.04 418.99,278.04 423.08,278.75 427.16,284.11 431.24,279.36 435.32,284.79 439.40,281.40 443.48,283.84 447.56,285.46 451.64,282.34 455.72,285.64 459.80,285.76 463.88,286.79 467.96,291.21 472.04,285.63 476.12,291.20 480.20,286.98 484.28,291.10 488.36,291.32 492.44,288.15 496.52,294.60 500.60,293.39 504.68,293.60 508.76,296.97 512.84,292.45 516.92,297.78 521.01,293.92 525.09,297.95 529.17,299.60 533.25,294.44 537.33,299.21 541.41,298.50 545.49,299.17 549.57,304.59 553.65,297.78 557.73,303.25 561.81,299.65 565.89,304.43 569.97,306.19 574.05,300.89 578.13,305.87 582.21,304.40 586.29,305.60 590.37,311.55 594.45,304.77 598.53,310.53 602.61,305.70 606.69,309.06 610.77,312.01 614.85,308.67 618.93,310.71 623.02,311.92 627.10,311.47 631.18,316.73 635.26,309.30 639.34,315.99 643.42,312.31 647.50,315.33 651.58,316.93 655.66,312.46 659.74,316.76 663.82,316.35 667.90,316.12 671.98,324.54 676.06,314.33 680.14,323.21 684.22,316.39 688.30,322.80 692.38,324.35 696.46,318.58 700.54,322.72 704.62,322.64 708.70,323.16 712.78,327.52 716.86,320.60 720.94,326.31 725.03,322.16 729.11,327.06 733.19,328.25 737.27,323.35 741.35,328.16 745.43,326.58 749.51,327.03 753.59,332.58 757.67,324.76 761.75,330.63 765.83,326.45 769.91,330.59 773.99,332.88 778.07,327.40 782.15,332.90 786.23,332.84 790.31,330.91 794.39,337.45 798.47,329.47 802.55,337.02 806.63,332.06 810.71,334.19 814.79,337.88 818.87,332.16 822.95,338.64 827.04,337.88 831.12,336.38 835.20,340.92 839.28,334.13 843.36,340.73 847.44,335.53 851.52,340.30 855.60,343.20 859.68,336.34 863.76,341.63 867.84,341.22 871.92,341.33 876.00,345.79" stroke="#2563eb" stroke-width="2" fill="none"/>
  <polyline points="64.00,68.15 68.08,106.36 72.16,127.48 76.24,142.04 80.32,152.52 84.40,161.28 88.48,168.19 92.56,174.01 96.64,179.18 100.72,183.21 104.80,187.34 108.88,190.73 112.96,194.05 117.05,197.07 121.13,199.66 125.21,202.36 129.29,204.73 133.37,206.88 137.45,209.05 141.53,210.85 145.61,213.04 149.69,214.69 153.77,216.34 157.85,218.01 161.93,219.22 166.01,220.90 170.09,222.27 174.17,223.55 178.25,225.03 182.33,225.96 186.41,227.43 190.49,228.53 194.57,229.79 198.65,230.83 202.73,231.68 206.81,232.93 210.89,233.95 214.97,234.76 219.06,235.88 223.14,236.44 227.22,237.69 231.30,238.47 235.38,239.36 239.46,240.23 243.54,240.67 247.62,241.75 251.70,242.62 255.78,243.21 259.86,244.06 263.94,244.53 268.02,245.67 272.10,246.31 276.18,247.05 280.26,247.89 284.34,248.35 288.42,249.23 292.50,250.03 296.58,250.69 300.66,251.47 304.74,251.99 308.82,253.04 312.90,253.67 316.98,254.42 321.07,255.12 325.15,255.71 329.23,256.65 333.31,257.35 337.39,257.97 341.47,258.78 345.55,259.25 349.63,260.29 353.71,261.00 357.79,261.70 361.87,262.48 365.95,262.82 370.03,263.86 374.11,264.56 378.19,265.13 382.27,265.98 386.35,266.37 390.43,267.31 394.51,267.92 398.59,268.56 402.67,269.35 406.75,269.79 410.83,270.66 414.91,271.32 418.99,271.83 423.08,272.59 427.16,272.99 431.24,273.98 435.32,274.58 439.40,275.06 443.48,275.99 447.56,276.27 451.64,277.15 455.72,277.86 459.80,278.53 463.88,279.28 467.96,279.56 472.04,280.46 476.12,281.14 480.20,281.80 484.28,282.38 488.36,282.73 492.44,283.48 496.52,284.21 500.60,284.73 504.68,285.46 508.76,285.91 512.84,286.92 516.92,287.41 521.01,288.07 525.09,288.64 529.17,289.02 533.25,289.84 537.33,290.58 541.41,290.96 545.49,291.56 549.57,291.98 553.65,292.88 557.73,293.46 561.81,293.95 565.89,294.67 569.97,294.74 574.05,295.69 578.13,296.14 582.21,296.74 586.29,297.36 590.37,297.61 594.45,298.69 598.53,299.10 602.61,299.50 606.69,300.23 610.77,300.38 614.85,301.41 618.93,301.81 623.02,302.19 627.10,302.99 631.18,303.24 635.26,303.97 639.34,304.56 643.42,305.08 647.50,305.74 651.58,306.12 655.66,306.75 659.74,307.27 663.82,307.62 667.90,308.37 671.98,308.48 676.06,309.47 680.14,309.95 684.22,310.55 688.30,310.94 692.38,311.22 696.46,312.00 700.54,312.70 704.62,313.13 708.70,313.81 712.78,313.05 716.86,314.52 720.94,314.98 725.03,315.30 729.11,316.32 733.19,316.40 737.27,317.04 741.35,317.18 745.43,317.80 749.51,318.57 753.59,318.63 757.67,319.48 761.75,319.60 765.83,320.55 769.91,320.75 773.99,320.86 778.07,321.53 782.15,322.25 786.23,322.67 790.31,323.20 794.39,323.32 798.47,324.27 802.55,324.23 806.63,325.05 810.71,325.37 814.79,325.23 818.87,326.50 822.95,326.91 827.04,326.34 831.12,327.83 835.20,328.01 839.28,328.98 843.36,328.96 847.44,329.45 851.52,330.06 855.60,330.05 859.68,331.04 863.76,331.09 867.84,331.67 871.92,331.94 876.00,332.43" stroke="#059669" stroke-width="2" fill="none"/>
  <polyline points="64.00,87.58 68.08,126.77 72.16,147.75 76.24,162.27 80.32,172.75 84.40,181.28 88.48,188.34 92.56,193.97 96.64,198.99 100.72,203.32 104.80,207.25 108.88,210.85 112.96,214.05 117.05,217.26 121.13,220.03 125.21,222.63 129.29,225.18 133.37,227.35 137.45,229.54 141.53,231.53 145.61,233.40 149.69,235.35 153.77,236.97 157.85,238.75 161.93,240.14 166.01,241.59 170.09,243.15 174.17,244.40 178.25,245.80 182.33,246.93 186.41,248.19 190.49,249.46 194.57,250.55 198.65,251.73 202.73,252.65 206.81,253.73 210.89,254.74 214.97,255.64 219.06,256.72 223.14,257.58 227.22,258.54 231.30,259.49 235.38,260.27 239.46,261.25 243.54,262.05 247.62,262.76 251.70,263.62 255.78,264.31 259.86,265.11 263.94,265.72 268.02,266.56 272.10,267.36 276.18,268.04 280.26,268.87 284.34,269.50 288.42,270.20 292.50,271.01 296.58,271.46 300.66,272.30 304.74,272.92 308.82,273.70 312.90,274.49 316.98,275.20 321.07,275.89 325.15,276.50 329.23,277.20 333.31,277.91 337.39,278.61 341.47,279.36 345.55,280.11 349.63,280.91 353.71,281.63 357.79,282.38 361.87,283.23 365.95,283.86 370.03,284.61 374.11,285.30 378.19,285.91 382.27,286.77 386.35,287.51 390.43,288.27 394.51,289.12 398.59,289.80 402.67,290.51 406.75,291.09 410.83,291.82 414.91,292.64 418.99,293.35 423.08,294.06 427.16,294.74 431.24,295.55 435.32,296.33 439.40,296.98 443.48,297.72 447.56,298.36 451.64,299.04 455.72,299.89 459.80,300.42 463.88,301.20 467.96,301.76 472.04,302.44 476.12,303.38 480.20,303.96 484.28,304.70 488.36,305.18 492.44,305.85 496.52,306.63 500.60,307.20 504.68,308.01 508.76,308.46 512.84,309.13 516.92,309.96 521.01,310.64 525.09,311.45 529.17,311.86 533.25,312.56 537.33,313.30 541.41,313.74 545.49,314.54 549.57,315.15 553.65,315.84 557.73,316.41 561.81,317.13 565.89,317.89 569.97,318.37 574.05,319.13 578.13,319.62 582.21,320.05 586.29,320.82 590.37,321.44 594.45,322.09 598.53,322.80 602.61,323.23 606.69,323.99 610.77,324.38 614.85,325.13 618.93,325.81 623.02,326.16 627.10,326.87 631.18,327.32 635.26,328.01 639.34,328.59 643.42,329.23 647.50,329.77 651.58,330.33 655.66,330.95 659.74,331.50 663.82,331.74 667.90,332.58 671.98,332.71 676.06,333.20 680.14,334.11 684.22,334.59 688.30,335.00 692.38,335.49 696.46,336.11 700.54,336.57 704.62,336.96 708.70,337.68 712.78,337.55 716.86,338.56 720.94,338.84 725.03,339.30 729.11,340.14 733.19,340.51 737.27,341.02 741.35,341.19 745.43,341.96 749.51,342.53 753.59,342.75 757.67,343.38 761.75,343.51 765.83,344.19 769.91,344.60 773.99,345.04 778.07,345.40 782.15,346.13 786.23,346.39 790.31,346.82 794.39,347.27 798.47,347.98 802.55,347.99 806.63,348.87 810.71,349.16 814.79,348.79 818.87,350.08 822.95,350.60 827.04,349.90 831.12,351.37 835.20,351.55 839.28,352.38 843.36,352.47 847.44,352.98 851.52,353.52 855.60,353.63 859.68,354.43 863.76,354.94 867.84,355.28 871.92,355.45 876.00,356.00" stroke="#dc2626" stroke-width="2" fill="none"/>
  <circle cx="876.00" cy="345.79" r="3" fill="#2563eb"/>
  <circle cx="876.00" cy="332.43" r="3" fill="#059669"/>
  <circle cx="876.00" cy="356.00" r="3" fill="#dc2626"/>
  <text x="680" y="18" fill="#57606a" font-family="monospace" font-size="12">train</text>
  <line x1="600" y1="14" x2="672" y2="14" stroke="#2563eb" stroke-width="2"/>
  <text x="680" y="38" fill="#57606a" font-family="monospace" font-size="12">train subset</text>
  <line x1="600" y1="34" x2="672" y2="34" stroke="#059669" stroke-width="2"/>
  <text x="680" y="58" fill="#57606a" font-family="monospace" font-size="12">validation subset</text>
  <line x1="600" y1="54" x2="672" y2="54" stroke="#dc2626" stroke-width="2"/>
</svg>
